<svg xmlns="http://www.w3.org/2000/svg" xmlns:xlink="http://www.w3.org/1999/xlink" width="96" zoomAndPan="magnify" viewBox="0 0 72 72" height="96" preserveAspectRatio="xMidYMid meet" version="1.0"><defs><clipPath id="id1"><path d="M 18.144531 15.476562 L 54.144531 15.476562 L 54.144531 56.726562 L 18.144531 56.726562 Z M 18.144531 15.476562 " clip-rule="nonzero"/></clipPath></defs><path fill="#fdbe35" d="M 72 36 C 72 37.179688 71.941406 38.355469 71.828125 39.527344 C 71.710938 40.703125 71.539062 41.867188 71.308594 43.023438 C 71.078125 44.179688 70.792969 45.320312 70.449219 46.449219 C 70.109375 47.578125 69.710938 48.6875 69.257812 49.777344 C 68.808594 50.867188 68.304688 51.929688 67.75 52.96875 C 67.191406 54.011719 66.589844 55.019531 65.933594 56 C 65.277344 56.980469 64.578125 57.925781 63.828125 58.839844 C 63.082031 59.75 62.289062 60.621094 61.457031 61.457031 C 60.621094 62.289062 59.75 63.082031 58.839844 63.828125 C 57.925781 64.578125 56.980469 65.277344 56 65.933594 C 55.019531 66.589844 54.011719 67.195312 52.96875 67.75 C 51.929688 68.304688 50.867188 68.808594 49.777344 69.257812 C 48.6875 69.710938 47.578125 70.109375 46.449219 70.449219 C 45.320312 70.792969 44.179688 71.078125 43.023438 71.308594 C 41.867188 71.539062 40.703125 71.710938 39.527344 71.828125 C 38.355469 71.941406 37.179688 72 36 72 C 34.820312 72 33.644531 71.941406 32.472656 71.828125 C 31.296875 71.710938 30.132812 71.539062 28.976562 71.308594 C 27.820312 71.078125 26.679688 70.792969 25.550781 70.449219 C 24.421875 70.109375 23.3125 69.710938 22.222656 69.257812 C 21.132812 68.808594 20.070312 68.304688 19.03125 67.75 C 17.988281 67.191406 16.980469 66.589844 16 65.933594 C 15.019531 65.277344 14.074219 64.578125 13.160156 63.828125 C 12.25 63.082031 11.378906 62.289062 10.542969 61.457031 C 9.710938 60.621094 8.917969 59.75 8.171875 58.839844 C 7.421875 57.925781 6.722656 56.980469 6.066406 56 C 5.410156 55.019531 4.804688 54.011719 4.25 52.96875 C 3.695312 51.929688 3.191406 50.867188 2.742188 49.777344 C 2.289062 48.6875 1.890625 47.578125 1.550781 46.449219 C 1.207031 45.320312 0.921875 44.179688 0.691406 43.023438 C 0.460938 41.867188 0.289062 40.703125 0.171875 39.527344 C 0.0585938 38.355469 0 37.179688 0 36 C 0 34.820312 0.0585938 33.644531 0.171875 32.472656 C 0.289062 31.296875 0.460938 30.132812 0.691406 28.976562 C 0.921875 27.820312 1.207031 26.679688 1.550781 25.550781 C 1.890625 24.421875 2.289062 23.3125 2.742188 22.222656 C 3.191406 21.132812 3.695312 20.070312 4.25 19.03125 C 4.804688 17.988281 5.410156 16.980469 6.066406 16 C 6.722656 15.019531 7.421875 14.074219 8.171875 13.160156 C 8.917969 12.25 9.710938 11.378906 10.542969 10.542969 C 11.378906 9.710938 12.25 8.917969 13.160156 8.171875 C 14.074219 7.421875 15.019531 6.722656 16 6.066406 C 16.980469 5.410156 17.988281 4.804688 19.03125 4.25 C 20.070312 3.695312 21.132812 3.191406 22.222656 2.742188 C 23.3125 2.289062 24.421875 1.890625 25.550781 1.550781 C 26.679688 1.207031 27.820312 0.921875 28.976562 0.691406 C 30.132812 0.460938 31.296875 0.289062 32.472656 0.171875 C 33.644531 0.0585938 34.820312 0 36 0 C 37.179688 0 38.355469 0.0585938 39.527344 0.171875 C 40.703125 0.289062 41.867188 0.460938 43.023438 0.691406 C 44.179688 0.921875 45.320312 1.207031 46.449219 1.550781 C 47.578125 1.890625 48.6875 2.289062 49.777344 2.742188 C 50.867188 3.191406 51.929688 3.695312 52.96875 4.25 C 54.011719 4.804688 55.019531 5.410156 56 6.066406 C 56.980469 6.722656 57.925781 7.421875 58.839844 8.171875 C 59.75 8.917969 60.621094 9.710938 61.457031 10.542969 C 62.289062 11.378906 63.082031 12.25 63.828125 13.160156 C 64.578125 14.074219 65.277344 15.019531 65.933594 16 C 66.589844 16.980469 67.191406 17.988281 67.75 19.03125 C 68.304688 20.070312 68.808594 21.132812 69.257812 22.222656 C 69.710938 23.3125 70.109375 24.421875 70.449219 25.550781 C 70.792969 26.679688 71.078125 27.820312 71.308594 28.976562 C 71.539062 30.132812 71.710938 31.296875 71.828125 32.472656 C 71.941406 33.644531 72 34.820312 72 36 Z M 72 36 " fill-opacity="1" fill-rule="nonzero"/><path fill="#212121" d="M 36 68.566406 C 18.027344 68.566406 3.433594 53.972656 3.433594 36 C 3.433594 18.027344 18.027344 3.433594 36 3.433594 C 53.972656 3.433594 68.566406 18.027344 68.566406 36 C 68.566406 53.972656 53.972656 68.566406 36 68.566406 Z M 36 4.238281 C 18.457031 4.238281 4.238281 18.457031 4.238281 36 C 4.238281 53.542969 18.507812 67.761719 36 67.761719 C 53.542969 67.761719 67.761719 53.492188 67.761719 36 C 67.761719 18.457031 53.542969 4.238281 36 4.238281 Z M 36 4.238281 " fill-opacity="1" fill-rule="nonzero"/><g clip-path="url(#id1)"><path fill="#000000" d="M 53.179688 50.355469 L 48.660156 50.355469 L 39.503906 17.941406 C 39.40625 17.589844 39.253906 17.265625 39.046875 16.960938 C 38.84375 16.660156 38.597656 16.398438 38.304688 16.175781 C 38.015625 15.953125 37.699219 15.785156 37.351562 15.664062 C 37.007812 15.546875 36.652344 15.484375 36.285156 15.480469 C 35.917969 15.476562 35.5625 15.527344 35.214844 15.640625 C 34.867188 15.75 34.542969 15.914062 34.25 16.128906 C 33.953125 16.34375 33.699219 16.597656 33.488281 16.894531 C 33.273438 17.191406 33.113281 17.511719 33.007812 17.863281 L 22.960938 50.355469 L 19.046875 50.355469 C 18.800781 50.355469 18.585938 50.445312 18.410156 50.617188 C 18.238281 50.792969 18.148438 51.003906 18.148438 51.25 L 18.148438 55.816406 C 18.148438 56.0625 18.238281 56.273438 18.414062 56.449219 C 18.585938 56.621094 18.800781 56.710938 19.046875 56.710938 L 53.179688 56.710938 C 53.425781 56.710938 53.636719 56.621094 53.8125 56.449219 C 53.988281 56.273438 54.074219 56.0625 54.074219 55.816406 L 54.074219 51.25 C 54.074219 51.003906 53.988281 50.792969 53.8125 50.617188 C 53.636719 50.445312 53.425781 50.355469 53.179688 50.355469 Z M 26.453125 45.140625 L 40.882812 39.089844 C 41.109375 38.996094 41.273438 38.832031 41.367188 38.601562 C 41.460938 38.375 41.457031 38.144531 41.363281 37.917969 C 41.265625 37.691406 41.101562 37.53125 40.875 37.4375 C 40.644531 37.34375 40.414062 37.34375 40.1875 37.441406 L 27.144531 42.910156 L 29.117188 36.515625 L 39.324219 31.164062 C 39.542969 31.046875 39.691406 30.871094 39.761719 30.636719 C 39.835938 30.402344 39.816406 30.171875 39.699219 29.953125 C 39.585938 29.734375 39.410156 29.589844 39.171875 29.515625 C 38.933594 29.441406 38.707031 29.464844 38.488281 29.578125 L 29.867188 34.101562 L 31.941406 27.386719 L 37.324219 24.425781 C 37.539062 24.308594 37.683594 24.128906 37.75 23.890625 C 37.820312 23.652344 37.796875 23.425781 37.675781 23.210938 C 37.554688 22.992188 37.375 22.851562 37.136719 22.78125 C 36.898438 22.714844 36.671875 22.742188 36.453125 22.859375 L 32.703125 24.925781 L 34.722656 18.390625 C 34.828125 18.050781 35.019531 17.78125 35.304688 17.574219 C 35.589844 17.367188 35.910156 17.265625 36.261719 17.269531 C 36.617188 17.273438 36.933594 17.382812 37.214844 17.597656 C 37.492188 17.8125 37.679688 18.085938 37.777344 18.425781 L 46.796875 50.355469 L 35.992188 50.355469 L 43.042969 46.710938 C 43.261719 46.597656 43.410156 46.421875 43.484375 46.1875 C 43.558594 45.949219 43.539062 45.722656 43.425781 45.503906 C 43.308594 45.285156 43.136719 45.136719 42.898438 45.0625 C 42.664062 44.988281 42.433594 45.007812 42.214844 45.121094 L 32.09375 50.355469 L 24.839844 50.355469 Z M 52.28125 54.921875 L 19.945312 54.921875 L 19.945312 52.148438 L 52.28125 52.148438 Z M 52.28125 54.921875 " fill-opacity="1" fill-rule="nonzero"/></g></svg>