<svg xmlns="http://www.w3.org/2000/svg" xmlns:xlink="http://www.w3.org/1999/xlink" width="96" zoomAndPan="magnify" viewBox="0 0 72 72" height="96" preserveAspectRatio="xMidYMid meet" version="1.0"><defs><clipPath id="id1"><path d="M 41 27 L 52.910156 27 L 52.910156 53.382812 L 41 53.382812 Z M 41 27 " clip-rule="nonzero"/></clipPath><clipPath id="id2"><path d="M 42 18.882812 L 50 18.882812 L 50 23 L 42 23 Z M 42 18.882812 " clip-rule="nonzero"/></clipPath><clipPath id="id3"><path d="M 19.160156 27 L 31 27 L 31 53.382812 L 19.160156 53.382812 Z M 19.160156 27 " clip-rule="nonzero"/></clipPath><clipPath id="id4"><path d="M 22 18.882812 L 31 18.882812 L 31 23 L 22 23 Z M 22 18.882812 " clip-rule="nonzero"/></clipPath><clipPath id="id5"><path d="M 28 27 L 44 27 L 44 53.382812 L 28 53.382812 Z M 28 27 " clip-rule="nonzero"/></clipPath><clipPath id="id6"><path d="M 32 18.882812 L 40 18.882812 L 40 23 L 32 23 Z M 32 18.882812 " clip-rule="nonzero"/></clipPath></defs><path fill="#fdbe35" d="M 72 36 C 72 37.179688 71.941406 38.355469 71.828125 39.527344 C 71.710938 40.703125 71.539062 41.867188 71.308594 43.023438 C 71.078125 44.179688 70.792969 45.320312 70.449219 46.449219 C 70.109375 47.578125 69.710938 48.6875 69.257812 49.777344 C 68.808594 50.867188 68.304688 51.929688 67.75 52.96875 C 67.191406 54.011719 66.589844 55.019531 65.933594 56 C 65.277344 56.980469 64.578125 57.925781 63.828125 58.839844 C 63.082031 59.75 62.289062 60.621094 61.457031 61.457031 C 60.621094 62.289062 59.75 63.082031 58.839844 63.828125 C 57.925781 64.578125 56.980469 65.277344 56 65.933594 C 55.019531 66.589844 54.011719 67.195312 52.96875 67.75 C 51.929688 68.304688 50.867188 68.808594 49.777344 69.257812 C 48.6875 69.710938 47.578125 70.109375 46.449219 70.449219 C 45.320312 70.792969 44.179688 71.078125 43.023438 71.308594 C 41.867188 71.539062 40.703125 71.710938 39.527344 71.828125 C 38.355469 71.941406 37.179688 72 36 72 C 34.820312 72 33.644531 71.941406 32.472656 71.828125 C 31.296875 71.710938 30.132812 71.539062 28.976562 71.308594 C 27.820312 71.078125 26.679688 70.792969 25.550781 70.449219 C 24.421875 70.109375 23.3125 69.710938 22.222656 69.257812 C 21.132812 68.808594 20.070312 68.304688 19.03125 67.75 C 17.988281 67.191406 16.980469 66.589844 16 65.933594 C 15.019531 65.277344 14.074219 64.578125 13.160156 63.828125 C 12.25 63.082031 11.378906 62.289062 10.542969 61.457031 C 9.710938 60.621094 8.917969 59.75 8.171875 58.839844 C 7.421875 57.925781 6.722656 56.980469 6.066406 56 C 5.410156 55.019531 4.804688 54.011719 4.25 52.96875 C 3.695312 51.929688 3.191406 50.867188 2.742188 49.777344 C 2.289062 48.6875 1.890625 47.578125 1.550781 46.449219 C 1.207031 45.320312 0.921875 44.179688 0.691406 43.023438 C 0.460938 41.867188 0.289062 40.703125 0.171875 39.527344 C 0.0585938 38.355469 0 37.179688 0 36 C 0 34.820312 0.0585938 33.644531 0.171875 32.472656 C 0.289062 31.296875 0.460938 30.132812 0.691406 28.976562 C 0.921875 27.820312 1.207031 26.679688 1.550781 25.550781 C 1.890625 24.421875 2.289062 23.3125 2.742188 22.222656 C 3.191406 21.132812 3.695312 20.070312 4.25 19.03125 C 4.804688 17.988281 5.410156 16.980469 6.066406 16 C 6.722656 15.019531 7.421875 14.074219 8.171875 13.160156 C 8.917969 12.25 9.710938 11.378906 10.542969 10.542969 C 11.378906 9.710938 12.25 8.917969 13.160156 8.171875 C 14.074219 7.421875 15.019531 6.722656 16 6.066406 C 16.980469 5.410156 17.988281 4.804688 19.03125 4.25 C 20.070312 3.695312 21.132812 3.191406 22.222656 2.742188 C 23.3125 2.289062 24.421875 1.890625 25.550781 1.550781 C 26.679688 1.207031 27.820312 0.921875 28.976562 0.691406 C 30.132812 0.460938 31.296875 0.289062 32.472656 0.171875 C 33.644531 0.0585938 34.820312 0 36 0 C 37.179688 0 38.355469 0.0585938 39.527344 0.171875 C 40.703125 0.289062 41.867188 0.460938 43.023438 0.691406 C 44.179688 0.921875 45.320312 1.207031 46.449219 1.550781 C 47.578125 1.890625 48.6875 2.289062 49.777344 2.742188 C 50.867188 3.191406 51.929688 3.695312 52.96875 4.25 C 54.011719 4.804688 55.019531 5.410156 56 6.066406 C 56.980469 6.722656 57.925781 7.421875 58.839844 8.171875 C 59.75 8.917969 60.621094 9.710938 61.457031 10.542969 C 62.289062 11.378906 63.082031 12.25 63.828125 13.160156 C 64.578125 14.074219 65.277344 15.019531 65.933594 16 C 66.589844 16.980469 67.191406 17.988281 67.75 19.03125 C 68.304688 20.070312 68.808594 21.132812 69.257812 22.222656 C 69.710938 23.3125 70.109375 24.421875 70.449219 25.550781 C 70.792969 26.679688 71.078125 27.820312 71.308594 28.976562 C 71.539062 30.132812 71.710938 31.296875 71.828125 32.472656 C 71.941406 33.644531 72 34.820312 72 36 Z M 72 36 " fill-opacity="1" fill-rule="nonzero"/><path fill="#212121" d="M 36 68.566406 C 18.027344 68.566406 3.433594 53.972656 3.433594 36 C 3.433594 18.027344 18.027344 3.433594 36 3.433594 C 53.972656 3.433594 68.566406 18.027344 68.566406 36 C 68.566406 53.972656 53.972656 68.566406 36 68.566406 Z M 36 4.238281 C 18.457031 4.238281 4.238281 18.457031 4.238281 36 C 4.238281 53.542969 18.507812 67.761719 36 67.761719 C 53.542969 67.761719 67.761719 53.492188 67.761719 36 C 67.761719 18.457031 53.542969 4.238281 36 4.238281 Z M 36 4.238281 " fill-opacity="1" fill-rule="nonzero"/><path fill="#000000" d="M 41.8125 28.863281 C 42.4375 29.703125 42.914062 30.769531 43.238281 32.082031 L 43.238281 27.582031 L 43.011719 27.582031 C 42.898438 27.582031 42.785156 27.601562 42.683594 27.636719 C 42.484375 27.671875 42.238281 27.734375 41.960938 27.855469 C 41.742188 27.949219 41.511719 28.082031 41.277344 28.253906 C 41.457031 28.429688 41.636719 28.632812 41.8125 28.863281 Z M 41.8125 28.863281 " fill-opacity="1" fill-rule="nonzero"/><path fill="#000000" d="M 44.113281 27.582031 L 47.234375 27.582031 L 47.234375 30.136719 L 44.113281 30.136719 Z M 44.113281 27.582031 " fill-opacity="1" fill-rule="nonzero"/><g clip-path="url(#id1)"><path fill="#000000" d="M 49.382812 27.855469 C 49.109375 27.734375 48.863281 27.671875 48.664062 27.636719 C 48.558594 27.601562 48.449219 27.582031 48.332031 27.582031 L 48.105469 27.582031 L 48.105469 37.566406 L 43.789062 37.566406 C 43.785156 38.238281 43.765625 38.9375 43.726562 39.652344 C 43.675781 40.53125 42.953125 41.222656 42.078125 41.222656 C 42.046875 41.222656 42.019531 41.222656 41.988281 41.21875 C 41.976562 41.21875 41.960938 41.214844 41.949219 41.214844 L 41.949219 51.671875 C 41.949219 52.617188 42.710938 53.382812 43.652344 53.382812 C 44.589844 53.382812 45.351562 52.617188 45.351562 51.671875 L 45.351562 39.191406 L 45.992188 39.191406 L 45.992188 51.671875 C 45.992188 52.617188 46.753906 53.382812 47.695312 53.382812 C 48.632812 53.382812 49.398438 52.617188 49.398438 51.671875 L 49.398438 30.742188 C 49.445312 30.820312 49.5 30.902344 49.550781 30.996094 C 50.109375 31.988281 50.675781 33.917969 50.675781 37.402344 C 50.675781 38.046875 50.65625 38.746094 50.613281 39.5 C 50.582031 40.109375 51.046875 40.632812 51.652344 40.667969 C 51.675781 40.667969 51.695312 40.667969 51.714844 40.667969 C 52.296875 40.667969 52.78125 40.210938 52.8125 39.621094 C 52.859375 38.828125 52.878906 38.089844 52.878906 37.402344 C 52.875 33.019531 52.066406 30.605469 51.011719 29.199219 C 50.484375 28.5 49.894531 28.078125 49.382812 27.855469 Z M 49.382812 27.855469 " fill-opacity="1" fill-rule="nonzero"/></g><path fill="#000000" d="M 42.574219 23.542969 C 42.574219 25.265625 43.960938 26.660156 45.671875 26.660156 C 47.382812 26.660156 48.769531 25.265625 48.769531 23.542969 C 48.769531 23.390625 48.757812 23.242188 48.738281 23.097656 L 42.605469 23.097656 C 42.585938 23.242188 42.574219 23.390625 42.574219 23.542969 Z M 42.574219 23.542969 " fill-opacity="1" fill-rule="nonzero"/><g clip-path="url(#id2)"><path fill="#000000" d="M 42.433594 21.984375 C 42.203125 21.984375 42.015625 22.171875 42.015625 22.402344 C 42.015625 22.632812 42.203125 22.820312 42.433594 22.820312 L 48.914062 22.820312 C 49.140625 22.820312 49.328125 22.632812 49.328125 22.402344 C 49.328125 22.171875 49.140625 21.984375 48.914062 21.984375 L 48.855469 21.984375 C 48.851562 21.890625 48.847656 21.796875 48.835938 21.707031 C 48.730469 20.757812 48.214844 19.9375 47.46875 19.421875 L 47.46875 19.679688 C 47.46875 19.859375 47.320312 20.007812 47.140625 20.007812 C 46.957031 20.007812 46.808594 19.859375 46.808594 19.679688 L 46.808594 19.078125 C 46.554688 18.980469 46.285156 18.910156 46 18.882812 L 46 19.679688 C 46 19.859375 45.855469 20.007812 45.671875 20.007812 C 45.492188 20.007812 45.34375 19.859375 45.34375 19.679688 L 45.34375 18.882812 C 45.0625 18.910156 44.789062 18.980469 44.535156 19.078125 L 44.535156 19.679688 C 44.535156 19.859375 44.386719 20.007812 44.207031 20.007812 C 44.023438 20.007812 43.878906 19.859375 43.878906 19.679688 L 43.878906 19.421875 C 43.132812 19.9375 42.613281 20.757812 42.507812 21.707031 C 42.5 21.796875 42.492188 21.890625 42.488281 21.984375 Z M 42.433594 21.984375 " fill-opacity="1" fill-rule="nonzero"/></g><path fill="#000000" d="M 28.828125 30.136719 L 28.828125 32.070312 C 28.996094 31.394531 29.207031 30.78125 29.457031 30.230469 C 29.855469 29.335938 30.332031 28.707031 30.789062 28.257812 C 30.554688 28.085938 30.324219 27.953125 30.105469 27.855469 C 29.832031 27.734375 29.585938 27.671875 29.386719 27.636719 C 29.28125 27.601562 29.171875 27.582031 29.054688 27.582031 L 28.828125 27.582031 Z M 28.828125 30.136719 " fill-opacity="1" fill-rule="nonzero"/><path fill="#000000" d="M 24.835938 27.582031 L 27.957031 27.582031 L 27.957031 30.136719 L 24.835938 30.136719 Z M 24.835938 27.582031 " fill-opacity="1" fill-rule="nonzero"/><g clip-path="url(#id3)"><path fill="#000000" d="M 29.992188 41.222656 C 29.113281 41.222656 28.390625 40.53125 28.34375 39.652344 C 28.300781 38.933594 28.28125 38.234375 28.277344 37.566406 L 23.960938 37.566406 L 23.960938 27.582031 L 23.734375 27.582031 C 23.621094 27.582031 23.507812 27.601562 23.40625 27.636719 C 23.207031 27.671875 22.960938 27.734375 22.683594 27.855469 C 21.914062 28.1875 20.984375 28.976562 20.320312 30.457031 C 19.648438 31.941406 19.191406 34.113281 19.1875 37.402344 C 19.1875 38.089844 19.210938 38.828125 19.253906 39.621094 C 19.285156 40.210938 19.773438 40.667969 20.351562 40.667969 C 20.371094 40.667969 20.394531 40.667969 20.414062 40.667969 C 21.023438 40.632812 21.488281 40.109375 21.453125 39.5 C 21.410156 38.746094 21.390625 38.046875 21.390625 37.402344 C 21.386719 33.585938 22.074219 31.648438 22.671875 30.734375 L 22.671875 51.671875 C 22.671875 52.617188 23.433594 53.382812 24.375 53.382812 C 25.3125 53.382812 26.074219 52.617188 26.074219 51.671875 L 26.074219 39.191406 L 26.714844 39.191406 L 26.714844 51.671875 C 26.714844 52.617188 27.476562 53.382812 28.417969 53.382812 C 29.355469 53.382812 30.117188 52.617188 30.117188 51.671875 L 30.117188 41.214844 C 30.105469 41.21875 30.09375 41.21875 30.082031 41.21875 C 30.050781 41.222656 30.019531 41.222656 29.992188 41.222656 Z M 29.992188 41.222656 " fill-opacity="1" fill-rule="nonzero"/></g><path fill="#000000" d="M 23.296875 23.542969 C 23.296875 25.265625 24.683594 26.660156 26.394531 26.660156 C 28.105469 26.660156 29.492188 25.265625 29.492188 23.542969 C 29.492188 23.390625 29.480469 23.242188 29.460938 23.097656 L 23.328125 23.097656 C 23.308594 23.242188 23.296875 23.390625 23.296875 23.542969 Z M 23.296875 23.542969 " fill-opacity="1" fill-rule="nonzero"/><g clip-path="url(#id4)"><path fill="#000000" d="M 23.210938 21.984375 L 23.15625 21.984375 C 22.925781 21.984375 22.738281 22.171875 22.738281 22.402344 C 22.738281 22.632812 22.925781 22.820312 23.15625 22.820312 L 29.636719 22.820312 C 29.863281 22.820312 30.050781 22.632812 30.050781 22.402344 C 30.050781 22.171875 29.863281 21.984375 29.636719 21.984375 L 29.578125 21.984375 C 29.574219 21.890625 29.570312 21.796875 29.558594 21.707031 C 29.453125 20.757812 28.9375 19.9375 28.191406 19.421875 L 28.191406 19.679688 C 28.191406 19.859375 28.042969 20.007812 27.863281 20.007812 C 27.679688 20.007812 27.53125 19.859375 27.53125 19.679688 L 27.53125 19.078125 C 27.277344 18.980469 27.007812 18.910156 26.722656 18.882812 L 26.722656 19.679688 C 26.722656 19.859375 26.578125 20.007812 26.394531 20.007812 C 26.214844 20.007812 26.066406 19.859375 26.066406 19.679688 L 26.066406 18.882812 C 25.785156 18.910156 25.511719 18.980469 25.257812 19.078125 L 25.257812 19.679688 C 25.257812 19.859375 25.109375 20.007812 24.929688 20.007812 C 24.746094 20.007812 24.601562 19.859375 24.601562 19.679688 L 24.601562 19.421875 C 23.855469 19.9375 23.335938 20.757812 23.230469 21.707031 C 23.222656 21.800781 23.214844 21.890625 23.210938 21.984375 Z M 23.210938 21.984375 " fill-opacity="1" fill-rule="nonzero"/></g><path fill="#000000" d="M 34.472656 27.582031 L 37.59375 27.582031 L 37.59375 30.136719 L 34.472656 30.136719 Z M 34.472656 27.582031 " fill-opacity="1" fill-rule="nonzero"/><g clip-path="url(#id5)"><path fill="#000000" d="M 39.757812 30.742188 C 39.808594 30.820312 39.859375 30.902344 39.914062 30.996094 C 40.46875 31.988281 41.039062 33.917969 41.035156 37.402344 C 41.035156 38.046875 41.015625 38.746094 40.976562 39.5 C 40.941406 40.109375 41.40625 40.632812 42.015625 40.667969 C 42.035156 40.667969 42.054688 40.667969 42.078125 40.667969 C 42.65625 40.667969 43.144531 40.210938 43.175781 39.621094 C 43.21875 38.828125 43.238281 38.089844 43.238281 37.402344 C 43.234375 33.019531 42.425781 30.605469 41.371094 29.199219 C 40.847656 28.5 40.253906 28.078125 39.746094 27.855469 C 39.46875 27.734375 39.222656 27.671875 39.023438 27.636719 C 38.921875 27.601562 38.808594 27.582031 38.695312 27.582031 L 38.464844 27.582031 L 38.464844 37.566406 L 33.601562 37.566406 L 33.601562 27.582031 L 33.375 27.582031 C 33.257812 27.582031 33.148438 27.601562 33.042969 27.636719 C 32.84375 27.671875 32.597656 27.734375 32.324219 27.855469 C 31.550781 28.1875 30.621094 28.976562 29.957031 30.457031 C 29.289062 31.941406 28.828125 34.113281 28.828125 37.402344 C 28.828125 38.089844 28.847656 38.828125 28.890625 39.621094 C 28.925781 40.210938 29.410156 40.667969 29.992188 40.667969 C 30.011719 40.667969 30.03125 40.667969 30.054688 40.667969 C 30.660156 40.632812 31.125 40.109375 31.089844 39.5 C 31.050781 38.746094 31.03125 38.046875 31.03125 37.402344 C 31.027344 33.585938 31.710938 31.648438 32.308594 30.734375 L 32.308594 51.671875 C 32.308594 52.617188 33.070312 53.382812 34.011719 53.382812 C 34.953125 53.382812 35.714844 52.617188 35.714844 51.671875 L 35.714844 39.191406 L 36.351562 39.191406 L 36.351562 51.671875 C 36.351562 52.617188 37.117188 53.382812 38.054688 53.382812 C 38.996094 53.382812 39.757812 52.617188 39.757812 51.671875 Z M 39.757812 30.742188 " fill-opacity="1" fill-rule="nonzero"/></g><path fill="#000000" d="M 32.9375 23.542969 C 32.9375 25.265625 34.324219 26.660156 36.035156 26.660156 C 37.746094 26.660156 39.132812 25.265625 39.132812 23.542969 C 39.132812 23.390625 39.121094 23.242188 39.101562 23.097656 L 32.96875 23.097656 C 32.945312 23.242188 32.9375 23.390625 32.9375 23.542969 Z M 32.9375 23.542969 " fill-opacity="1" fill-rule="nonzero"/><g clip-path="url(#id6)"><path fill="#000000" d="M 32.792969 21.984375 C 32.5625 21.984375 32.378906 22.171875 32.378906 22.402344 C 32.378906 22.632812 32.5625 22.820312 32.792969 22.820312 L 39.273438 22.820312 C 39.503906 22.820312 39.691406 22.632812 39.691406 22.402344 C 39.691406 22.171875 39.503906 21.984375 39.273438 21.984375 L 39.214844 21.984375 C 39.214844 21.890625 39.207031 21.796875 39.199219 21.707031 C 39.09375 20.757812 38.574219 19.9375 37.828125 19.421875 L 37.828125 19.679688 C 37.828125 19.859375 37.683594 20.007812 37.5 20.007812 C 37.320312 20.007812 37.171875 19.859375 37.171875 19.679688 L 37.171875 19.078125 C 36.914062 18.980469 36.644531 18.910156 36.363281 18.882812 L 36.363281 19.679688 C 36.363281 19.859375 36.214844 20.007812 36.035156 20.007812 C 35.851562 20.007812 35.703125 19.859375 35.703125 19.679688 L 35.703125 18.882812 C 35.421875 18.910156 35.152344 18.980469 34.894531 19.078125 L 34.894531 19.679688 C 34.894531 19.859375 34.75 20.007812 34.566406 20.007812 C 34.386719 20.007812 34.238281 19.859375 34.238281 19.679688 L 34.238281 19.421875 C 33.492188 19.9375 32.976562 20.757812 32.871094 21.707031 C 32.859375 21.796875 32.851562 21.890625 32.851562 21.984375 Z M 32.792969 21.984375 " fill-opacity="1" fill-rule="nonzero"/></g></svg>