<svg xmlns="http://www.w3.org/2000/svg" xmlns:xlink="http://www.w3.org/1999/xlink" width="96" zoomAndPan="magnify" viewBox="0 0 72 72" height="96" preserveAspectRatio="xMidYMid meet" version="1.0"><defs><clipPath id="id1"><path d="M 16.9375 40.125 L 55.132812 40.125 L 55.132812 49.46875 L 16.9375 49.46875 Z M 16.9375 40.125 " clip-rule="nonzero"/></clipPath><clipPath id="id2"><path d="M 20 37 L 52 37 L 52 51.871094 L 20 51.871094 Z M 20 37 " clip-rule="nonzero"/></clipPath><clipPath id="id3"><path d="M 26 20.371094 L 46 20.371094 L 46 30 L 26 30 Z M 26 20.371094 " clip-rule="nonzero"/></clipPath><clipPath id="id4"><path d="M 28 37 L 44 37 L 44 51.871094 L 28 51.871094 Z M 28 37 " clip-rule="nonzero"/></clipPath></defs><path fill="#fdbe35" d="M 72 36 C 72 37.179688 71.941406 38.355469 71.828125 39.527344 C 71.710938 40.703125 71.539062 41.867188 71.308594 43.023438 C 71.078125 44.179688 70.792969 45.320312 70.449219 46.449219 C 70.109375 47.578125 69.710938 48.6875 69.257812 49.777344 C 68.808594 50.867188 68.304688 51.929688 67.75 52.96875 C 67.191406 54.011719 66.589844 55.019531 65.933594 56 C 65.277344 56.980469 64.578125 57.925781 63.828125 58.839844 C 63.082031 59.75 62.289062 60.621094 61.457031 61.457031 C 60.621094 62.289062 59.75 63.082031 58.839844 63.828125 C 57.925781 64.578125 56.980469 65.277344 56 65.933594 C 55.019531 66.589844 54.011719 67.195312 52.96875 67.75 C 51.929688 68.304688 50.867188 68.808594 49.777344 69.257812 C 48.6875 69.710938 47.578125 70.109375 46.449219 70.449219 C 45.320312 70.792969 44.179688 71.078125 43.023438 71.308594 C 41.867188 71.539062 40.703125 71.710938 39.527344 71.828125 C 38.355469 71.941406 37.179688 72 36 72 C 34.820312 72 33.644531 71.941406 32.472656 71.828125 C 31.296875 71.710938 30.132812 71.539062 28.976562 71.308594 C 27.820312 71.078125 26.679688 70.792969 25.550781 70.449219 C 24.421875 70.109375 23.3125 69.710938 22.222656 69.257812 C 21.132812 68.808594 20.070312 68.304688 19.03125 67.75 C 17.988281 67.191406 16.980469 66.589844 16 65.933594 C 15.019531 65.277344 14.074219 64.578125 13.160156 63.828125 C 12.25 63.082031 11.378906 62.289062 10.542969 61.457031 C 9.710938 60.621094 8.917969 59.75 8.171875 58.839844 C 7.421875 57.925781 6.722656 56.980469 6.066406 56 C 5.410156 55.019531 4.804688 54.011719 4.25 52.96875 C 3.695312 51.929688 3.191406 50.867188 2.742188 49.777344 C 2.289062 48.6875 1.890625 47.578125 1.550781 46.449219 C 1.207031 45.320312 0.921875 44.179688 0.691406 43.023438 C 0.460938 41.867188 0.289062 40.703125 0.171875 39.527344 C 0.0585938 38.355469 0 37.179688 0 36 C 0 34.820312 0.0585938 33.644531 0.171875 32.472656 C 0.289062 31.296875 0.460938 30.132812 0.691406 28.976562 C 0.921875 27.820312 1.207031 26.679688 1.550781 25.550781 C 1.890625 24.421875 2.289062 23.3125 2.742188 22.222656 C 3.191406 21.132812 3.695312 20.070312 4.25 19.03125 C 4.804688 17.988281 5.410156 16.980469 6.066406 16 C 6.722656 15.019531 7.421875 14.074219 8.171875 13.160156 C 8.917969 12.25 9.710938 11.378906 10.542969 10.542969 C 11.378906 9.710938 12.25 8.917969 13.160156 8.171875 C 14.074219 7.421875 15.019531 6.722656 16 6.066406 C 16.980469 5.410156 17.988281 4.804688 19.03125 4.25 C 20.070312 3.695312 21.132812 3.191406 22.222656 2.742188 C 23.3125 2.289062 24.421875 1.890625 25.550781 1.550781 C 26.679688 1.207031 27.820312 0.921875 28.976562 0.691406 C 30.132812 0.460938 31.296875 0.289062 32.472656 0.171875 C 33.644531 0.0585938 34.820312 0 36 0 C 37.179688 0 38.355469 0.0585938 39.527344 0.171875 C 40.703125 0.289062 41.867188 0.460938 43.023438 0.691406 C 44.179688 0.921875 45.320312 1.207031 46.449219 1.550781 C 47.578125 1.890625 48.6875 2.289062 49.777344 2.742188 C 50.867188 3.191406 51.929688 3.695312 52.96875 4.25 C 54.011719 4.804688 55.019531 5.410156 56 6.066406 C 56.980469 6.722656 57.925781 7.421875 58.839844 8.171875 C 59.75 8.917969 60.621094 9.710938 61.457031 10.542969 C 62.289062 11.378906 63.082031 12.25 63.828125 13.160156 C 64.578125 14.074219 65.277344 15.019531 65.933594 16 C 66.589844 16.980469 67.191406 17.988281 67.75 19.03125 C 68.304688 20.070312 68.808594 21.132812 69.257812 22.222656 C 69.710938 23.3125 70.109375 24.421875 70.449219 25.550781 C 70.792969 26.679688 71.078125 27.820312 71.308594 28.976562 C 71.539062 30.132812 71.710938 31.296875 71.828125 32.472656 C 71.941406 33.644531 72 34.820312 72 36 Z M 72 36 " fill-opacity="1" fill-rule="nonzero"/><path fill="#212121" d="M 36 68.566406 C 18.027344 68.566406 3.433594 53.972656 3.433594 36 C 3.433594 18.027344 18.027344 3.433594 36 3.433594 C 53.972656 3.433594 68.566406 18.027344 68.566406 36 C 68.566406 53.972656 53.972656 68.566406 36 68.566406 Z M 36 4.238281 C 18.457031 4.238281 4.238281 18.457031 4.238281 36 C 4.238281 53.542969 18.507812 67.761719 36 67.761719 C 53.542969 67.761719 67.761719 53.492188 67.761719 36 C 67.761719 18.457031 53.542969 4.238281 36 4.238281 Z M 36 4.238281 " fill-opacity="1" fill-rule="nonzero"/><g clip-path="url(#id1)"><path fill="#100f0d" d="M 53.039062 40.25 L 53.039062 49.324219 L 55.132812 49.324219 L 55.132812 40.25 Z M 43.246094 40.25 C 44.089844 41.601562 44.542969 43.175781 44.542969 44.785156 C 44.542969 46.394531 44.085938 47.972656 43.246094 49.324219 L 46.640625 49.324219 L 46.640625 40.25 Z M 28.824219 40.25 L 25.433594 40.25 L 25.433594 49.324219 L 28.824219 49.324219 C 27.984375 47.972656 27.53125 46.394531 27.53125 44.785156 C 27.53125 43.175781 27.984375 41.601562 28.824219 40.25 Z M 16.9375 40.25 L 19.03125 40.25 L 19.03125 49.324219 L 16.9375 49.324219 L 16.9375 40.25 " fill-opacity="1" fill-rule="nonzero"/></g><g clip-path="url(#id2)"><path fill="#100f0d" d="M 50.160156 37.773438 L 49.515625 37.773438 C 48.738281 37.773438 48.101562 38.410156 48.101562 39.199219 L 48.101562 50.375 C 48.101562 51.160156 48.738281 51.796875 49.515625 51.796875 L 50.160156 51.796875 C 50.941406 51.796875 51.574219 51.160156 51.574219 50.375 L 51.574219 39.199219 C 51.574219 38.410156 50.941406 37.773438 50.160156 37.773438 Z M 23.96875 39.199219 L 23.96875 50.375 C 23.96875 51.160156 23.335938 51.796875 22.554688 51.796875 L 21.914062 51.796875 C 21.132812 51.796875 20.496094 51.160156 20.496094 50.375 L 20.496094 39.199219 C 20.496094 38.410156 21.132812 37.773438 21.914062 37.773438 L 22.554688 37.773438 C 23.335938 37.773438 23.96875 38.410156 23.96875 39.199219 " fill-opacity="1" fill-rule="nonzero"/></g><g clip-path="url(#id3)"><path fill="#100f0d" d="M 36.765625 27.933594 L 36.765625 23.851562 L 40.824219 23.851562 Z M 35.304688 27.933594 L 31.25 23.851562 L 35.304688 23.851562 Z M 44.386719 20.371094 L 27.6875 20.371094 C 27.035156 20.371094 26.503906 20.902344 26.503906 21.558594 L 26.503906 22.667969 C 26.503906 23.320312 27.035156 23.851562 27.6875 23.851562 L 29.175781 23.851562 L 35.148438 29.859375 L 36.925781 29.859375 L 42.894531 23.851562 L 44.386719 23.851562 C 45.039062 23.851562 45.566406 23.320312 45.566406 22.667969 L 45.566406 21.558594 C 45.566406 20.902344 45.039062 20.371094 44.386719 20.371094 " fill-opacity="1" fill-rule="nonzero"/></g><path fill="#100f0d" d="M 43.824219 35.714844 L 41.109375 35.714844 L 41.109375 37.917969 C 39.65625 36.824219 37.894531 36.230469 36.035156 36.230469 C 34.175781 36.230469 32.414062 36.824219 30.960938 37.917969 L 30.960938 35.714844 L 28.246094 35.714844 L 29.675781 29.859375 L 42.394531 29.859375 L 43.824219 35.714844 " fill-opacity="1" fill-rule="nonzero"/><g clip-path="url(#id4)"><path fill="#100f0d" d="M 39.042969 47.308594 C 38.324219 48.175781 37.242188 48.726562 36.035156 48.726562 C 34.828125 48.726562 33.75 48.175781 33.03125 47.308594 C 32.464844 46.625 32.121094 45.746094 32.121094 44.785156 C 32.121094 43.824219 32.464844 42.949219 33.03125 42.265625 C 33.089844 42.191406 33.152344 42.125 33.214844 42.058594 C 33.925781 41.3125 34.925781 40.847656 36.035156 40.847656 C 37.144531 40.847656 38.144531 41.3125 38.855469 42.054688 C 38.921875 42.125 38.984375 42.191406 39.042969 42.265625 C 39.609375 42.949219 39.953125 43.824219 39.953125 44.785156 C 39.953125 45.746094 39.609375 46.625 39.042969 47.308594 Z M 41.445312 40.25 C 41.335938 40.117188 41.230469 39.996094 41.109375 39.875 C 39.828125 38.535156 38.03125 37.703125 36.035156 37.703125 C 34.039062 37.703125 32.238281 38.539062 30.960938 39.878906 C 30.84375 40 30.734375 40.121094 30.628906 40.25 C 29.609375 41.476562 28.992188 43.058594 28.992188 44.785156 C 28.992188 46.511719 29.609375 48.09375 30.628906 49.324219 C 31.921875 50.882812 33.863281 51.871094 36.035156 51.871094 C 38.210938 51.871094 40.152344 50.882812 41.445312 49.324219 C 42.464844 48.09375 43.082031 46.511719 43.082031 44.785156 C 43.082031 43.058594 42.464844 41.476562 41.445312 40.25 " fill-opacity="1" fill-rule="nonzero"/></g></svg>