<svg xmlns="http://www.w3.org/2000/svg" xmlns:xlink="http://www.w3.org/1999/xlink" width="96" zoomAndPan="magnify" viewBox="0 0 72 72" height="96" preserveAspectRatio="xMidYMid meet" version="1.0"><defs><clipPath id="id1"><path d="M 15 24.5 L 31 24.5 L 31 44 L 15 44 Z M 15 24.5 " clip-rule="nonzero"/></clipPath><clipPath id="id2"><path d="M 29 39 L 56.945312 39 L 56.945312 42 L 29 42 Z M 29 39 " clip-rule="nonzero"/></clipPath><clipPath id="id3"><path d="M 26 43 L 56.945312 43 L 56.945312 45 L 26 45 Z M 26 43 " clip-rule="nonzero"/></clipPath><clipPath id="id4"><path d="M 20 46 L 56.945312 46 L 56.945312 47.75 L 20 47.75 Z M 20 46 " clip-rule="nonzero"/></clipPath><clipPath id="id5"><path d="M 41 27 L 56.945312 27 L 56.945312 39 L 41 39 Z M 41 27 " clip-rule="nonzero"/></clipPath><clipPath id="id6"><path d="M 51 27 L 56.945312 27 L 56.945312 33 L 51 33 Z M 51 27 " clip-rule="nonzero"/></clipPath></defs><path fill="#fdbe35" d="M 72 36 C 72 37.179688 71.941406 38.355469 71.828125 39.527344 C 71.710938 40.703125 71.539062 41.867188 71.308594 43.023438 C 71.078125 44.179688 70.792969 45.320312 70.449219 46.449219 C 70.109375 47.578125 69.710938 48.6875 69.257812 49.777344 C 68.808594 50.867188 68.304688 51.929688 67.75 52.96875 C 67.191406 54.011719 66.589844 55.019531 65.933594 56 C 65.277344 56.980469 64.578125 57.925781 63.828125 58.839844 C 63.082031 59.75 62.289062 60.621094 61.457031 61.457031 C 60.621094 62.289062 59.75 63.082031 58.839844 63.828125 C 57.925781 64.578125 56.980469 65.277344 56 65.933594 C 55.019531 66.589844 54.011719 67.195312 52.96875 67.75 C 51.929688 68.304688 50.867188 68.808594 49.777344 69.257812 C 48.6875 69.710938 47.578125 70.109375 46.449219 70.449219 C 45.320312 70.792969 44.179688 71.078125 43.023438 71.308594 C 41.867188 71.539062 40.703125 71.710938 39.527344 71.828125 C 38.355469 71.941406 37.179688 72 36 72 C 34.820312 72 33.644531 71.941406 32.472656 71.828125 C 31.296875 71.710938 30.132812 71.539062 28.976562 71.308594 C 27.820312 71.078125 26.679688 70.792969 25.550781 70.449219 C 24.421875 70.109375 23.3125 69.710938 22.222656 69.257812 C 21.132812 68.808594 20.070312 68.304688 19.03125 67.75 C 17.988281 67.191406 16.980469 66.589844 16 65.933594 C 15.019531 65.277344 14.074219 64.578125 13.160156 63.828125 C 12.25 63.082031 11.378906 62.289062 10.542969 61.457031 C 9.710938 60.621094 8.917969 59.75 8.171875 58.839844 C 7.421875 57.925781 6.722656 56.980469 6.066406 56 C 5.410156 55.019531 4.804688 54.011719 4.25 52.96875 C 3.695312 51.929688 3.191406 50.867188 2.742188 49.777344 C 2.289062 48.6875 1.890625 47.578125 1.550781 46.449219 C 1.207031 45.320312 0.921875 44.179688 0.691406 43.023438 C 0.460938 41.867188 0.289062 40.703125 0.171875 39.527344 C 0.0585938 38.355469 0 37.179688 0 36 C 0 34.820312 0.0585938 33.644531 0.171875 32.472656 C 0.289062 31.296875 0.460938 30.132812 0.691406 28.976562 C 0.921875 27.820312 1.207031 26.679688 1.550781 25.550781 C 1.890625 24.421875 2.289062 23.3125 2.742188 22.222656 C 3.191406 21.132812 3.695312 20.070312 4.25 19.03125 C 4.804688 17.988281 5.410156 16.980469 6.066406 16 C 6.722656 15.019531 7.421875 14.074219 8.171875 13.160156 C 8.917969 12.25 9.710938 11.378906 10.542969 10.542969 C 11.378906 9.710938 12.25 8.917969 13.160156 8.171875 C 14.074219 7.421875 15.019531 6.722656 16 6.066406 C 16.980469 5.410156 17.988281 4.804688 19.03125 4.25 C 20.070312 3.695312 21.132812 3.191406 22.222656 2.742188 C 23.3125 2.289062 24.421875 1.890625 25.550781 1.550781 C 26.679688 1.207031 27.820312 0.921875 28.976562 0.691406 C 30.132812 0.460938 31.296875 0.289062 32.472656 0.171875 C 33.644531 0.0585938 34.820312 0 36 0 C 37.179688 0 38.355469 0.0585938 39.527344 0.171875 C 40.703125 0.289062 41.867188 0.460938 43.023438 0.691406 C 44.179688 0.921875 45.320312 1.207031 46.449219 1.550781 C 47.578125 1.890625 48.6875 2.289062 49.777344 2.742188 C 50.867188 3.191406 51.929688 3.695312 52.96875 4.25 C 54.011719 4.804688 55.019531 5.410156 56 6.066406 C 56.980469 6.722656 57.925781 7.421875 58.839844 8.171875 C 59.75 8.917969 60.621094 9.710938 61.457031 10.542969 C 62.289062 11.378906 63.082031 12.25 63.828125 13.160156 C 64.578125 14.074219 65.277344 15.019531 65.933594 16 C 66.589844 16.980469 67.191406 17.988281 67.75 19.03125 C 68.304688 20.070312 68.808594 21.132812 69.257812 22.222656 C 69.710938 23.3125 70.109375 24.421875 70.449219 25.550781 C 70.792969 26.679688 71.078125 27.820312 71.308594 28.976562 C 71.539062 30.132812 71.710938 31.296875 71.828125 32.472656 C 71.941406 33.644531 72 34.820312 72 36 Z M 72 36 " fill-opacity="1" fill-rule="nonzero"/><path fill="#212121" d="M 36 68.566406 C 18.027344 68.566406 3.433594 53.972656 3.433594 36 C 3.433594 18.027344 18.027344 3.433594 36 3.433594 C 53.972656 3.433594 68.566406 18.027344 68.566406 36 C 68.566406 53.972656 53.972656 68.566406 36 68.566406 Z M 36 4.238281 C 18.457031 4.238281 4.238281 18.457031 4.238281 36 C 4.238281 53.542969 18.507812 67.761719 36 67.761719 C 53.542969 67.761719 67.761719 53.492188 67.761719 36 C 67.761719 18.457031 53.542969 4.238281 36 4.238281 Z M 36 4.238281 " fill-opacity="1" fill-rule="nonzero"/><g clip-path="url(#id1)"><path fill="#000000" d="M 30.492188 27.324219 L 23.019531 24.507812 L 15.546875 27.324219 C 14.945312 34.007812 16.832031 39.375 23.019531 43.46875 C 29.273438 39.199219 31.175781 33.878906 30.492188 27.324219 " fill-opacity="1" fill-rule="nonzero"/></g><g clip-path="url(#id2)"><path fill="#000000" d="M 56.1875 41.414062 L 29.816406 41.414062 C 29.398438 41.414062 29.0625 41.070312 29.0625 40.648438 C 29.0625 40.222656 29.398438 39.878906 29.816406 39.878906 L 56.1875 39.878906 C 56.605469 39.878906 56.945312 40.222656 56.945312 40.648438 C 56.945312 41.070312 56.605469 41.414062 56.1875 41.414062 " fill-opacity="1" fill-rule="nonzero"/></g><g clip-path="url(#id3)"><path fill="#000000" d="M 56.1875 44.578125 L 27.003906 44.578125 C 26.585938 44.578125 26.246094 44.234375 26.246094 43.808594 C 26.246094 43.386719 26.585938 43.042969 27.003906 43.042969 L 56.1875 43.042969 C 56.605469 43.042969 56.945312 43.386719 56.945312 43.808594 C 56.945312 44.234375 56.605469 44.578125 56.1875 44.578125 " fill-opacity="1" fill-rule="nonzero"/></g><g clip-path="url(#id4)"><path fill="#000000" d="M 56.1875 47.738281 L 21.367188 47.738281 C 20.949219 47.738281 20.613281 47.394531 20.613281 46.972656 C 20.613281 46.546875 20.949219 46.203125 21.367188 46.203125 L 56.1875 46.203125 C 56.605469 46.203125 56.945312 46.546875 56.945312 46.972656 C 56.945312 47.394531 56.605469 47.738281 56.1875 47.738281 " fill-opacity="1" fill-rule="nonzero"/></g><path fill="#000000" d="M 35.445312 38.09375 C 35.273438 38.09375 35.101562 38.035156 34.960938 37.917969 L 32.011719 35.441406 C 31.6875 35.171875 31.644531 34.6875 31.910156 34.363281 C 32.175781 34.035156 32.652344 33.988281 32.976562 34.257812 L 35.460938 36.34375 L 46.746094 27.476562 C 47.078125 27.21875 47.550781 27.28125 47.808594 27.613281 C 48.0625 27.949219 48.003906 28.429688 47.671875 28.691406 L 35.910156 37.933594 C 35.773438 38.039062 35.609375 38.09375 35.445312 38.09375 " fill-opacity="1" fill-rule="nonzero"/><path fill="#000000" d="M 46.058594 32.023438 C 45.972656 32.023438 45.886719 32.007812 45.800781 31.976562 C 45.40625 31.828125 43.148438 28.722656 43.125 28.296875 C 43.105469 27.875 43.425781 27.515625 43.839844 27.492188 L 47.171875 27.316406 C 47.425781 27.304688 47.667969 27.421875 47.820312 27.628906 C 47.96875 27.835938 48.007812 28.105469 47.917969 28.347656 L 46.769531 31.519531 C 46.65625 31.832031 46.367188 32.023438 46.058594 32.023438 " fill-opacity="1" fill-rule="nonzero"/><g clip-path="url(#id5)"><path fill="#000000" d="M 44 38.09375 C 43.828125 38.09375 43.65625 38.035156 43.519531 37.917969 L 41.597656 36.304688 C 41.273438 36.035156 41.230469 35.550781 41.496094 35.226562 C 41.761719 34.898438 42.238281 34.851562 42.5625 35.125 L 44.015625 36.34375 L 55.300781 27.476562 C 55.632812 27.21875 56.105469 27.28125 56.363281 27.613281 C 56.617188 27.949219 56.558594 28.429688 56.226562 28.691406 L 44.464844 37.933594 C 44.328125 38.039062 44.164062 38.09375 44 38.09375 " fill-opacity="1" fill-rule="nonzero"/></g><path fill="#000000" d="M 37.449219 32.59375 C 37.277344 32.59375 37.105469 32.539062 36.964844 32.417969 L 32.503906 28.675781 C 32.179688 28.40625 32.136719 27.921875 32.402344 27.59375 C 32.667969 27.269531 33.144531 27.222656 33.46875 27.492188 L 37.929688 31.238281 C 38.253906 31.507812 38.296875 31.992188 38.03125 32.316406 C 37.882812 32.5 37.664062 32.59375 37.449219 32.59375 " fill-opacity="1" fill-rule="nonzero"/><g clip-path="url(#id6)"><path fill="#000000" d="M 54.617188 32.023438 C 54.527344 32.023438 54.441406 32.007812 54.355469 31.976562 C 53.960938 31.828125 51.703125 28.722656 51.679688 28.296875 C 51.660156 27.875 51.980469 27.515625 52.398438 27.492188 L 55.726562 27.316406 C 55.980469 27.304688 56.222656 27.421875 56.375 27.628906 C 56.523438 27.835938 56.5625 28.105469 56.476562 28.347656 L 55.324219 31.519531 C 55.214844 31.832031 54.921875 32.023438 54.617188 32.023438 " fill-opacity="1" fill-rule="nonzero"/></g></svg>