<svg xmlns="http://www.w3.org/2000/svg" xmlns:xlink="http://www.w3.org/1999/xlink" width="96" zoomAndPan="magnify" viewBox="0 0 72 72" height="96" preserveAspectRatio="xMidYMid meet" version="1.0"><defs><clipPath id="id1"><path d="M 18.753906 19.960938 L 53.253906 19.960938 L 53.253906 52.210938 L 18.753906 52.210938 Z M 18.753906 19.960938 " clip-rule="nonzero"/></clipPath></defs><path fill="#fdbe35" d="M 72 36 C 72 37.179688 71.941406 38.355469 71.828125 39.527344 C 71.710938 40.703125 71.539062 41.867188 71.308594 43.023438 C 71.078125 44.179688 70.792969 45.320312 70.449219 46.449219 C 70.109375 47.578125 69.710938 48.6875 69.257812 49.777344 C 68.808594 50.867188 68.304688 51.929688 67.75 52.96875 C 67.191406 54.011719 66.589844 55.019531 65.933594 56 C 65.277344 56.980469 64.578125 57.925781 63.828125 58.839844 C 63.082031 59.75 62.289062 60.621094 61.457031 61.457031 C 60.621094 62.289062 59.75 63.082031 58.839844 63.828125 C 57.925781 64.578125 56.980469 65.277344 56 65.933594 C 55.019531 66.589844 54.011719 67.195312 52.96875 67.75 C 51.929688 68.304688 50.867188 68.808594 49.777344 69.257812 C 48.6875 69.710938 47.578125 70.109375 46.449219 70.449219 C 45.320312 70.792969 44.179688 71.078125 43.023438 71.308594 C 41.867188 71.539062 40.703125 71.710938 39.527344 71.828125 C 38.355469 71.941406 37.179688 72 36 72 C 34.820312 72 33.644531 71.941406 32.472656 71.828125 C 31.296875 71.710938 30.132812 71.539062 28.976562 71.308594 C 27.820312 71.078125 26.679688 70.792969 25.550781 70.449219 C 24.421875 70.109375 23.3125 69.710938 22.222656 69.257812 C 21.132812 68.808594 20.070312 68.304688 19.03125 67.75 C 17.988281 67.191406 16.980469 66.589844 16 65.933594 C 15.019531 65.277344 14.074219 64.578125 13.160156 63.828125 C 12.25 63.082031 11.378906 62.289062 10.542969 61.457031 C 9.710938 60.621094 8.917969 59.75 8.171875 58.839844 C 7.421875 57.925781 6.722656 56.980469 6.066406 56 C 5.410156 55.019531 4.804688 54.011719 4.25 52.96875 C 3.695312 51.929688 3.191406 50.867188 2.742188 49.777344 C 2.289062 48.6875 1.890625 47.578125 1.550781 46.449219 C 1.207031 45.320312 0.921875 44.179688 0.691406 43.023438 C 0.460938 41.867188 0.289062 40.703125 0.171875 39.527344 C 0.0585938 38.355469 0 37.179688 0 36 C 0 34.820312 0.0585938 33.644531 0.171875 32.472656 C 0.289062 31.296875 0.460938 30.132812 0.691406 28.976562 C 0.921875 27.820312 1.207031 26.679688 1.550781 25.550781 C 1.890625 24.421875 2.289062 23.3125 2.742188 22.222656 C 3.191406 21.132812 3.695312 20.070312 4.25 19.03125 C 4.804688 17.988281 5.410156 16.980469 6.066406 16 C 6.722656 15.019531 7.421875 14.074219 8.171875 13.160156 C 8.917969 12.25 9.710938 11.378906 10.542969 10.542969 C 11.378906 9.710938 12.25 8.917969 13.160156 8.171875 C 14.074219 7.421875 15.019531 6.722656 16 6.066406 C 16.980469 5.410156 17.988281 4.804688 19.03125 4.25 C 20.070312 3.695312 21.132812 3.191406 22.222656 2.742188 C 23.3125 2.289062 24.421875 1.890625 25.550781 1.550781 C 26.679688 1.207031 27.820312 0.921875 28.976562 0.691406 C 30.132812 0.460938 31.296875 0.289062 32.472656 0.171875 C 33.644531 0.0585938 34.820312 0 36 0 C 37.179688 0 38.355469 0.0585938 39.527344 0.171875 C 40.703125 0.289062 41.867188 0.460938 43.023438 0.691406 C 44.179688 0.921875 45.320312 1.207031 46.449219 1.550781 C 47.578125 1.890625 48.6875 2.289062 49.777344 2.742188 C 50.867188 3.191406 51.929688 3.695312 52.96875 4.25 C 54.011719 4.804688 55.019531 5.410156 56 6.066406 C 56.980469 6.722656 57.925781 7.421875 58.839844 8.171875 C 59.75 8.917969 60.621094 9.710938 61.457031 10.542969 C 62.289062 11.378906 63.082031 12.25 63.828125 13.160156 C 64.578125 14.074219 65.277344 15.019531 65.933594 16 C 66.589844 16.980469 67.191406 17.988281 67.75 19.03125 C 68.304688 20.070312 68.808594 21.132812 69.257812 22.222656 C 69.710938 23.3125 70.109375 24.421875 70.449219 25.550781 C 70.792969 26.679688 71.078125 27.820312 71.308594 28.976562 C 71.539062 30.132812 71.710938 31.296875 71.828125 32.472656 C 71.941406 33.644531 72 34.820312 72 36 Z M 72 36 " fill-opacity="1" fill-rule="nonzero"/><path fill="#212121" d="M 36 68.566406 C 18.027344 68.566406 3.433594 53.972656 3.433594 36 C 3.433594 18.027344 18.027344 3.433594 36 3.433594 C 53.972656 3.433594 68.566406 18.027344 68.566406 36 C 68.566406 53.972656 53.972656 68.566406 36 68.566406 Z M 36 4.238281 C 18.457031 4.238281 4.238281 18.457031 4.238281 36 C 4.238281 53.542969 18.507812 67.761719 36 67.761719 C 53.542969 67.761719 67.761719 53.492188 67.761719 36 C 67.761719 18.457031 53.542969 4.238281 36 4.238281 Z M 36 4.238281 " fill-opacity="1" fill-rule="nonzero"/><g clip-path="url(#id1)"><path fill="#000000" d="M 53.246094 25.144531 C 53.246094 25.136719 53.242188 25.132812 53.242188 25.125 C 53.238281 25.109375 53.234375 25.09375 53.226562 25.078125 C 53.226562 25.074219 53.222656 25.070312 53.222656 25.0625 C 53.214844 25.046875 53.203125 25.027344 53.191406 25.011719 C 53.191406 25.003906 53.1875 25 53.183594 24.996094 C 53.175781 24.984375 53.164062 24.972656 53.152344 24.960938 C 53.148438 24.957031 53.144531 24.949219 53.140625 24.949219 C 53.128906 24.933594 53.113281 24.921875 53.09375 24.910156 C 53.09375 24.910156 53.09375 24.90625 53.09375 24.90625 C 53.078125 24.898438 53.0625 24.890625 53.046875 24.882812 C 53.042969 24.878906 53.042969 24.878906 53.039062 24.878906 C 53.03125 24.875 53.027344 24.871094 53.019531 24.871094 C 53.003906 24.863281 52.988281 24.859375 52.972656 24.855469 C 52.96875 24.855469 52.964844 24.851562 52.957031 24.851562 C 52.9375 24.847656 52.914062 24.847656 52.894531 24.84375 L 33.761719 24.84375 L 33.761719 20.507812 C 33.8125 20.410156 33.820312 20.292969 33.773438 20.1875 C 33.71875 20.054688 33.585938 19.96875 33.441406 19.96875 L 28.953125 19.96875 C 28.808594 19.96875 28.675781 20.054688 28.621094 20.1875 C 28.574219 20.292969 28.582031 20.410156 28.632812 20.507812 L 28.632812 24.84375 L 19.113281 24.84375 C 19.089844 24.847656 19.070312 24.847656 19.046875 24.851562 C 19.042969 24.851562 19.039062 24.855469 19.03125 24.855469 C 19.015625 24.859375 19 24.863281 18.984375 24.871094 C 18.980469 24.871094 18.972656 24.875 18.96875 24.878906 C 18.964844 24.878906 18.960938 24.878906 18.957031 24.882812 C 18.941406 24.890625 18.929688 24.898438 18.914062 24.90625 C 18.914062 24.90625 18.910156 24.910156 18.910156 24.910156 C 18.894531 24.921875 18.878906 24.933594 18.863281 24.949219 L 18.851562 24.960938 C 18.839844 24.972656 18.832031 24.984375 18.820312 24.996094 C 18.820312 25 18.816406 25.003906 18.8125 25.011719 C 18.800781 25.027344 18.792969 25.046875 18.785156 25.0625 C 18.78125 25.070312 18.78125 25.074219 18.777344 25.078125 C 18.773438 25.09375 18.769531 25.109375 18.765625 25.125 C 18.761719 25.132812 18.761719 25.136719 18.761719 25.144531 C 18.757812 25.164062 18.753906 25.1875 18.753906 25.210938 L 18.753906 33.785156 C 18.753906 33.988281 18.914062 34.152344 19.117188 34.152344 L 24.324219 34.152344 C 24.527344 34.152344 24.6875 33.988281 24.6875 33.785156 L 24.6875 30.085938 L 28.632812 30.085938 L 28.632812 35.511719 C 28.601562 35.570312 28.585938 35.640625 28.589844 35.707031 C 28.585938 35.777344 28.601562 35.84375 28.632812 35.90625 L 28.632812 41.515625 C 28.601562 41.578125 28.585938 41.644531 28.589844 41.714844 C 28.585938 41.78125 28.601562 41.851562 28.632812 41.910156 L 28.632812 47.417969 L 22.886719 47.417969 C 22.09375 47.417969 21.449219 48.066406 21.449219 48.863281 L 21.449219 50.761719 C 21.449219 51.558594 22.09375 52.207031 22.886719 52.207031 L 38.609375 52.207031 C 39.402344 52.207031 40.046875 51.558594 40.046875 50.761719 L 40.046875 48.863281 C 40.046875 48.066406 39.402344 47.417969 38.609375 47.417969 L 33.761719 47.417969 L 33.761719 41.910156 C 33.792969 41.851562 33.808594 41.78125 33.804688 41.714844 C 33.804688 41.707031 33.808594 41.699219 33.808594 41.691406 C 33.808594 41.628906 33.789062 41.566406 33.761719 41.515625 L 33.761719 35.90625 C 33.792969 35.84375 33.808594 35.777344 33.804688 35.707031 C 33.804688 35.703125 33.808594 35.695312 33.808594 35.6875 C 33.808594 35.621094 33.789062 35.5625 33.761719 35.511719 L 33.761719 30.085938 L 45.613281 30.085938 L 45.613281 31.078125 C 45.613281 31.28125 45.773438 31.441406 45.972656 31.441406 L 47.5 31.441406 L 47.5 36.492188 L 46.664062 36.492188 C 46.460938 36.492188 46.300781 36.65625 46.300781 36.855469 L 46.300781 38.242188 C 46.300781 38.441406 46.460938 38.605469 46.664062 38.605469 L 48.171875 38.605469 L 48.171875 39.480469 C 48.171875 39.683594 48.335938 39.84375 48.535156 39.84375 C 49.199219 39.84375 49.742188 40.390625 49.742188 41.0625 C 49.742188 41.730469 49.199219 42.277344 48.535156 42.277344 C 47.867188 42.277344 47.324219 41.730469 47.324219 41.0625 C 47.324219 40.859375 47.164062 40.695312 46.960938 40.695312 C 46.761719 40.695312 46.601562 40.859375 46.601562 41.0625 C 46.601562 42.132812 47.46875 43.003906 48.535156 43.003906 C 49.601562 43.003906 50.46875 42.132812 50.46875 41.0625 C 50.46875 40.113281 49.789062 39.324219 48.898438 39.152344 L 48.898438 38.605469 L 50.40625 38.605469 C 50.605469 38.605469 50.769531 38.441406 50.769531 38.242188 L 50.769531 36.855469 C 50.769531 36.65625 50.605469 36.492188 50.40625 36.492188 L 49.570312 36.492188 L 49.570312 31.441406 L 51.09375 31.441406 C 51.292969 31.441406 51.457031 31.28125 51.457031 31.078125 L 51.457031 30.085938 L 52.890625 30.085938 C 52.914062 30.085938 52.9375 30.085938 52.957031 30.082031 C 52.960938 30.082031 52.964844 30.082031 52.964844 30.078125 C 52.984375 30.074219 53.003906 30.070312 53.023438 30.0625 C 53.027344 30.058594 53.03125 30.058594 53.039062 30.054688 C 53.039062 30.054688 53.042969 30.054688 53.046875 30.050781 C 53.0625 30.042969 53.078125 30.035156 53.09375 30.027344 C 53.09375 30.027344 53.09375 30.023438 53.09375 30.023438 C 53.113281 30.011719 53.128906 30 53.140625 29.988281 C 53.144531 29.980469 53.148438 29.976562 53.152344 29.972656 C 53.164062 29.960938 53.175781 29.949219 53.183594 29.9375 C 53.1875 29.933594 53.191406 29.925781 53.191406 29.921875 C 53.203125 29.90625 53.214844 29.886719 53.222656 29.867188 C 53.222656 29.863281 53.226562 29.859375 53.226562 29.855469 C 53.234375 29.839844 53.238281 29.824219 53.242188 29.808594 C 53.242188 29.800781 53.246094 29.792969 53.246094 29.789062 C 53.25 29.769531 53.253906 29.746094 53.253906 29.722656 L 53.253906 25.210938 C 53.253906 25.1875 53.25 25.164062 53.246094 25.144531 Z M 23.710938 25.574219 L 21.929688 27 L 20.152344 25.574219 Z M 20.152344 29.359375 L 21.929688 27.933594 L 23.710938 29.359375 Z M 19.476562 25.964844 L 21.347656 27.464844 L 19.476562 28.96875 Z M 24.382812 28.96875 L 22.511719 27.464844 L 24.382812 25.964844 Z M 51.855469 25.574219 L 50.074219 27 L 48.296875 25.574219 Z M 47.625 25.964844 L 49.496094 27.464844 L 47.625 28.96875 Z M 46.898438 28.96875 L 45.027344 27.464844 L 46.898438 25.964844 Z M 46.226562 25.574219 L 44.445312 27 L 42.667969 25.574219 Z M 40.597656 25.574219 L 38.816406 27 L 37.039062 25.574219 Z M 34.96875 25.574219 L 33.1875 27 L 31.410156 25.574219 Z M 29.980469 25.992188 L 30.011719 25.964844 L 30.011719 28.96875 L 28.140625 27.464844 Z M 29.78125 24.84375 L 31.195312 23.308594 L 32.613281 24.84375 Z M 29.679688 36.09375 L 32.714844 36.09375 L 31.195312 38.105469 Z M 32.714844 41.328125 L 29.679688 41.328125 L 31.195312 39.3125 Z M 30.742188 38.710938 L 29.359375 40.546875 L 29.359375 36.875 Z M 32.714844 42.097656 L 31.195312 44.113281 L 29.679688 42.097656 Z M 32.714844 47.332031 L 29.679688 47.332031 L 31.195312 45.320312 Z M 31.652344 44.714844 L 33.035156 42.878906 L 33.035156 46.554688 Z M 31.652344 38.710938 L 33.035156 36.875 L 33.035156 40.546875 Z M 29.679688 35.320312 L 31.195312 33.308594 L 32.714844 35.320312 Z M 29.359375 34.542969 L 29.359375 30.867188 L 30.742188 32.707031 Z M 29.359375 42.878906 L 30.742188 44.714844 L 29.359375 46.554688 Z M 33.035156 34.542969 L 31.652344 32.707031 L 33.035156 30.867188 Z M 31.195312 32.101562 L 29.679688 30.085938 L 32.714844 30.085938 Z M 30.734375 25.964844 L 32.609375 27.464844 L 30.734375 28.96875 Z M 33.035156 24.230469 L 31.691406 22.773438 L 33.035156 21.3125 Z M 32.613281 20.699219 L 31.195312 22.234375 L 29.78125 20.699219 Z M 29.359375 21.3125 L 30.703125 22.773438 L 29.359375 24.230469 Z M 29.339844 25.574219 L 28.769531 26.027344 C 28.769531 26.027344 28.769531 26.03125 28.769531 26.03125 L 27.558594 27 L 25.78125 25.574219 Z M 25.109375 25.964844 L 26.976562 27.464844 L 25.109375 28.96875 Z M 25.78125 29.359375 L 27.558594 27.933594 L 29.339844 29.359375 Z M 31.410156 29.359375 L 33.1875 27.933594 L 34.96875 29.359375 Z M 35.640625 28.96875 L 33.769531 27.464844 L 35.640625 25.964844 Z M 36.367188 25.964844 L 38.238281 27.464844 L 36.367188 28.96875 Z M 37.039062 29.359375 L 38.816406 27.933594 L 40.597656 29.359375 Z M 41.269531 28.96875 L 39.398438 27.464844 L 41.269531 25.964844 Z M 41.996094 25.964844 L 43.867188 27.464844 L 41.996094 28.96875 Z M 42.667969 29.359375 L 44.445312 27.933594 L 46.226562 29.359375 Z M 48.296875 29.359375 L 50.074219 27.933594 L 51.855469 29.359375 Z M 52.527344 28.96875 L 50.65625 27.464844 L 52.527344 25.964844 Z M 52.527344 28.96875 " fill-opacity="1" fill-rule="nonzero"/></g></svg>