<svg xmlns="http://www.w3.org/2000/svg" xmlns:xlink="http://www.w3.org/1999/xlink" width="96" zoomAndPan="magnify" viewBox="0 0 72 72" height="96" preserveAspectRatio="xMidYMid meet" version="1.0"><defs><clipPath id="id1"><path d="M 17.78125 17.78125 L 54.53125 17.78125 L 54.53125 54.53125 L 17.78125 54.53125 Z M 17.78125 17.78125 " clip-rule="nonzero"/></clipPath></defs><path fill="#fdbe35" d="M 72 36 C 72 37.179688 71.941406 38.355469 71.828125 39.527344 C 71.710938 40.703125 71.539062 41.867188 71.308594 43.023438 C 71.078125 44.179688 70.792969 45.320312 70.449219 46.449219 C 70.109375 47.578125 69.710938 48.6875 69.257812 49.777344 C 68.808594 50.867188 68.304688 51.929688 67.75 52.96875 C 67.191406 54.011719 66.589844 55.019531 65.933594 56 C 65.277344 56.980469 64.578125 57.925781 63.828125 58.839844 C 63.082031 59.75 62.289062 60.621094 61.457031 61.457031 C 60.621094 62.289062 59.75 63.082031 58.839844 63.828125 C 57.925781 64.578125 56.980469 65.277344 56 65.933594 C 55.019531 66.589844 54.011719 67.195312 52.96875 67.75 C 51.929688 68.304688 50.867188 68.808594 49.777344 69.257812 C 48.6875 69.710938 47.578125 70.109375 46.449219 70.449219 C 45.320312 70.792969 44.179688 71.078125 43.023438 71.308594 C 41.867188 71.539062 40.703125 71.710938 39.527344 71.828125 C 38.355469 71.941406 37.179688 72 36 72 C 34.820312 72 33.644531 71.941406 32.472656 71.828125 C 31.296875 71.710938 30.132812 71.539062 28.976562 71.308594 C 27.820312 71.078125 26.679688 70.792969 25.550781 70.449219 C 24.421875 70.109375 23.3125 69.710938 22.222656 69.257812 C 21.132812 68.808594 20.070312 68.304688 19.03125 67.75 C 17.988281 67.191406 16.980469 66.589844 16 65.933594 C 15.019531 65.277344 14.074219 64.578125 13.160156 63.828125 C 12.25 63.082031 11.378906 62.289062 10.542969 61.457031 C 9.710938 60.621094 8.917969 59.75 8.171875 58.839844 C 7.421875 57.925781 6.722656 56.980469 6.066406 56 C 5.410156 55.019531 4.804688 54.011719 4.25 52.96875 C 3.695312 51.929688 3.191406 50.867188 2.742188 49.777344 C 2.289062 48.6875 1.890625 47.578125 1.550781 46.449219 C 1.207031 45.320312 0.921875 44.179688 0.691406 43.023438 C 0.460938 41.867188 0.289062 40.703125 0.171875 39.527344 C 0.0585938 38.355469 0 37.179688 0 36 C 0 34.820312 0.0585938 33.644531 0.171875 32.472656 C 0.289062 31.296875 0.460938 30.132812 0.691406 28.976562 C 0.921875 27.820312 1.207031 26.679688 1.550781 25.550781 C 1.890625 24.421875 2.289062 23.3125 2.742188 22.222656 C 3.191406 21.132812 3.695312 20.070312 4.25 19.03125 C 4.804688 17.988281 5.410156 16.980469 6.066406 16 C 6.722656 15.019531 7.421875 14.074219 8.171875 13.160156 C 8.917969 12.25 9.710938 11.378906 10.542969 10.542969 C 11.378906 9.710938 12.25 8.917969 13.160156 8.171875 C 14.074219 7.421875 15.019531 6.722656 16 6.066406 C 16.980469 5.410156 17.988281 4.804688 19.03125 4.25 C 20.070312 3.695312 21.132812 3.191406 22.222656 2.742188 C 23.3125 2.289062 24.421875 1.890625 25.550781 1.550781 C 26.679688 1.207031 27.820312 0.921875 28.976562 0.691406 C 30.132812 0.460938 31.296875 0.289062 32.472656 0.171875 C 33.644531 0.0585938 34.820312 0 36 0 C 37.179688 0 38.355469 0.0585938 39.527344 0.171875 C 40.703125 0.289062 41.867188 0.460938 43.023438 0.691406 C 44.179688 0.921875 45.320312 1.207031 46.449219 1.550781 C 47.578125 1.890625 48.6875 2.289062 49.777344 2.742188 C 50.867188 3.191406 51.929688 3.695312 52.96875 4.25 C 54.011719 4.804688 55.019531 5.410156 56 6.066406 C 56.980469 6.722656 57.925781 7.421875 58.839844 8.171875 C 59.75 8.917969 60.621094 9.710938 61.457031 10.542969 C 62.289062 11.378906 63.082031 12.25 63.828125 13.160156 C 64.578125 14.074219 65.277344 15.019531 65.933594 16 C 66.589844 16.980469 67.191406 17.988281 67.75 19.03125 C 68.304688 20.070312 68.808594 21.132812 69.257812 22.222656 C 69.710938 23.3125 70.109375 24.421875 70.449219 25.550781 C 70.792969 26.679688 71.078125 27.820312 71.308594 28.976562 C 71.539062 30.132812 71.710938 31.296875 71.828125 32.472656 C 71.941406 33.644531 72 34.820312 72 36 Z M 72 36 " fill-opacity="1" fill-rule="nonzero"/><path fill="#212121" d="M 36 68.566406 C 18.027344 68.566406 3.433594 53.972656 3.433594 36 C 3.433594 18.027344 18.027344 3.433594 36 3.433594 C 53.972656 3.433594 68.566406 18.027344 68.566406 36 C 68.566406 53.972656 53.972656 68.566406 36 68.566406 Z M 36 4.238281 C 18.457031 4.238281 4.238281 18.457031 4.238281 36 C 4.238281 53.542969 18.507812 67.761719 36 67.761719 C 53.542969 67.761719 67.761719 53.492188 67.761719 36 C 67.761719 18.457031 53.542969 4.238281 36 4.238281 Z M 36 4.238281 " fill-opacity="1" fill-rule="nonzero"/><g clip-path="url(#id1)"><path fill="#000000" d="M 51.640625 35.0625 L 43.582031 35.0625 L 43.582031 34.746094 C 43.582031 34.226562 43.15625 33.804688 42.636719 33.804688 L 41.082031 33.804688 C 40.269531 32.398438 38.75 31.453125 37.011719 31.453125 C 37.011719 31.453125 37.007812 31.453125 37.007812 31.453125 L 35.65625 31.453125 C 35.613281 31.339844 35.550781 31.238281 35.460938 31.152344 C 35.300781 30.992188 35.085938 30.902344 34.859375 30.902344 L 33.300781 30.902344 C 32.828125 30.902344 32.445312 31.289062 32.445312 31.757812 L 32.445312 32.839844 L 29.742188 32.839844 C 29.210938 32.839844 28.777344 33.273438 28.777344 33.808594 C 28.777344 34.339844 29.210938 34.773438 29.746094 34.773438 L 32.449219 34.769531 L 32.449219 37.542969 L 29.699219 37.546875 C 29.167969 37.546875 28.734375 37.980469 28.734375 38.511719 C 28.734375 39.046875 29.167969 39.476562 29.703125 39.476562 L 32.453125 39.476562 L 32.453125 40.558594 C 32.453125 41.03125 32.835938 41.414062 33.308594 41.414062 L 34.867188 41.410156 C 35.09375 41.410156 35.308594 41.324219 35.46875 41.160156 C 35.554688 41.074219 35.621094 40.972656 35.664062 40.863281 L 37.015625 40.863281 C 38.75 40.859375 40.269531 39.914062 41.082031 38.511719 L 42.640625 38.507812 C 42.894531 38.507812 43.128906 38.410156 43.308594 38.230469 C 43.488281 38.054688 43.585938 37.816406 43.585938 37.5625 L 43.585938 37.253906 L 52.300781 37.253906 C 51.730469 45.640625 44.652344 52.339844 36.152344 52.339844 C 27.230469 52.339844 19.972656 45.082031 19.972656 36.15625 C 19.972656 28.808594 24.929688 22.371094 32.027344 20.507812 C 32.160156 20.46875 32.285156 20.410156 32.390625 20.332031 C 32.519531 20.304688 32.648438 20.28125 32.777344 20.253906 C 32.984375 20.214844 33.191406 20.183594 33.398438 20.152344 C 34.1875 20.035156 34.984375 19.976562 35.789062 19.976562 C 40.347656 19.976562 44.570312 21.832031 47.625 25.121094 C 48.023438 25.550781 48.402344 26 48.757812 26.476562 C 48.972656 26.765625 49.304688 26.917969 49.636719 26.917969 C 49.863281 26.917969 50.09375 26.847656 50.289062 26.699219 C 50.773438 26.335938 50.875 25.652344 50.511719 25.167969 C 48.835938 22.925781 46.636719 21.070312 44.15625 19.796875 C 41.550781 18.460938 38.734375 17.785156 35.789062 17.785156 C 34.203125 17.785156 32.625 17.988281 31.105469 18.390625 C 30.9375 18.433594 30.792969 18.515625 30.667969 18.621094 C 23.039062 21 17.78125 28.09375 17.78125 36.15625 C 17.78125 41.066406 19.695312 45.679688 23.164062 49.148438 C 26.632812 52.617188 31.246094 54.527344 36.152344 54.527344 C 41.003906 54.527344 45.578125 52.65625 49.035156 49.253906 C 52.488281 45.859375 54.4375 41.324219 54.523438 36.488281 C 54.53125 36.027344 54.257812 35.632812 53.859375 35.460938 C 53.660156 35.21875 53.355469 35.0625 53.015625 35.0625 L 51.640625 35.0625 " fill-opacity="1" fill-rule="nonzero"/></g></svg>