<svg xmlns="http://www.w3.org/2000/svg" xmlns:xlink="http://www.w3.org/1999/xlink" width="96" zoomAndPan="magnify" viewBox="0 0 72 72" height="96" preserveAspectRatio="xMidYMid meet" version="1.0"><defs><clipPath id="id1"><path d="M 15.574219 17.488281 L 36 17.488281 L 36 54.238281 L 15.574219 54.238281 Z M 15.574219 17.488281 " clip-rule="nonzero"/></clipPath><clipPath id="id2"><path d="M 35 31 L 56.074219 31 L 56.074219 54 L 35 54 Z M 35 31 " clip-rule="nonzero"/></clipPath></defs><path fill="#fdbe35" d="M 72 36 C 72 37.179688 71.941406 38.355469 71.828125 39.527344 C 71.710938 40.703125 71.539062 41.867188 71.308594 43.023438 C 71.078125 44.179688 70.792969 45.320312 70.449219 46.449219 C 70.109375 47.578125 69.710938 48.6875 69.257812 49.777344 C 68.808594 50.867188 68.304688 51.929688 67.75 52.96875 C 67.191406 54.011719 66.589844 55.019531 65.933594 56 C 65.277344 56.980469 64.578125 57.925781 63.828125 58.839844 C 63.082031 59.75 62.289062 60.621094 61.457031 61.457031 C 60.621094 62.289062 59.75 63.082031 58.839844 63.828125 C 57.925781 64.578125 56.980469 65.277344 56 65.933594 C 55.019531 66.589844 54.011719 67.195312 52.96875 67.75 C 51.929688 68.304688 50.867188 68.808594 49.777344 69.257812 C 48.6875 69.710938 47.578125 70.109375 46.449219 70.449219 C 45.320312 70.792969 44.179688 71.078125 43.023438 71.308594 C 41.867188 71.539062 40.703125 71.710938 39.527344 71.828125 C 38.355469 71.941406 37.179688 72 36 72 C 34.820312 72 33.644531 71.941406 32.472656 71.828125 C 31.296875 71.710938 30.132812 71.539062 28.976562 71.308594 C 27.820312 71.078125 26.679688 70.792969 25.550781 70.449219 C 24.421875 70.109375 23.3125 69.710938 22.222656 69.257812 C 21.132812 68.808594 20.070312 68.304688 19.03125 67.75 C 17.988281 67.191406 16.980469 66.589844 16 65.933594 C 15.019531 65.277344 14.074219 64.578125 13.160156 63.828125 C 12.25 63.082031 11.378906 62.289062 10.542969 61.457031 C 9.710938 60.621094 8.917969 59.75 8.171875 58.839844 C 7.421875 57.925781 6.722656 56.980469 6.066406 56 C 5.410156 55.019531 4.804688 54.011719 4.25 52.96875 C 3.695312 51.929688 3.191406 50.867188 2.742188 49.777344 C 2.289062 48.6875 1.890625 47.578125 1.550781 46.449219 C 1.207031 45.320312 0.921875 44.179688 0.691406 43.023438 C 0.460938 41.867188 0.289062 40.703125 0.171875 39.527344 C 0.0585938 38.355469 0 37.179688 0 36 C 0 34.820312 0.0585938 33.644531 0.171875 32.472656 C 0.289062 31.296875 0.460938 30.132812 0.691406 28.976562 C 0.921875 27.820312 1.207031 26.679688 1.550781 25.550781 C 1.890625 24.421875 2.289062 23.3125 2.742188 22.222656 C 3.191406 21.132812 3.695312 20.070312 4.25 19.03125 C 4.804688 17.988281 5.410156 16.980469 6.066406 16 C 6.722656 15.019531 7.421875 14.074219 8.171875 13.160156 C 8.917969 12.25 9.710938 11.378906 10.542969 10.542969 C 11.378906 9.710938 12.25 8.917969 13.160156 8.171875 C 14.074219 7.421875 15.019531 6.722656 16 6.066406 C 16.980469 5.410156 17.988281 4.804688 19.03125 4.25 C 20.070312 3.695312 21.132812 3.191406 22.222656 2.742188 C 23.3125 2.289062 24.421875 1.890625 25.550781 1.550781 C 26.679688 1.207031 27.820312 0.921875 28.976562 0.691406 C 30.132812 0.460938 31.296875 0.289062 32.472656 0.171875 C 33.644531 0.0585938 34.820312 0 36 0 C 37.179688 0 38.355469 0.0585938 39.527344 0.171875 C 40.703125 0.289062 41.867188 0.460938 43.023438 0.691406 C 44.179688 0.921875 45.320312 1.207031 46.449219 1.550781 C 47.578125 1.890625 48.6875 2.289062 49.777344 2.742188 C 50.867188 3.191406 51.929688 3.695312 52.96875 4.25 C 54.011719 4.804688 55.019531 5.410156 56 6.066406 C 56.980469 6.722656 57.925781 7.421875 58.839844 8.171875 C 59.75 8.917969 60.621094 9.710938 61.457031 10.542969 C 62.289062 11.378906 63.082031 12.25 63.828125 13.160156 C 64.578125 14.074219 65.277344 15.019531 65.933594 16 C 66.589844 16.980469 67.191406 17.988281 67.75 19.03125 C 68.304688 20.070312 68.808594 21.132812 69.257812 22.222656 C 69.710938 23.3125 70.109375 24.421875 70.449219 25.550781 C 70.792969 26.679688 71.078125 27.820312 71.308594 28.976562 C 71.539062 30.132812 71.710938 31.296875 71.828125 32.472656 C 71.941406 33.644531 72 34.820312 72 36 Z M 72 36 " fill-opacity="1" fill-rule="nonzero"/><path fill="#212121" d="M 36 68.566406 C 18.027344 68.566406 3.433594 53.972656 3.433594 36 C 3.433594 18.027344 18.027344 3.433594 36 3.433594 C 53.972656 3.433594 68.566406 18.027344 68.566406 36 C 68.566406 53.972656 53.972656 68.566406 36 68.566406 Z M 36 4.238281 C 18.457031 4.238281 4.238281 18.457031 4.238281 36 C 4.238281 53.542969 18.507812 67.761719 36 67.761719 C 53.542969 67.761719 67.761719 53.492188 67.761719 36 C 67.761719 18.457031 53.542969 4.238281 36 4.238281 Z M 36 4.238281 " fill-opacity="1" fill-rule="nonzero"/><path fill="#000000" d="M 52.566406 32.382812 C 53.609375 32.382812 54.460938 31.53125 54.460938 30.484375 C 54.460938 29.441406 53.609375 28.585938 52.566406 28.585938 C 51.523438 28.585938 50.671875 29.441406 50.671875 30.484375 C 50.671875 31.53125 51.523438 32.382812 52.566406 32.382812 Z M 52.566406 29.851562 C 52.914062 29.851562 53.199219 30.136719 53.199219 30.484375 C 53.199219 30.832031 52.914062 31.117188 52.566406 31.117188 C 52.21875 31.117188 51.933594 30.832031 51.933594 30.484375 C 51.933594 30.136719 52.21875 29.851562 52.566406 29.851562 Z M 52.566406 29.851562 " fill-opacity="1" fill-rule="nonzero"/><path fill="#000000" d="M 45.617188 32.382812 C 47.007812 32.382812 48.144531 31.246094 48.144531 29.851562 C 48.144531 28.460938 47.007812 27.324219 45.617188 27.324219 C 44.226562 27.324219 43.089844 28.460938 43.089844 29.851562 C 43.089844 31.246094 44.226562 32.382812 45.617188 32.382812 Z M 45.617188 28.585938 C 46.3125 28.585938 46.878906 29.15625 46.878906 29.851562 C 46.878906 30.550781 46.3125 31.117188 45.617188 31.117188 C 44.921875 31.117188 44.351562 30.550781 44.351562 29.851562 C 44.351562 29.15625 44.921875 28.585938 45.617188 28.585938 Z M 45.617188 28.585938 " fill-opacity="1" fill-rule="nonzero"/><g clip-path="url(#id1)"><path fill="#000000" d="M 15.859375 50.761719 C 19.554688 53.484375 23.503906 54.210938 26.695312 54.210938 C 30.296875 54.210938 32.917969 53.292969 33.105469 53.230469 C 33.265625 53.167969 33.390625 53.070312 33.453125 52.914062 C 36.203125 47.632812 36.011719 44.214844 35.476562 39.945312 C 35.128906 37.320312 33.960938 36.371094 32.347656 36.023438 L 32.347656 35.546875 C 32.347656 34.851562 31.96875 34.25 31.402344 33.902344 L 31.402344 19.414062 C 31.402344 18.371094 30.546875 17.515625 29.503906 17.515625 C 28.460938 17.515625 27.609375 18.371094 27.609375 19.414062 L 27.609375 33.902344 C 27.042969 34.21875 26.664062 34.851562 26.664062 35.546875 L 26.664062 35.957031 C 23.660156 36.304688 23.09375 37.792969 22.996094 39.28125 C 22.429688 47.15625 16.269531 49.59375 16.015625 49.6875 C 15.792969 49.78125 15.636719 49.972656 15.605469 50.195312 C 15.574219 50.414062 15.667969 50.636719 15.859375 50.761719 Z M 28.875 19.414062 C 28.875 19.066406 29.15625 18.78125 29.503906 18.78125 C 29.851562 18.78125 30.136719 19.066406 30.136719 19.414062 L 30.136719 33.648438 L 28.875 33.648438 Z M 27.925781 35.546875 C 27.925781 35.199219 28.210938 34.914062 28.558594 34.914062 L 30.453125 34.914062 C 30.800781 34.914062 31.085938 35.199219 31.085938 35.546875 L 31.085938 35.894531 C 30.453125 35.863281 29.820312 35.863281 29.125 35.863281 C 28.777344 35.863281 28.398438 35.863281 28.019531 35.863281 C 27.988281 35.863281 27.957031 35.863281 27.925781 35.863281 Z M 24.261719 39.34375 C 24.324219 38.394531 24.417969 37.128906 28.019531 37.128906 C 28.398438 37.128906 28.777344 37.128906 29.125 37.128906 C 32.441406 37.097656 33.832031 37.066406 34.210938 40.101562 C 34.75 44.214844 34.90625 47.285156 32.441406 52.089844 C 31.714844 52.3125 29.378906 52.945312 26.410156 52.914062 C 27.609375 51.996094 29.316406 50.351562 30.390625 47.789062 C 30.515625 47.472656 30.359375 47.09375 30.042969 46.96875 C 29.726562 46.839844 29.347656 47 29.222656 47.316406 C 27.671875 51.015625 24.515625 52.660156 24.449219 52.691406 C 24.386719 52.722656 24.355469 52.753906 24.324219 52.789062 C 23.535156 52.691406 22.679688 52.535156 21.859375 52.3125 C 22.839844 51.617188 24.417969 50.289062 25.621094 48.199219 C 25.777344 47.882812 25.683594 47.503906 25.398438 47.347656 C 25.082031 47.1875 24.703125 47.285156 24.546875 47.566406 C 22.902344 50.445312 20.40625 51.742188 20.375 51.742188 C 20.34375 51.742188 20.34375 51.773438 20.3125 51.773438 C 19.363281 51.425781 18.417969 50.953125 17.5 50.351562 C 19.492188 49.246094 23.753906 46.113281 24.261719 39.34375 Z M 24.261719 39.34375 " fill-opacity="1" fill-rule="nonzero"/></g><path fill="#000000" d="M 26.976562 39.660156 L 30.769531 39.660156 C 31.117188 39.660156 31.402344 39.375 31.402344 39.027344 C 31.402344 38.679688 31.117188 38.394531 30.769531 38.394531 L 26.976562 38.394531 C 26.628906 38.394531 26.347656 38.679688 26.347656 39.027344 C 26.347656 39.375 26.628906 39.660156 26.976562 39.660156 Z M 26.976562 39.660156 " fill-opacity="1" fill-rule="nonzero"/><g clip-path="url(#id2)"><path fill="#000000" d="M 36.738281 37.160156 L 37.5625 38.710938 L 38.445312 49.8125 C 38.636719 52.089844 40.5625 53.894531 42.867188 53.894531 L 49.027344 53.894531 C 51.304688 53.894531 53.261719 52.089844 53.453125 49.8125 L 54.304688 39.28125 C 54.398438 39.152344 54.460938 38.996094 54.558594 38.867188 L 55.503906 36.875 C 55.851562 36.527344 56.074219 36.054688 56.074219 35.546875 C 56.074219 34.503906 55.21875 33.648438 54.179688 33.648438 L 51.019531 33.648438 C 51.019531 32.605469 50.167969 31.75 49.125 31.75 C 48.082031 31.75 47.226562 32.605469 47.226562 33.648438 L 43.941406 33.648438 C 43.660156 32.574219 42.679688 31.75 41.511719 31.75 C 40.339844 31.75 39.363281 32.574219 39.078125 33.648438 L 37.71875 33.648438 C 36.675781 33.648438 35.824219 34.503906 35.824219 35.546875 C 35.824219 36.210938 36.203125 36.8125 36.738281 37.160156 Z M 38.730469 37.445312 L 40.878906 37.445312 C 40.878906 38.363281 40.878906 39.40625 40.878906 40.449219 C 39.992188 39.882812 39.265625 39.183594 38.792969 38.394531 Z M 53.039062 38.902344 C 52.503906 39.628906 51.808594 40.261719 51.019531 40.796875 C 51.019531 39.660156 51.019531 38.488281 51.019531 37.445312 L 53.167969 37.445312 Z M 54.148438 34.914062 C 54.492188 34.914062 54.777344 35.199219 54.777344 35.546875 C 54.777344 35.894531 54.492188 36.179688 54.148438 36.179688 L 50.988281 36.179688 C 50.988281 35.671875 50.988281 35.230469 50.988281 34.914062 Z M 50.386719 47.03125 C 50.734375 47.03125 51.019531 46.746094 51.019531 46.398438 C 51.019531 46.367188 51.019531 44.5 51.019531 42.222656 C 51.683594 41.84375 52.3125 41.398438 52.882812 40.894531 L 52.1875 49.6875 C 52.0625 51.332031 50.671875 52.597656 49.027344 52.597656 L 42.835938 52.597656 C 41.195312 52.597656 39.804688 51.332031 39.675781 49.6875 L 38.949219 40.515625 C 39.519531 41.050781 40.183594 41.496094 40.878906 41.90625 C 40.878906 44.371094 40.878906 46.460938 40.910156 46.492188 C 40.972656 46.777344 41.226562 47.03125 41.542969 47.03125 C 41.667969 47.03125 41.699219 47.0625 41.859375 47.1875 C 42.078125 47.378906 42.394531 47.664062 42.996094 47.664062 C 43.59375 47.664062 43.910156 47.378906 44.132812 47.1875 C 44.289062 47.0625 44.320312 47.03125 44.449219 47.03125 C 44.574219 47.03125 44.605469 47.0625 44.765625 47.1875 C 44.984375 47.378906 45.300781 47.664062 45.902344 47.664062 C 46.5 47.664062 46.816406 47.378906 47.039062 47.1875 C 47.195312 47.0625 47.226562 47.03125 47.355469 47.03125 C 47.480469 47.03125 47.511719 47.0625 47.671875 47.1875 C 47.890625 47.378906 48.207031 47.664062 48.808594 47.664062 C 49.40625 47.664062 49.722656 47.378906 49.945312 47.1875 C 50.230469 47.0625 50.261719 47.03125 50.386719 47.03125 Z M 42.140625 45.859375 L 42.140625 42.507812 C 43.5625 43.109375 45.113281 43.425781 46.40625 43.425781 C 47.511719 43.425781 48.648438 43.203125 49.722656 42.792969 L 49.722656 45.890625 C 49.503906 45.984375 49.34375 46.113281 49.25 46.207031 C 49.09375 46.335938 49.058594 46.367188 48.933594 46.367188 C 48.808594 46.367188 48.777344 46.335938 48.617188 46.207031 C 48.398438 46.019531 48.082031 45.734375 47.480469 45.734375 C 46.878906 45.734375 46.566406 46.019531 46.34375 46.207031 C 46.183594 46.335938 46.152344 46.367188 46.027344 46.367188 C 45.902344 46.367188 45.871094 46.335938 45.710938 46.207031 C 45.492188 46.019531 45.175781 45.734375 44.574219 45.734375 C 43.972656 45.734375 43.660156 46.019531 43.4375 46.207031 C 43.277344 46.335938 43.246094 46.367188 43.121094 46.367188 C 42.996094 46.367188 42.964844 46.335938 42.804688 46.207031 C 42.550781 46.113281 42.394531 45.984375 42.140625 45.859375 Z M 49.09375 33.015625 C 49.4375 33.015625 49.722656 33.300781 49.722656 33.648438 L 48.460938 33.648438 C 48.460938 33.300781 48.746094 33.015625 49.09375 33.015625 Z M 49.722656 34.914062 L 49.722656 41.460938 C 48.679688 41.90625 47.542969 42.191406 46.40625 42.191406 C 45.078125 42.191406 43.53125 41.8125 42.140625 41.144531 L 42.140625 34.914062 Z M 41.511719 33.015625 C 41.984375 33.015625 42.363281 33.269531 42.585938 33.648438 L 40.40625 33.648438 C 40.625 33.269531 41.035156 33.015625 41.511719 33.015625 Z M 37.71875 34.914062 L 40.878906 34.914062 C 40.878906 35.230469 40.878906 35.671875 40.878906 36.179688 L 37.71875 36.179688 C 37.371094 36.179688 37.085938 35.894531 37.085938 35.546875 C 37.085938 35.199219 37.371094 34.914062 37.71875 34.914062 Z M 37.71875 34.914062 " fill-opacity="1" fill-rule="nonzero"/></g></svg>