<svg xmlns="http://www.w3.org/2000/svg" xmlns:xlink="http://www.w3.org/1999/xlink" width="96" zoomAndPan="magnify" viewBox="0 0 72 72" height="96" preserveAspectRatio="xMidYMid meet" version="1.0"><defs><clipPath id="id1"><path d="M 10.800781 26.046875 L 61 26.046875 L 61 46.296875 L 10.800781 46.296875 Z M 10.800781 26.046875 " clip-rule="nonzero"/></clipPath></defs><path fill="#fdbe35" d="M 72 36 C 72 37.179688 71.941406 38.355469 71.828125 39.527344 C 71.710938 40.703125 71.539062 41.867188 71.308594 43.023438 C 71.078125 44.179688 70.792969 45.320312 70.449219 46.449219 C 70.109375 47.578125 69.710938 48.6875 69.257812 49.777344 C 68.808594 50.867188 68.304688 51.929688 67.75 52.96875 C 67.191406 54.011719 66.589844 55.019531 65.933594 56 C 65.277344 56.980469 64.578125 57.925781 63.828125 58.839844 C 63.082031 59.75 62.289062 60.621094 61.457031 61.457031 C 60.621094 62.289062 59.75 63.082031 58.839844 63.828125 C 57.925781 64.578125 56.980469 65.277344 56 65.933594 C 55.019531 66.589844 54.011719 67.195312 52.96875 67.75 C 51.929688 68.304688 50.867188 68.808594 49.777344 69.257812 C 48.6875 69.710938 47.578125 70.109375 46.449219 70.449219 C 45.320312 70.792969 44.179688 71.078125 43.023438 71.308594 C 41.867188 71.539062 40.703125 71.710938 39.527344 71.828125 C 38.355469 71.941406 37.179688 72 36 72 C 34.820312 72 33.644531 71.941406 32.472656 71.828125 C 31.296875 71.710938 30.132812 71.539062 28.976562 71.308594 C 27.820312 71.078125 26.679688 70.792969 25.550781 70.449219 C 24.421875 70.109375 23.3125 69.710938 22.222656 69.257812 C 21.132812 68.808594 20.070312 68.304688 19.03125 67.75 C 17.988281 67.195312 16.980469 66.589844 16 65.933594 C 15.019531 65.277344 14.074219 64.578125 13.160156 63.828125 C 12.25 63.082031 11.378906 62.289062 10.542969 61.457031 C 9.710938 60.621094 8.917969 59.75 8.171875 58.839844 C 7.421875 57.925781 6.722656 56.980469 6.066406 56 C 5.410156 55.019531 4.804688 54.011719 4.25 52.96875 C 3.695312 51.929688 3.191406 50.867188 2.742188 49.777344 C 2.289062 48.6875 1.890625 47.578125 1.550781 46.449219 C 1.207031 45.320312 0.921875 44.179688 0.691406 43.023438 C 0.460938 41.867188 0.289062 40.703125 0.171875 39.527344 C 0.0585938 38.355469 0 37.179688 0 36 C 0 34.820312 0.0585938 33.644531 0.171875 32.472656 C 0.289062 31.296875 0.460938 30.132812 0.691406 28.976562 C 0.921875 27.820312 1.207031 26.679688 1.550781 25.550781 C 1.890625 24.421875 2.289062 23.3125 2.742188 22.222656 C 3.191406 21.132812 3.695312 20.070312 4.25 19.03125 C 4.804688 17.988281 5.410156 16.980469 6.066406 16 C 6.722656 15.019531 7.421875 14.074219 8.171875 13.160156 C 8.917969 12.25 9.710938 11.378906 10.542969 10.542969 C 11.378906 9.710938 12.25 8.917969 13.160156 8.171875 C 14.074219 7.421875 15.019531 6.722656 16 6.066406 C 16.980469 5.410156 17.988281 4.808594 19.03125 4.25 C 20.070312 3.695312 21.132812 3.191406 22.222656 2.742188 C 23.3125 2.289062 24.421875 1.890625 25.550781 1.550781 C 26.679688 1.207031 27.820312 0.921875 28.976562 0.691406 C 30.132812 0.460938 31.296875 0.289062 32.472656 0.171875 C 33.644531 0.0585938 34.820312 0 36 0 C 37.179688 0 38.355469 0.0585938 39.527344 0.171875 C 40.703125 0.289062 41.867188 0.460938 43.023438 0.691406 C 44.179688 0.921875 45.320312 1.207031 46.449219 1.550781 C 47.578125 1.890625 48.6875 2.289062 49.777344 2.742188 C 50.867188 3.191406 51.929688 3.695312 52.96875 4.25 C 54.011719 4.808594 55.019531 5.410156 56 6.066406 C 56.980469 6.722656 57.925781 7.421875 58.839844 8.171875 C 59.75 8.917969 60.621094 9.710938 61.457031 10.542969 C 62.289062 11.378906 63.082031 12.25 63.828125 13.160156 C 64.578125 14.074219 65.277344 15.019531 65.933594 16 C 66.589844 16.980469 67.191406 17.988281 67.75 19.03125 C 68.304688 20.070312 68.808594 21.132812 69.257812 22.222656 C 69.710938 23.3125 70.109375 24.421875 70.449219 25.550781 C 70.792969 26.679688 71.078125 27.820312 71.308594 28.976562 C 71.539062 30.132812 71.710938 31.296875 71.828125 32.472656 C 71.941406 33.644531 72 34.820312 72 36 Z M 72 36 " fill-opacity="1" fill-rule="nonzero"/><path fill="#212121" d="M 36 68.566406 C 18.027344 68.566406 3.433594 53.972656 3.433594 36 C 3.433594 18.027344 18.027344 3.433594 36 3.433594 C 53.972656 3.433594 68.566406 18.027344 68.566406 36 C 68.566406 53.972656 53.972656 68.566406 36 68.566406 Z M 36 4.238281 C 18.457031 4.238281 4.238281 18.457031 4.238281 36 C 4.238281 53.542969 18.507812 67.761719 36 67.761719 C 53.542969 67.761719 67.761719 53.492188 67.761719 36 C 67.761719 18.457031 53.542969 4.238281 36 4.238281 Z M 36 4.238281 " fill-opacity="1" fill-rule="nonzero"/><g clip-path="url(#id1)"><path fill="#000000" d="M 60.902344 38.996094 L 60.902344 38.992188 C 60.886719 38.9375 60.867188 38.890625 60.84375 38.839844 C 60.839844 38.828125 60.828125 38.820312 60.824219 38.808594 C 60.816406 38.796875 60.804688 38.773438 60.792969 38.757812 C 60.761719 38.714844 60.726562 38.671875 60.691406 38.632812 C 60.679688 38.621094 60.667969 38.609375 60.660156 38.601562 C 60.605469 38.554688 60.550781 38.515625 60.488281 38.480469 L 60.480469 38.476562 L 36.296875 26.132812 C 36.289062 26.132812 36.28125 26.128906 36.273438 26.125 C 36.246094 26.113281 36.214844 26.101562 36.183594 26.09375 C 36.175781 26.089844 36.167969 26.082031 36.160156 26.082031 C 36.152344 26.078125 36.148438 26.078125 36.140625 26.082031 C 36.128906 26.078125 36.117188 26.074219 36.109375 26.070312 C 36.050781 26.054688 35.992188 26.046875 35.933594 26.046875 L 35.90625 26.046875 C 35.890625 26.046875 35.878906 26.046875 35.867188 26.050781 C 35.828125 26.050781 35.792969 26.054688 35.753906 26.0625 C 35.734375 26.066406 35.714844 26.074219 35.695312 26.082031 C 35.671875 26.085938 35.660156 26.089844 35.640625 26.09375 L 35.632812 26.097656 C 35.617188 26.105469 35.601562 26.113281 35.585938 26.121094 C 35.570312 26.128906 35.5625 26.128906 35.554688 26.132812 L 11.367188 38.472656 C 11.363281 38.476562 11.363281 38.476562 11.359375 38.480469 C 11.296875 38.511719 11.242188 38.550781 11.191406 38.597656 C 11.179688 38.609375 11.167969 38.621094 11.15625 38.632812 C 11.121094 38.671875 11.085938 38.710938 11.058594 38.753906 C 11.046875 38.773438 11.035156 38.789062 11.027344 38.804688 C 11.015625 38.824219 11.011719 38.828125 11.003906 38.839844 C 10.980469 38.886719 10.960938 38.9375 10.945312 38.988281 L 10.945312 38.996094 C 10.929688 39.0625 10.917969 39.132812 10.917969 39.203125 C 10.917969 39.210938 10.914062 39.21875 10.914062 39.226562 L 10.914062 45.394531 C 10.914062 45.539062 10.949219 45.675781 11.015625 45.804688 C 11.085938 45.929688 11.179688 46.03125 11.300781 46.109375 C 11.421875 46.183594 11.550781 46.226562 11.691406 46.234375 C 11.832031 46.246094 11.96875 46.21875 12.097656 46.15625 L 30.21875 37.269531 L 30.226562 37.265625 L 35.925781 34.472656 L 41.621094 37.265625 L 41.628906 37.269531 L 59.753906 46.15625 C 59.882812 46.21875 60.015625 46.246094 60.15625 46.238281 C 60.296875 46.230469 60.429688 46.1875 60.550781 46.109375 C 60.667969 46.035156 60.761719 45.933594 60.832031 45.804688 C 60.902344 45.679688 60.933594 45.542969 60.933594 45.398438 L 60.933594 39.226562 C 60.933594 39.21875 60.933594 39.214844 60.929688 39.207031 C 60.929688 39.132812 60.921875 39.066406 60.902344 38.996094 Z M 24.097656 34.171875 L 28.089844 36.445312 L 20.109375 40.359375 Z M 17.507812 41.335938 L 13.554688 39.242188 L 21.457031 35.210938 Z M 25.59375 33.097656 L 33.613281 29.007812 L 29.605469 35.382812 Z M 35.101562 29.757812 L 35.101562 33.011719 L 32.144531 34.460938 Z M 36.75 29.757812 L 39.707031 34.460938 L 36.75 33.007812 Z M 38.238281 29.007812 L 46.253906 33.097656 L 42.246094 35.382812 Z M 47.746094 34.171875 L 51.738281 40.359375 L 43.761719 36.449219 Z M 50.390625 35.210938 L 58.296875 39.242188 L 54.34375 41.335938 Z M 12.5625 40.613281 L 15.941406 42.402344 L 12.5625 44.0625 Z M 55.90625 42.402344 L 59.285156 40.613281 L 59.285156 44.0625 Z M 55.90625 42.402344 " fill-opacity="1" fill-rule="nonzero"/></g></svg>