<svg xmlns="http://www.w3.org/2000/svg" xmlns:xlink="http://www.w3.org/1999/xlink" width="96" zoomAndPan="magnify" viewBox="0 0 72 72" height="96" preserveAspectRatio="xMidYMid meet" version="1.0"><defs><clipPath id="id1"><path d="M 18.347656 15.71875 L 53.5625 15.71875 L 53.5625 56.21875 L 18.347656 56.21875 Z M 18.347656 15.71875 " clip-rule="nonzero"/></clipPath></defs><path fill="#fdbe35" d="M 72 36 C 72 37.179688 71.941406 38.355469 71.828125 39.527344 C 71.710938 40.703125 71.539062 41.867188 71.308594 43.023438 C 71.078125 44.179688 70.792969 45.320312 70.449219 46.449219 C 70.109375 47.578125 69.710938 48.6875 69.257812 49.777344 C 68.808594 50.867188 68.304688 51.929688 67.75 52.96875 C 67.191406 54.011719 66.589844 55.019531 65.933594 56 C 65.277344 56.980469 64.578125 57.925781 63.828125 58.839844 C 63.082031 59.75 62.289062 60.621094 61.457031 61.457031 C 60.621094 62.289062 59.75 63.082031 58.839844 63.828125 C 57.925781 64.578125 56.980469 65.277344 56 65.933594 C 55.019531 66.589844 54.011719 67.195312 52.96875 67.75 C 51.929688 68.304688 50.867188 68.808594 49.777344 69.257812 C 48.6875 69.710938 47.578125 70.109375 46.449219 70.449219 C 45.320312 70.792969 44.179688 71.078125 43.023438 71.308594 C 41.867188 71.539062 40.703125 71.710938 39.527344 71.828125 C 38.355469 71.941406 37.179688 72 36 72 C 34.820312 72 33.644531 71.941406 32.472656 71.828125 C 31.296875 71.710938 30.132812 71.539062 28.976562 71.308594 C 27.820312 71.078125 26.679688 70.792969 25.550781 70.449219 C 24.421875 70.109375 23.3125 69.710938 22.222656 69.257812 C 21.132812 68.808594 20.070312 68.304688 19.03125 67.75 C 17.988281 67.191406 16.980469 66.589844 16 65.933594 C 15.019531 65.277344 14.074219 64.578125 13.160156 63.828125 C 12.25 63.082031 11.378906 62.289062 10.542969 61.457031 C 9.710938 60.621094 8.917969 59.75 8.171875 58.839844 C 7.421875 57.925781 6.722656 56.980469 6.066406 56 C 5.410156 55.019531 4.804688 54.011719 4.25 52.96875 C 3.695312 51.929688 3.191406 50.867188 2.742188 49.777344 C 2.289062 48.6875 1.890625 47.578125 1.550781 46.449219 C 1.207031 45.320312 0.921875 44.179688 0.691406 43.023438 C 0.460938 41.867188 0.289062 40.703125 0.171875 39.527344 C 0.0585938 38.355469 0 37.179688 0 36 C 0 34.820312 0.0585938 33.644531 0.171875 32.472656 C 0.289062 31.296875 0.460938 30.132812 0.691406 28.976562 C 0.921875 27.820312 1.207031 26.679688 1.550781 25.550781 C 1.890625 24.421875 2.289062 23.3125 2.742188 22.222656 C 3.191406 21.132812 3.695312 20.070312 4.25 19.03125 C 4.804688 17.988281 5.410156 16.980469 6.066406 16 C 6.722656 15.019531 7.421875 14.074219 8.171875 13.160156 C 8.917969 12.25 9.710938 11.378906 10.542969 10.542969 C 11.378906 9.710938 12.25 8.917969 13.160156 8.171875 C 14.074219 7.421875 15.019531 6.722656 16 6.066406 C 16.980469 5.410156 17.988281 4.804688 19.03125 4.25 C 20.070312 3.695312 21.132812 3.191406 22.222656 2.742188 C 23.3125 2.289062 24.421875 1.890625 25.550781 1.550781 C 26.679688 1.207031 27.820312 0.921875 28.976562 0.691406 C 30.132812 0.460938 31.296875 0.289062 32.472656 0.171875 C 33.644531 0.0585938 34.820312 0 36 0 C 37.179688 0 38.355469 0.0585938 39.527344 0.171875 C 40.703125 0.289062 41.867188 0.460938 43.023438 0.691406 C 44.179688 0.921875 45.320312 1.207031 46.449219 1.550781 C 47.578125 1.890625 48.6875 2.289062 49.777344 2.742188 C 50.867188 3.191406 51.929688 3.695312 52.96875 4.25 C 54.011719 4.804688 55.019531 5.410156 56 6.066406 C 56.980469 6.722656 57.925781 7.421875 58.839844 8.171875 C 59.75 8.917969 60.621094 9.710938 61.457031 10.542969 C 62.289062 11.378906 63.082031 12.25 63.828125 13.160156 C 64.578125 14.074219 65.277344 15.019531 65.933594 16 C 66.589844 16.980469 67.191406 17.988281 67.75 19.03125 C 68.304688 20.070312 68.808594 21.132812 69.257812 22.222656 C 69.710938 23.3125 70.109375 24.421875 70.449219 25.550781 C 70.792969 26.679688 71.078125 27.820312 71.308594 28.976562 C 71.539062 30.132812 71.710938 31.296875 71.828125 32.472656 C 71.941406 33.644531 72 34.820312 72 36 Z M 72 36 " fill-opacity="1" fill-rule="nonzero"/><path fill="#212121" d="M 36 68.566406 C 18.027344 68.566406 3.433594 53.972656 3.433594 36 C 3.433594 18.027344 18.027344 3.433594 36 3.433594 C 53.972656 3.433594 68.566406 18.027344 68.566406 36 C 68.566406 53.972656 53.972656 68.566406 36 68.566406 Z M 36 4.238281 C 18.457031 4.238281 4.238281 18.457031 4.238281 36 C 4.238281 53.542969 18.507812 67.761719 36 67.761719 C 53.542969 67.761719 67.761719 53.492188 67.761719 36 C 67.761719 18.457031 53.542969 4.238281 36 4.238281 Z M 36 4.238281 " fill-opacity="1" fill-rule="nonzero"/><g clip-path="url(#id1)"><path fill="#000000" d="M 48.65625 46.628906 L 43.363281 42.03125 L 41.5625 40.464844 L 40.980469 39.960938 L 39.074219 38.304688 C 39.140625 38.214844 39.203125 38.121094 39.261719 38.027344 C 39.273438 38.003906 39.285156 37.984375 39.300781 37.964844 C 39.304688 37.957031 39.304688 37.953125 39.308594 37.945312 C 39.3125 37.9375 39.320312 37.933594 39.324219 37.925781 C 39.335938 37.90625 39.335938 37.902344 39.34375 37.886719 C 39.347656 37.878906 39.351562 37.871094 39.355469 37.863281 C 39.375 37.832031 39.390625 37.800781 39.40625 37.769531 C 39.421875 37.738281 39.4375 37.710938 39.453125 37.679688 C 39.472656 37.644531 39.488281 37.605469 39.503906 37.566406 C 39.515625 37.546875 39.527344 37.523438 39.535156 37.503906 L 51.214844 41.535156 C 51.214844 41.535156 51.21875 41.535156 51.21875 41.535156 L 51.53125 41.644531 L 52.1875 45.347656 Z M 39.910156 51.066406 L 39.609375 49.515625 C 41.972656 48.878906 44.109375 47.644531 45.851562 45.90625 L 47.042969 46.945312 C 45.066406 48.945312 42.621094 50.359375 39.910156 51.066406 Z M 35.957031 54.726562 L 33.078125 52.308594 L 33.144531 51.976562 L 33.6875 49.160156 L 34.414062 45.421875 L 35.496094 39.839844 C 35.503906 39.839844 35.511719 39.839844 35.519531 39.839844 C 35.570312 39.847656 35.621094 39.851562 35.671875 39.855469 C 35.695312 39.855469 35.714844 39.859375 35.738281 39.859375 C 35.808594 39.863281 35.882812 39.867188 35.957031 39.867188 C 36.027344 39.867188 36.101562 39.863281 36.175781 39.859375 C 36.195312 39.859375 36.214844 39.855469 36.234375 39.855469 C 36.289062 39.851562 36.339844 39.847656 36.390625 39.839844 C 36.398438 39.839844 36.410156 39.839844 36.417969 39.839844 L 38.222656 49.160156 C 38.222656 49.160156 38.222656 49.160156 38.222656 49.164062 L 38.765625 51.976562 C 38.765625 51.976562 38.765625 51.976562 38.765625 51.980469 L 38.832031 52.308594 Z M 26.058594 45.90625 C 27.800781 47.644531 29.9375 48.878906 32.304688 49.515625 L 32.003906 51.066406 C 29.289062 50.359375 26.84375 48.949219 24.867188 46.945312 Z M 19.726562 45.347656 L 20.378906 41.644531 L 20.691406 41.535156 C 20.695312 41.535156 20.695312 41.535156 20.695312 41.535156 L 23.40625 40.601562 L 32.375 37.503906 C 32.382812 37.523438 32.394531 37.542969 32.402344 37.5625 C 32.421875 37.601562 32.4375 37.640625 32.457031 37.679688 C 32.472656 37.710938 32.488281 37.738281 32.503906 37.769531 C 32.519531 37.800781 32.535156 37.832031 32.554688 37.863281 C 32.558594 37.871094 32.5625 37.878906 32.566406 37.886719 C 32.566406 37.890625 32.570312 37.890625 32.570312 37.890625 C 32.574219 37.898438 32.578125 37.90625 32.582031 37.914062 C 32.585938 37.921875 32.585938 37.925781 32.589844 37.929688 C 32.59375 37.933594 32.59375 37.9375 32.597656 37.941406 C 32.601562 37.949219 32.605469 37.957031 32.609375 37.960938 C 32.625 37.984375 32.636719 38.007812 32.652344 38.027344 C 32.710938 38.121094 32.769531 38.214844 32.835938 38.304688 L 30.914062 39.972656 L 28.550781 42.03125 L 25.675781 44.527344 C 25.675781 44.527344 25.675781 44.527344 25.671875 44.527344 L 23.507812 46.410156 L 23.253906 46.628906 Z M 20.359375 35.96875 C 20.359375 34.570312 20.546875 33.183594 20.914062 31.84375 L 22.40625 32.359375 C 22.09375 33.53125 21.933594 34.742188 21.933594 35.96875 C 21.933594 37.191406 22.09375 38.402344 22.40625 39.578125 L 20.914062 40.09375 C 20.546875 38.75 20.359375 37.367188 20.359375 35.96875 Z M 23.253906 25.304688 L 28.289062 29.679688 L 32.835938 33.632812 C 32.769531 33.71875 32.710938 33.8125 32.652344 33.90625 C 32.636719 33.929688 32.625 33.953125 32.609375 33.972656 C 32.609375 33.976562 32.605469 33.980469 32.605469 33.984375 C 32.597656 33.992188 32.589844 34.003906 32.589844 34.007812 C 32.582031 34.019531 32.574219 34.035156 32.566406 34.050781 C 32.5625 34.058594 32.558594 34.0625 32.554688 34.070312 C 32.539062 34.101562 32.523438 34.128906 32.507812 34.160156 C 32.488281 34.191406 32.472656 34.226562 32.457031 34.257812 C 32.4375 34.292969 32.425781 34.324219 32.410156 34.359375 C 32.398438 34.382812 32.386719 34.40625 32.375 34.433594 L 27.632812 32.792969 L 23.40625 31.335938 C 23.40625 31.335938 23.40625 31.335938 23.402344 31.335938 L 20.695312 30.398438 C 20.695312 30.398438 20.691406 30.398438 20.691406 30.398438 L 20.378906 30.289062 L 19.726562 26.589844 Z M 32.003906 20.867188 L 32.203125 21.894531 L 32.304688 22.417969 C 29.9375 23.054688 27.800781 24.292969 26.058594 26.027344 L 24.867188 24.992188 C 26.84375 22.988281 29.289062 21.574219 32.003906 20.867188 Z M 35.957031 17.210938 L 38.832031 19.628906 L 38.769531 19.953125 C 38.769531 19.957031 38.765625 19.957031 38.765625 19.957031 L 38.222656 22.773438 C 38.222656 22.773438 38.222656 22.773438 38.222656 22.777344 L 36.417969 32.097656 C 36.40625 32.09375 36.398438 32.09375 36.390625 32.09375 C 36.339844 32.089844 36.289062 32.085938 36.238281 32.082031 C 36.214844 32.078125 36.195312 32.078125 36.171875 32.074219 C 36.101562 32.070312 36.027344 32.070312 35.957031 32.070312 C 35.953125 32.070312 35.953125 32.070312 35.953125 32.070312 C 35.878906 32.070312 35.808594 32.070312 35.738281 32.074219 C 35.714844 32.078125 35.691406 32.078125 35.667969 32.082031 C 35.621094 32.085938 35.570312 32.089844 35.523438 32.09375 C 35.511719 32.09375 35.503906 32.09375 35.496094 32.097656 L 34.414062 26.511719 L 33.6875 22.777344 C 33.6875 22.773438 33.6875 22.773438 33.6875 22.773438 L 33.144531 19.957031 L 33.078125 19.628906 Z M 39.910156 20.867188 C 42.621094 21.574219 45.066406 22.988281 47.042969 24.992188 L 45.851562 26.027344 C 44.113281 24.292969 41.972656 23.054688 39.609375 22.417969 L 39.777344 21.542969 Z M 52.1875 26.589844 L 51.53125 30.289062 L 51.21875 30.398438 C 51.21875 30.398438 51.214844 30.398438 51.214844 30.398438 L 48.507812 31.335938 C 48.507812 31.335938 48.507812 31.335938 48.503906 31.335938 L 44.855469 32.59375 L 39.535156 34.433594 C 39.523438 34.40625 39.511719 34.378906 39.5 34.355469 C 39.484375 34.324219 39.472656 34.289062 39.457031 34.257812 C 39.4375 34.226562 39.421875 34.191406 39.40625 34.160156 C 39.390625 34.128906 39.371094 34.101562 39.355469 34.070312 C 39.351562 34.0625 39.347656 34.054688 39.34375 34.046875 C 39.335938 34.035156 39.332031 34.023438 39.324219 34.011719 C 39.320312 34.003906 39.316406 33.996094 39.308594 33.984375 C 39.304688 33.980469 39.304688 33.980469 39.300781 33.976562 C 39.285156 33.949219 39.269531 33.925781 39.253906 33.902344 C 39.199219 33.808594 39.136719 33.71875 39.074219 33.632812 L 48.65625 25.304688 Z M 38.882812 45.765625 C 40.410156 45.3125 41.804688 44.503906 42.96875 43.402344 L 44.875 45.058594 C 43.328125 46.578125 41.441406 47.667969 39.359375 48.242188 Z M 42.96875 28.53125 C 41.804688 27.429688 40.410156 26.625 38.882812 26.167969 L 39.359375 23.691406 C 41.445312 24.265625 43.328125 25.355469 44.875 26.878906 Z M 37.664062 39.46875 C 37.742188 39.429688 37.820312 39.390625 37.894531 39.34375 C 37.898438 39.34375 37.902344 39.339844 37.90625 39.339844 C 37.984375 39.292969 38.058594 39.25 38.132812 39.199219 L 41.988281 42.550781 C 41.023438 43.4375 39.882812 44.097656 38.632812 44.492188 Z M 38.132812 32.738281 C 38.058594 32.6875 37.980469 32.640625 37.902344 32.59375 C 37.902344 32.59375 37.902344 32.59375 37.898438 32.59375 C 37.820312 32.546875 37.742188 32.503906 37.664062 32.464844 L 38.632812 27.445312 C 39.882812 27.835938 41.023438 28.496094 41.988281 29.386719 Z M 44.675781 34.027344 C 44.816406 34.664062 44.890625 35.316406 44.890625 35.96875 C 44.890625 36.621094 44.816406 37.269531 44.675781 37.910156 L 40.566406 36.492188 L 39.839844 36.238281 C 39.839844 36.230469 39.839844 36.226562 39.839844 36.21875 C 39.84375 36.1875 39.84375 36.160156 39.847656 36.132812 C 39.847656 36.078125 39.851562 36.023438 39.851562 35.96875 C 39.851562 35.914062 39.847656 35.859375 39.847656 35.804688 C 39.84375 35.773438 39.84375 35.746094 39.839844 35.71875 C 39.839844 35.710938 39.839844 35.703125 39.839844 35.695312 L 40.566406 35.445312 Z M 48.683594 35.96875 C 48.683594 37.046875 48.550781 38.117188 48.28125 39.15625 L 45.902344 38.332031 C 46.085938 37.554688 46.183594 36.761719 46.183594 35.96875 C 46.183594 35.171875 46.085938 34.378906 45.902344 33.601562 L 48.28125 32.78125 C 48.550781 33.820312 48.683594 34.886719 48.683594 35.96875 Z M 28.941406 43.402344 C 30.105469 44.503906 31.5 45.3125 33.027344 45.765625 L 32.644531 47.746094 L 32.550781 48.242188 C 30.46875 47.667969 28.582031 46.578125 27.039062 45.058594 Z M 33.027344 26.167969 C 31.5 26.625 30.105469 27.429688 28.941406 28.535156 L 27.035156 26.878906 C 28.582031 25.355469 30.464844 24.265625 32.550781 23.691406 Z M 33.777344 39.199219 C 33.851562 39.246094 33.925781 39.292969 34.003906 39.339844 C 34.007812 39.339844 34.011719 39.34375 34.015625 39.347656 C 34.09375 39.390625 34.167969 39.433594 34.25 39.46875 L 33.277344 44.492188 C 32.03125 44.097656 30.886719 43.4375 29.921875 42.550781 Z M 34.25 32.464844 C 34.246094 32.464844 34.246094 32.464844 34.246094 32.464844 C 34.167969 32.503906 34.089844 32.546875 34.015625 32.589844 C 34.011719 32.59375 34.007812 32.59375 34.007812 32.59375 C 33.929688 32.640625 33.851562 32.6875 33.777344 32.738281 L 29.921875 29.386719 C 30.886719 28.496094 32.03125 27.835938 33.277344 27.445312 Z M 27.234375 37.910156 C 27.09375 37.269531 27.019531 36.621094 27.019531 35.96875 C 27.019531 35.316406 27.09375 34.664062 27.234375 34.027344 L 31.019531 35.332031 L 32.070312 35.695312 C 32.070312 35.703125 32.070312 35.710938 32.070312 35.714844 C 32.066406 35.746094 32.066406 35.773438 32.066406 35.804688 C 32.0625 35.859375 32.0625 35.914062 32.0625 35.96875 C 32.0625 36.023438 32.0625 36.078125 32.066406 36.132812 C 32.066406 36.160156 32.066406 36.191406 32.070312 36.21875 C 32.070312 36.226562 32.070312 36.234375 32.070312 36.238281 L 31.019531 36.601562 Z M 23.226562 35.96875 C 23.226562 34.886719 23.359375 33.820312 23.628906 32.78125 L 26.007812 33.601562 C 25.824219 34.378906 25.726562 35.171875 25.726562 35.96875 C 25.726562 36.765625 25.824219 37.554688 26.007812 38.332031 L 23.628906 39.15625 C 23.359375 38.117188 23.226562 37.046875 23.226562 35.96875 Z M 36.160156 38.5625 C 36.15625 38.5625 36.148438 38.5625 36.144531 38.566406 C 36.019531 38.574219 35.894531 38.574219 35.765625 38.566406 C 35.761719 38.5625 35.753906 38.5625 35.75 38.5625 C 35.625 38.554688 35.507812 38.535156 35.386719 38.507812 C 35.375 38.503906 35.359375 38.503906 35.347656 38.5 C 35.292969 38.488281 35.238281 38.472656 35.1875 38.457031 C 35.160156 38.449219 35.136719 38.4375 35.109375 38.429688 C 35.09375 38.425781 35.074219 38.417969 35.054688 38.410156 C 35.035156 38.402344 35.015625 38.394531 34.992188 38.386719 C 34.96875 38.375 34.945312 38.367188 34.921875 38.355469 C 34.90625 38.351562 34.894531 38.34375 34.878906 38.335938 C 34.84375 38.320312 34.8125 38.304688 34.777344 38.289062 C 34.773438 38.285156 34.769531 38.285156 34.765625 38.28125 C 34.546875 38.167969 34.34375 38.023438 34.15625 37.847656 C 34.15625 37.84375 34.148438 37.839844 34.148438 37.835938 C 34.050781 37.746094 33.960938 37.644531 33.882812 37.539062 C 33.871094 37.527344 33.863281 37.515625 33.855469 37.503906 C 33.828125 37.464844 33.800781 37.421875 33.773438 37.382812 C 33.757812 37.359375 33.746094 37.339844 33.730469 37.316406 C 33.726562 37.308594 33.722656 37.300781 33.71875 37.292969 C 33.71875 37.292969 33.6875 37.242188 33.6875 37.238281 C 33.683594 37.234375 33.683594 37.234375 33.679688 37.230469 C 33.660156 37.191406 33.636719 37.152344 33.617188 37.109375 C 33.613281 37.097656 33.605469 37.085938 33.601562 37.074219 C 33.578125 37.03125 33.558594 36.984375 33.542969 36.9375 C 33.535156 36.921875 33.527344 36.90625 33.523438 36.890625 C 33.503906 36.839844 33.484375 36.789062 33.46875 36.734375 C 33.464844 36.722656 33.460938 36.710938 33.460938 36.703125 C 33.449219 36.667969 33.441406 36.636719 33.433594 36.601562 C 33.429688 36.59375 33.429688 36.585938 33.429688 36.574219 C 33.378906 36.363281 33.351562 36.164062 33.351562 35.96875 C 33.351562 35.773438 33.378906 35.566406 33.429688 35.359375 C 33.429688 35.351562 33.429688 35.339844 33.433594 35.332031 C 33.441406 35.300781 33.449219 35.269531 33.457031 35.238281 C 33.460938 35.226562 33.464844 35.210938 33.46875 35.199219 C 33.484375 35.148438 33.503906 35.09375 33.523438 35.042969 C 33.527344 35.027344 33.535156 35.011719 33.542969 34.996094 C 33.558594 34.953125 33.578125 34.90625 33.597656 34.863281 C 33.605469 34.847656 33.613281 34.832031 33.621094 34.816406 C 33.640625 34.777344 33.660156 34.742188 33.683594 34.703125 C 33.6875 34.695312 33.691406 34.6875 33.699219 34.675781 C 33.699219 34.671875 33.710938 34.652344 33.738281 34.609375 C 33.738281 34.609375 33.742188 34.605469 33.742188 34.601562 C 33.753906 34.582031 33.761719 34.566406 33.773438 34.550781 C 33.800781 34.511719 33.824219 34.476562 33.851562 34.4375 C 33.863281 34.421875 33.875 34.40625 33.886719 34.390625 C 33.953125 34.300781 34.03125 34.214844 34.109375 34.132812 C 34.113281 34.128906 34.117188 34.125 34.125 34.121094 C 34.132812 34.109375 34.144531 34.101562 34.152344 34.089844 C 34.15625 34.089844 34.160156 34.085938 34.164062 34.082031 C 34.34375 33.910156 34.546875 33.769531 34.761719 33.65625 C 34.769531 33.652344 34.777344 33.648438 34.785156 33.644531 C 34.8125 33.628906 34.84375 33.613281 34.875 33.597656 C 34.890625 33.589844 34.90625 33.585938 34.921875 33.578125 C 34.945312 33.566406 34.96875 33.558594 34.992188 33.550781 C 35.011719 33.539062 35.035156 33.53125 35.054688 33.523438 C 35.074219 33.515625 35.089844 33.511719 35.109375 33.503906 C 35.136719 33.496094 35.160156 33.488281 35.1875 33.480469 C 35.238281 33.464844 35.292969 33.449219 35.347656 33.4375 C 35.359375 33.433594 35.375 33.429688 35.386719 33.425781 C 35.507812 33.398438 35.625 33.382812 35.75 33.371094 C 35.753906 33.371094 35.761719 33.371094 35.765625 33.371094 C 35.894531 33.363281 36.019531 33.363281 36.144531 33.371094 C 36.148438 33.371094 36.15625 33.371094 36.160156 33.371094 C 36.285156 33.382812 36.40625 33.398438 36.523438 33.425781 C 36.539062 33.429688 36.550781 33.433594 36.5625 33.433594 C 36.617188 33.449219 36.675781 33.464844 36.730469 33.480469 C 36.746094 33.484375 36.765625 33.492188 36.785156 33.5 C 36.808594 33.507812 36.832031 33.515625 36.859375 33.523438 C 36.875 33.53125 36.894531 33.539062 36.910156 33.546875 C 36.9375 33.558594 36.964844 33.566406 36.992188 33.578125 C 37.003906 33.585938 37.015625 33.589844 37.027344 33.597656 C 37.066406 33.613281 37.101562 33.628906 37.136719 33.648438 C 37.140625 33.648438 37.140625 33.652344 37.144531 33.652344 C 37.363281 33.765625 37.566406 33.914062 37.753906 34.089844 C 37.757812 34.089844 37.761719 34.09375 37.765625 34.097656 C 37.769531 34.105469 37.777344 34.109375 37.785156 34.117188 C 37.789062 34.125 37.796875 34.128906 37.800781 34.132812 C 37.882812 34.214844 37.957031 34.300781 38.023438 34.390625 C 38.039062 34.40625 38.050781 34.425781 38.0625 34.441406 C 38.085938 34.476562 38.109375 34.511719 38.132812 34.546875 C 38.152344 34.574219 38.171875 34.605469 38.191406 34.632812 C 38.195312 34.644531 38.203125 34.65625 38.207031 34.664062 C 38.210938 34.675781 38.21875 34.683594 38.226562 34.699219 C 38.226562 34.699219 38.226562 34.703125 38.230469 34.703125 C 38.25 34.742188 38.269531 34.777344 38.289062 34.816406 C 38.296875 34.832031 38.304688 34.847656 38.3125 34.867188 C 38.332031 34.910156 38.351562 34.949219 38.367188 34.996094 C 38.375 35.011719 38.382812 35.027344 38.386719 35.046875 C 38.40625 35.09375 38.425781 35.148438 38.441406 35.199219 C 38.445312 35.210938 38.449219 35.226562 38.453125 35.238281 C 38.460938 35.269531 38.46875 35.300781 38.476562 35.332031 C 38.480469 35.339844 38.480469 35.351562 38.484375 35.359375 C 38.53125 35.566406 38.558594 35.773438 38.558594 35.96875 C 38.558594 36.164062 38.53125 36.367188 38.484375 36.574219 C 38.480469 36.585938 38.480469 36.59375 38.476562 36.601562 C 38.46875 36.636719 38.460938 36.667969 38.453125 36.699219 C 38.449219 36.710938 38.445312 36.722656 38.441406 36.734375 C 38.425781 36.789062 38.40625 36.839844 38.386719 36.894531 C 38.382812 36.90625 38.375 36.921875 38.371094 36.9375 C 38.351562 36.984375 38.328125 37.035156 38.308594 37.082031 C 38.304688 37.089844 38.300781 37.097656 38.296875 37.105469 C 38.273438 37.152344 38.25 37.195312 38.222656 37.242188 C 38.21875 37.246094 38.214844 37.253906 38.214844 37.261719 C 38.210938 37.261719 38.210938 37.265625 38.207031 37.269531 C 38.199219 37.28125 38.191406 37.292969 38.171875 37.328125 C 38.171875 37.328125 38.171875 37.332031 38.167969 37.332031 C 38.15625 37.351562 38.144531 37.375 38.132812 37.394531 C 38.109375 37.429688 38.082031 37.464844 38.058594 37.5 C 38.046875 37.511719 38.039062 37.527344 38.027344 37.539062 C 37.945312 37.648438 37.855469 37.746094 37.761719 37.839844 C 37.757812 37.84375 37.75 37.847656 37.746094 37.855469 C 37.566406 38.023438 37.363281 38.167969 37.148438 38.28125 C 37.140625 38.285156 37.136719 38.285156 37.132812 38.289062 C 37.097656 38.308594 37.0625 38.324219 37.03125 38.339844 C 37.015625 38.34375 37.003906 38.351562 36.992188 38.355469 C 36.964844 38.367188 36.9375 38.378906 36.914062 38.390625 C 36.894531 38.394531 36.875 38.402344 36.859375 38.410156 C 36.832031 38.417969 36.808594 38.429688 36.785156 38.4375 C 36.765625 38.441406 36.746094 38.449219 36.730469 38.453125 C 36.675781 38.472656 36.617188 38.488281 36.5625 38.5 C 36.550781 38.503906 36.539062 38.503906 36.523438 38.507812 C 36.40625 38.535156 36.285156 38.554688 36.160156 38.5625 Z M 51.550781 35.96875 C 51.550781 37.367188 51.363281 38.75 50.996094 40.09375 L 49.507812 39.578125 C 49.816406 38.402344 49.976562 37.191406 49.976562 35.96875 C 49.976562 34.742188 49.816406 33.53125 49.507812 32.359375 L 50.996094 31.84375 C 51.363281 33.183594 51.550781 34.570312 51.550781 35.96875 Z M 52.738281 41.042969 C 52.699219 40.8125 52.535156 40.621094 52.3125 40.546875 L 52.222656 40.515625 C 52.632812 39.035156 52.84375 37.507812 52.84375 35.96875 C 52.84375 34.425781 52.632812 32.898438 52.222656 31.421875 L 52.3125 31.390625 C 52.535156 31.3125 52.699219 31.121094 52.738281 30.890625 L 53.554688 26.277344 C 53.609375 25.96875 53.433594 25.664062 53.136719 25.558594 L 48.742188 23.957031 C 48.519531 23.878906 48.273438 23.921875 48.097656 24.078125 L 48.023438 24.140625 C 45.851562 21.921875 43.152344 20.359375 40.15625 19.59375 L 40.171875 19.5 C 40.21875 19.269531 40.132812 19.03125 39.953125 18.882812 L 36.371094 15.867188 C 36.132812 15.667969 35.78125 15.667969 35.539062 15.867188 L 31.957031 18.882812 C 31.777344 19.03125 31.695312 19.269531 31.738281 19.5 L 31.757812 19.59375 C 28.757812 20.359375 26.058594 21.921875 23.886719 24.140625 L 23.816406 24.078125 C 23.636719 23.921875 23.390625 23.878906 23.171875 23.957031 L 18.773438 25.558594 C 18.476562 25.664062 18.300781 25.96875 18.359375 26.277344 L 19.171875 30.890625 C 19.214844 31.121094 19.375 31.3125 19.597656 31.390625 L 19.6875 31.421875 C 19.277344 32.898438 19.066406 34.425781 19.066406 35.96875 C 19.066406 37.507812 19.277344 39.035156 19.6875 40.515625 L 19.597656 40.546875 C 19.375 40.621094 19.214844 40.8125 19.171875 41.042969 L 18.359375 45.65625 C 18.300781 45.964844 18.476562 46.269531 18.773438 46.375 L 23.171875 47.976562 C 23.242188 48.003906 23.316406 48.015625 23.390625 48.015625 C 23.542969 48.015625 23.695312 47.960938 23.816406 47.855469 L 23.890625 47.792969 C 26.058594 50.015625 28.757812 51.574219 31.757812 52.339844 L 31.738281 52.433594 C 31.695312 52.667969 31.777344 52.902344 31.957031 53.054688 L 35.539062 56.066406 C 35.660156 56.167969 35.808594 56.21875 35.957031 56.21875 C 36.105469 56.21875 36.25 56.167969 36.371094 56.066406 L 39.953125 53.054688 C 40.132812 52.902344 40.21875 52.667969 40.171875 52.433594 L 40.152344 52.339844 C 43.152344 51.574219 45.851562 50.015625 48.023438 47.792969 L 48.097656 47.855469 C 48.214844 47.960938 48.367188 48.015625 48.519531 48.015625 C 48.59375 48.015625 48.667969 48.003906 48.742188 47.976562 L 53.136719 46.375 C 53.433594 46.269531 53.609375 45.964844 53.554688 45.65625 L 52.738281 41.042969 " fill-opacity="1" fill-rule="nonzero"/></g></svg>