<svg xmlns="http://www.w3.org/2000/svg" xmlns:xlink="http://www.w3.org/1999/xlink" width="96" zoomAndPan="magnify" viewBox="0 0 72 72" height="96" preserveAspectRatio="xMidYMid meet" version="1.0"><defs><clipPath id="id1"><path d="M 18 25 L 54 25 L 54 54.800781 L 18 54.800781 Z M 18 25 " clip-rule="nonzero"/></clipPath><clipPath id="id2"><path d="M 45 17.300781 L 56.390625 17.300781 L 56.390625 29 L 45 29 Z M 45 17.300781 " clip-rule="nonzero"/></clipPath><clipPath id="id3"><path d="M 15.890625 17.300781 L 28 17.300781 L 28 29 L 15.890625 29 Z M 15.890625 17.300781 " clip-rule="nonzero"/></clipPath></defs><path fill="#fdbe35" d="M 72 36 C 72 37.179688 71.941406 38.355469 71.828125 39.527344 C 71.710938 40.703125 71.539062 41.867188 71.308594 43.023438 C 71.078125 44.179688 70.792969 45.320312 70.449219 46.449219 C 70.109375 47.578125 69.710938 48.6875 69.257812 49.777344 C 68.808594 50.867188 68.304688 51.929688 67.75 52.96875 C 67.191406 54.011719 66.589844 55.019531 65.933594 56 C 65.277344 56.980469 64.578125 57.925781 63.828125 58.839844 C 63.082031 59.75 62.289062 60.621094 61.457031 61.457031 C 60.621094 62.289062 59.75 63.082031 58.839844 63.828125 C 57.925781 64.578125 56.980469 65.277344 56 65.933594 C 55.019531 66.589844 54.011719 67.195312 52.96875 67.75 C 51.929688 68.304688 50.867188 68.808594 49.777344 69.257812 C 48.6875 69.710938 47.578125 70.109375 46.449219 70.449219 C 45.320312 70.792969 44.179688 71.078125 43.023438 71.308594 C 41.867188 71.539062 40.703125 71.710938 39.527344 71.828125 C 38.355469 71.941406 37.179688 72 36 72 C 34.820312 72 33.644531 71.941406 32.472656 71.828125 C 31.296875 71.710938 30.132812 71.539062 28.976562 71.308594 C 27.820312 71.078125 26.679688 70.792969 25.550781 70.449219 C 24.421875 70.109375 23.3125 69.710938 22.222656 69.257812 C 21.132812 68.808594 20.070312 68.304688 19.03125 67.75 C 17.988281 67.195312 16.980469 66.589844 16 65.933594 C 15.019531 65.277344 14.074219 64.578125 13.160156 63.828125 C 12.25 63.082031 11.378906 62.289062 10.542969 61.457031 C 9.710938 60.621094 8.917969 59.75 8.171875 58.839844 C 7.421875 57.925781 6.722656 56.980469 6.066406 56 C 5.410156 55.019531 4.804688 54.011719 4.25 52.96875 C 3.695312 51.929688 3.191406 50.867188 2.742188 49.777344 C 2.289062 48.6875 1.890625 47.578125 1.550781 46.449219 C 1.207031 45.320312 0.921875 44.179688 0.691406 43.023438 C 0.460938 41.867188 0.289062 40.703125 0.171875 39.527344 C 0.0585938 38.355469 0 37.179688 0 36 C 0 34.820312 0.0585938 33.644531 0.171875 32.472656 C 0.289062 31.296875 0.460938 30.132812 0.691406 28.976562 C 0.921875 27.820312 1.207031 26.679688 1.550781 25.550781 C 1.890625 24.421875 2.289062 23.3125 2.742188 22.222656 C 3.191406 21.132812 3.695312 20.070312 4.25 19.03125 C 4.804688 17.988281 5.410156 16.980469 6.066406 16 C 6.722656 15.019531 7.421875 14.074219 8.171875 13.160156 C 8.917969 12.25 9.710938 11.378906 10.542969 10.542969 C 11.378906 9.710938 12.25 8.917969 13.160156 8.171875 C 14.074219 7.421875 15.019531 6.722656 16 6.066406 C 16.980469 5.410156 17.988281 4.808594 19.03125 4.25 C 20.070312 3.695312 21.132812 3.191406 22.222656 2.742188 C 23.3125 2.289062 24.421875 1.890625 25.550781 1.550781 C 26.679688 1.207031 27.820312 0.921875 28.976562 0.691406 C 30.132812 0.460938 31.296875 0.289062 32.472656 0.171875 C 33.644531 0.0585938 34.820312 0 36 0 C 37.179688 0 38.355469 0.0585938 39.527344 0.171875 C 40.703125 0.289062 41.867188 0.460938 43.023438 0.691406 C 44.179688 0.921875 45.320312 1.207031 46.449219 1.550781 C 47.578125 1.890625 48.6875 2.289062 49.777344 2.742188 C 50.867188 3.191406 51.929688 3.695312 52.96875 4.25 C 54.011719 4.808594 55.019531 5.410156 56 6.066406 C 56.980469 6.722656 57.925781 7.421875 58.839844 8.171875 C 59.75 8.917969 60.621094 9.710938 61.457031 10.542969 C 62.289062 11.378906 63.082031 12.25 63.828125 13.160156 C 64.578125 14.074219 65.277344 15.019531 65.933594 16 C 66.589844 16.980469 67.191406 17.988281 67.75 19.03125 C 68.304688 20.070312 68.808594 21.132812 69.257812 22.222656 C 69.710938 23.3125 70.109375 24.421875 70.449219 25.550781 C 70.792969 26.679688 71.078125 27.820312 71.308594 28.976562 C 71.539062 30.132812 71.710938 31.296875 71.828125 32.472656 C 71.941406 33.644531 72 34.820312 72 36 Z M 72 36 " fill-opacity="1" fill-rule="nonzero"/><path fill="#212121" d="M 36 68.566406 C 18.027344 68.566406 3.433594 53.972656 3.433594 36 C 3.433594 18.027344 18.027344 3.433594 36 3.433594 C 53.972656 3.433594 68.566406 18.027344 68.566406 36 C 68.566406 53.972656 53.972656 68.566406 36 68.566406 Z M 36 4.238281 C 18.457031 4.238281 4.238281 18.457031 4.238281 36 C 4.238281 53.542969 18.507812 67.761719 36 67.761719 C 53.542969 67.761719 67.761719 53.492188 67.761719 36 C 67.761719 18.457031 53.542969 4.238281 36 4.238281 Z M 36 4.238281 " fill-opacity="1" fill-rule="nonzero"/><g clip-path="url(#id1)"><path fill="#000000" d="M 18.703125 54.105469 C 18.703125 54.296875 18.773438 54.460938 18.90625 54.597656 C 19.042969 54.730469 19.207031 54.800781 19.402344 54.800781 L 52.882812 54.800781 C 53.074219 54.800781 53.238281 54.730469 53.375 54.597656 C 53.511719 54.460938 53.582031 54.296875 53.582031 54.105469 L 53.582031 49.9375 C 53.582031 49.746094 53.511719 49.582031 53.375 49.449219 C 53.238281 49.3125 53.074219 49.246094 52.882812 49.246094 L 50.789062 49.246094 L 50.789062 47.160156 C 50.789062 46.96875 50.722656 46.804688 50.585938 46.671875 C 50.449219 46.535156 50.285156 46.464844 50.09375 46.464844 L 48 46.464844 L 48 37.4375 C 48 36.664062 47.925781 35.894531 47.773438 35.136719 C 47.621094 34.375 47.394531 33.636719 47.097656 32.921875 C 46.800781 32.203125 46.433594 31.523438 46.003906 30.878906 C 45.570312 30.234375 45.078125 29.640625 44.527344 29.089844 C 43.976562 28.542969 43.378906 28.054688 42.730469 27.621094 C 42.082031 27.191406 41.398438 26.828125 40.679688 26.53125 C 39.960938 26.234375 39.21875 26.011719 38.457031 25.859375 C 37.691406 25.707031 36.921875 25.632812 36.140625 25.632812 C 35.363281 25.632812 34.59375 25.707031 33.828125 25.859375 C 33.066406 26.011719 32.324219 26.234375 31.605469 26.53125 C 30.886719 26.828125 30.203125 27.191406 29.554688 27.621094 C 28.90625 28.054688 28.308594 28.542969 27.757812 29.089844 C 27.207031 29.640625 26.714844 30.234375 26.28125 30.878906 C 25.851562 31.523438 25.484375 32.203125 25.1875 32.921875 C 24.890625 33.636719 24.664062 34.375 24.511719 35.136719 C 24.359375 35.894531 24.285156 36.664062 24.285156 37.4375 L 24.285156 46.464844 L 22.191406 46.464844 C 22 46.464844 21.835938 46.535156 21.699219 46.671875 C 21.5625 46.804688 21.492188 46.96875 21.492188 47.160156 L 21.492188 49.246094 L 19.402344 49.246094 C 19.207031 49.246094 19.042969 49.3125 18.90625 49.449219 C 18.773438 49.582031 18.703125 49.746094 18.703125 49.9375 Z M 25.679688 37.4375 C 25.679688 36.753906 25.746094 36.078125 25.878906 35.40625 C 26.015625 34.734375 26.210938 34.085938 26.476562 33.453125 C 26.738281 32.820312 27.0625 32.21875 27.441406 31.652344 C 27.824219 31.082031 28.257812 30.558594 28.742188 30.074219 C 29.230469 29.589844 29.757812 29.15625 30.328125 28.777344 C 30.902344 28.398438 31.503906 28.078125 32.136719 27.816406 C 32.773438 27.554688 33.425781 27.355469 34.101562 27.222656 C 34.773438 27.089844 35.457031 27.023438 36.140625 27.023438 C 36.828125 27.023438 37.507812 27.089844 38.183594 27.222656 C 38.855469 27.355469 39.511719 27.554688 40.144531 27.816406 C 40.78125 28.078125 41.382812 28.398438 41.957031 28.777344 C 42.527344 29.15625 43.054688 29.589844 43.539062 30.074219 C 44.027344 30.558594 44.460938 31.082031 44.84375 31.652344 C 45.222656 32.21875 45.546875 32.820312 45.808594 33.453125 C 46.070312 34.085938 46.269531 34.734375 46.40625 35.40625 C 46.539062 36.078125 46.605469 36.753906 46.605469 37.4375 L 46.605469 46.464844 L 25.679688 46.464844 Z M 22.890625 47.855469 L 49.394531 47.855469 L 49.394531 49.246094 L 22.890625 49.246094 Z M 20.097656 50.632812 L 52.1875 50.632812 L 52.1875 53.410156 L 20.097656 53.410156 Z M 20.097656 50.632812 " fill-opacity="1" fill-rule="nonzero"/></g><path fill="#000000" d="M 41.347656 33.785156 C 41.285156 33.84375 41.234375 33.910156 41.199219 33.988281 C 41.121094 34.148438 41.023438 34.3125 40.933594 34.472656 L 40.886719 34.558594 C 40.546875 35.136719 40.148438 35.675781 39.691406 36.167969 C 39.652344 32.871094 38.058594 29.871094 35.625 28.527344 C 35.363281 28.378906 35.109375 28.398438 34.867188 28.578125 L 34.78125 28.640625 C 34.605469 28.796875 34.53125 28.992188 34.550781 29.222656 C 34.550781 29.496094 34.585938 29.757812 34.585938 30.035156 C 34.625 31.398438 34.375 32.710938 33.839844 33.964844 C 33.507812 34.738281 33.019531 35.394531 32.367188 35.933594 C 32.007812 35.511719 31.6875 35.0625 31.40625 34.585938 C 31.292969 34.390625 31.175781 34.183594 31.070312 33.988281 C 31.035156 33.921875 30.992188 33.859375 30.9375 33.808594 C 30.855469 33.734375 30.761719 33.6875 30.660156 33.65625 C 30.554688 33.625 30.449219 33.617188 30.339844 33.632812 C 30.234375 33.648438 30.132812 33.683594 30.042969 33.742188 C 29.949219 33.800781 29.875 33.875 29.816406 33.964844 C 28.769531 35.875 29.007812 38.660156 30.421875 41.070312 C 31.71875 43.273438 33.730469 44.765625 35.746094 45.058594 C 35.875 45.078125 36.007812 45.085938 36.140625 45.078125 C 36.261719 45.089844 36.378906 45.089844 36.496094 45.078125 C 37.648438 44.84375 38.691406 44.378906 39.632812 43.679688 C 40.570312 42.980469 41.316406 42.113281 41.867188 41.085938 C 43.265625 38.683594 43.523438 35.898438 42.476562 33.988281 C 42.421875 33.890625 42.347656 33.8125 42.257812 33.75 C 42.167969 33.6875 42.066406 33.644531 41.957031 33.625 C 41.847656 33.605469 41.742188 33.613281 41.632812 33.640625 C 41.527344 33.667969 41.429688 33.714844 41.347656 33.785156 Z M 40.648438 40.339844 C 40.199219 41.195312 39.589844 41.914062 38.820312 42.5 C 38.050781 43.082031 37.191406 43.480469 36.246094 43.6875 C 36.246094 43.6875 36.203125 43.722656 35.988281 43.6875 C 34.371094 43.460938 32.695312 42.183594 31.621094 40.363281 C 30.777344 39.003906 30.441406 37.527344 30.617188 35.9375 C 30.957031 36.433594 31.339844 36.898438 31.761719 37.328125 C 31.871094 37.4375 32.003906 37.503906 32.15625 37.527344 C 32.308594 37.550781 32.453125 37.527344 32.59375 37.453125 C 33.75 36.761719 34.589844 35.796875 35.109375 34.558594 C 35.671875 33.261719 35.957031 31.90625 35.96875 30.496094 C 36.730469 31.269531 37.316406 32.164062 37.71875 33.175781 C 38.125 34.183594 38.316406 35.234375 38.296875 36.320312 C 38.300781 36.785156 38.265625 37.25 38.191406 37.710938 C 38.140625 38.011719 38.242188 38.246094 38.5 38.414062 C 38.761719 38.582031 39.019531 38.578125 39.273438 38.402344 C 40.230469 37.75 41.03125 36.941406 41.671875 35.980469 C 41.832031 37.546875 41.492188 39 40.664062 40.339844 Z M 40.648438 40.339844 " fill-opacity="1" fill-rule="nonzero"/><path fill="#000000" d="M 45.210938 22.855469 L 45.210938 24.246094 C 45.484375 24.246094 45.757812 24.269531 46.027344 24.324219 C 46.296875 24.378906 46.558594 24.457031 46.8125 24.5625 C 47.066406 24.667969 47.308594 24.792969 47.535156 24.945312 C 47.765625 25.097656 47.976562 25.269531 48.167969 25.464844 C 48.363281 25.65625 48.539062 25.867188 48.691406 26.097656 C 48.84375 26.324219 48.972656 26.5625 49.078125 26.816406 C 49.183594 27.070312 49.261719 27.328125 49.316406 27.597656 C 49.367188 27.867188 49.394531 28.136719 49.394531 28.410156 L 50.789062 28.410156 C 50.789062 28.046875 50.753906 27.683594 50.683594 27.328125 C 50.613281 26.96875 50.507812 26.621094 50.367188 26.285156 C 50.226562 25.949219 50.054688 25.628906 49.851562 25.324219 C 49.648438 25.019531 49.414062 24.742188 49.15625 24.484375 C 48.898438 24.226562 48.613281 23.996094 48.308594 23.792969 C 48.003906 23.589844 47.683594 23.417969 47.347656 23.277344 C 47.007812 23.140625 46.660156 23.035156 46.300781 22.960938 C 45.941406 22.890625 45.578125 22.855469 45.210938 22.855469 Z M 45.210938 22.855469 " fill-opacity="1" fill-rule="nonzero"/><path fill="#000000" d="M 53.582031 28.410156 C 53.582031 27.863281 53.527344 27.320312 53.417969 26.785156 C 53.3125 26.25 53.152344 25.726562 52.945312 25.222656 C 52.734375 24.714844 52.476562 24.234375 52.171875 23.78125 C 51.863281 23.328125 51.519531 22.90625 51.128906 22.519531 C 50.742188 22.132812 50.316406 21.785156 49.859375 21.480469 C 49.402344 21.179688 48.921875 20.921875 48.414062 20.710938 C 47.90625 20.503906 47.382812 20.34375 46.84375 20.238281 C 46.304688 20.132812 45.761719 20.078125 45.210938 20.078125 L 45.210938 21.464844 C 45.667969 21.464844 46.121094 21.511719 46.570312 21.601562 C 47.019531 21.6875 47.457031 21.820312 47.878906 21.996094 C 48.304688 22.167969 48.703125 22.382812 49.085938 22.636719 C 49.464844 22.890625 49.820312 23.179688 50.144531 23.5 C 50.464844 23.824219 50.753906 24.171875 51.011719 24.554688 C 51.265625 24.933594 51.480469 25.332031 51.65625 25.753906 C 51.828125 26.175781 51.960938 26.609375 52.050781 27.054688 C 52.140625 27.503906 52.1875 27.953125 52.1875 28.410156 Z M 53.582031 28.410156 " fill-opacity="1" fill-rule="nonzero"/><g clip-path="url(#id2)"><path fill="#000000" d="M 45.210938 17.300781 L 45.210938 18.6875 C 45.851562 18.6875 46.488281 18.75 47.117188 18.875 C 47.746094 19 48.355469 19.183594 48.949219 19.429688 C 49.539062 19.671875 50.101562 19.972656 50.636719 20.328125 C 51.167969 20.683594 51.664062 21.085938 52.117188 21.535156 C 52.570312 21.988281 52.972656 22.480469 53.328125 23.007812 C 53.6875 23.539062 53.988281 24.101562 54.234375 24.691406 C 54.476562 25.28125 54.664062 25.886719 54.789062 26.515625 C 54.914062 27.140625 54.976562 27.773438 54.976562 28.410156 L 56.371094 28.410156 C 56.371094 27.679688 56.300781 26.957031 56.15625 26.242188 C 56.011719 25.527344 55.800781 24.832031 55.519531 24.160156 C 55.242188 23.484375 54.898438 22.84375 54.488281 22.238281 C 54.082031 21.632812 53.621094 21.070312 53.101562 20.554688 C 52.582031 20.039062 52.019531 19.578125 51.410156 19.171875 C 50.800781 18.765625 50.160156 18.425781 49.480469 18.144531 C 48.804688 17.867188 48.105469 17.65625 47.386719 17.511719 C 46.667969 17.371094 45.941406 17.300781 45.210938 17.300781 Z M 45.210938 17.300781 " fill-opacity="1" fill-rule="nonzero"/></g><path fill="#000000" d="M 22.890625 28.410156 C 22.890625 28.136719 22.914062 27.867188 22.96875 27.597656 C 23.023438 27.328125 23.101562 27.070312 23.207031 26.816406 C 23.3125 26.5625 23.441406 26.324219 23.59375 26.097656 C 23.746094 25.867188 23.921875 25.65625 24.113281 25.464844 C 24.308594 25.269531 24.519531 25.097656 24.75 24.945312 C 24.976562 24.792969 25.21875 24.667969 25.472656 24.5625 C 25.726562 24.457031 25.988281 24.378906 26.257812 24.324219 C 26.527344 24.269531 26.800781 24.246094 27.074219 24.246094 L 27.074219 22.855469 C 26.707031 22.855469 26.34375 22.890625 25.984375 22.960938 C 25.625 23.035156 25.277344 23.140625 24.9375 23.277344 C 24.601562 23.417969 24.277344 23.589844 23.972656 23.792969 C 23.667969 23.996094 23.386719 24.226562 23.128906 24.484375 C 22.871094 24.742188 22.636719 25.019531 22.433594 25.324219 C 22.230469 25.628906 22.058594 25.949219 21.917969 26.285156 C 21.777344 26.621094 21.671875 26.96875 21.601562 27.328125 C 21.53125 27.683594 21.492188 28.046875 21.492188 28.410156 Z M 22.890625 28.410156 " fill-opacity="1" fill-rule="nonzero"/><path fill="#000000" d="M 27.074219 20.078125 C 26.523438 20.078125 25.980469 20.132812 25.441406 20.238281 C 24.902344 20.34375 24.378906 20.503906 23.871094 20.710938 C 23.363281 20.921875 22.882812 21.179688 22.425781 21.480469 C 21.96875 21.785156 21.542969 22.132812 21.15625 22.519531 C 20.765625 22.90625 20.417969 23.328125 20.113281 23.78125 C 19.808594 24.234375 19.550781 24.714844 19.339844 25.222656 C 19.128906 25.726562 18.972656 26.25 18.863281 26.785156 C 18.757812 27.320312 18.703125 27.863281 18.703125 28.410156 L 20.097656 28.410156 C 20.097656 27.953125 20.144531 27.503906 20.234375 27.054688 C 20.324219 26.609375 20.453125 26.175781 20.628906 25.753906 C 20.804688 25.332031 21.019531 24.933594 21.273438 24.554688 C 21.527344 24.171875 21.816406 23.824219 22.140625 23.5 C 22.464844 23.179688 22.816406 22.890625 23.199219 22.636719 C 23.578125 22.382812 23.980469 22.167969 24.40625 21.996094 C 24.828125 21.820312 25.265625 21.6875 25.714844 21.601562 C 26.164062 21.511719 26.617188 21.464844 27.074219 21.464844 Z M 27.074219 20.078125 " fill-opacity="1" fill-rule="nonzero"/><g clip-path="url(#id3)"><path fill="#000000" d="M 17.308594 28.410156 C 17.308594 27.773438 17.371094 27.140625 17.496094 26.515625 C 17.621094 25.886719 17.808594 25.28125 18.050781 24.691406 C 18.296875 24.101562 18.597656 23.539062 18.953125 23.007812 C 19.3125 22.480469 19.714844 21.988281 20.167969 21.535156 C 20.621094 21.085938 21.117188 20.683594 21.648438 20.328125 C 22.183594 19.972656 22.746094 19.671875 23.335938 19.429688 C 23.929688 19.183594 24.539062 19 25.167969 18.875 C 25.796875 18.75 26.433594 18.6875 27.074219 18.6875 L 27.074219 17.300781 C 26.339844 17.300781 25.617188 17.371094 24.898438 17.511719 C 24.179688 17.65625 23.480469 17.867188 22.804688 18.144531 C 22.125 18.425781 21.484375 18.765625 20.875 19.171875 C 20.265625 19.578125 19.699219 20.039062 19.183594 20.554688 C 18.664062 21.070312 18.203125 21.632812 17.792969 22.238281 C 17.386719 22.84375 17.042969 23.484375 16.761719 24.160156 C 16.484375 24.832031 16.269531 25.527344 16.128906 26.242188 C 15.984375 26.957031 15.914062 27.679688 15.914062 28.410156 Z M 17.308594 28.410156 " fill-opacity="1" fill-rule="nonzero"/></g></svg>