<svg xmlns="http://www.w3.org/2000/svg" xmlns:xlink="http://www.w3.org/1999/xlink" width="96" zoomAndPan="magnify" viewBox="0 0 72 72" height="96" preserveAspectRatio="xMidYMid meet" version="1.0"><defs><clipPath id="id1"><path d="M 13.402344 30 L 51 30 L 51 46 L 13.402344 46 Z M 13.402344 30 " clip-rule="nonzero"/></clipPath><clipPath id="id2"><path d="M 37 22.019531 L 45 22.019531 L 45 30 L 37 30 Z M 37 22.019531 " clip-rule="nonzero"/></clipPath><clipPath id="id3"><path d="M 19 41 L 28 41 L 28 49.769531 L 19 49.769531 Z M 19 41 " clip-rule="nonzero"/></clipPath><clipPath id="id4"><path d="M 47 23 L 58.402344 23 L 58.402344 33 L 47 33 Z M 47 23 " clip-rule="nonzero"/></clipPath></defs><path fill="#fdbe35" d="M 72 36 C 72 37.179688 71.941406 38.355469 71.828125 39.527344 C 71.710938 40.703125 71.539062 41.867188 71.308594 43.023438 C 71.078125 44.179688 70.792969 45.320312 70.449219 46.449219 C 70.109375 47.578125 69.710938 48.6875 69.257812 49.777344 C 68.808594 50.867188 68.304688 51.929688 67.75 52.96875 C 67.191406 54.011719 66.589844 55.019531 65.933594 56 C 65.277344 56.980469 64.578125 57.925781 63.828125 58.839844 C 63.082031 59.75 62.289062 60.621094 61.457031 61.457031 C 60.621094 62.289062 59.75 63.082031 58.839844 63.828125 C 57.925781 64.578125 56.980469 65.277344 56 65.933594 C 55.019531 66.589844 54.011719 67.195312 52.96875 67.75 C 51.929688 68.304688 50.867188 68.808594 49.777344 69.257812 C 48.6875 69.710938 47.578125 70.109375 46.449219 70.449219 C 45.320312 70.792969 44.179688 71.078125 43.023438 71.308594 C 41.867188 71.539062 40.703125 71.710938 39.527344 71.828125 C 38.355469 71.941406 37.179688 72 36 72 C 34.820312 72 33.644531 71.941406 32.472656 71.828125 C 31.296875 71.710938 30.132812 71.539062 28.976562 71.308594 C 27.820312 71.078125 26.679688 70.792969 25.550781 70.449219 C 24.421875 70.109375 23.3125 69.710938 22.222656 69.257812 C 21.132812 68.808594 20.070312 68.304688 19.03125 67.75 C 17.988281 67.195312 16.980469 66.589844 16 65.933594 C 15.019531 65.277344 14.074219 64.578125 13.160156 63.828125 C 12.25 63.082031 11.378906 62.289062 10.542969 61.457031 C 9.710938 60.621094 8.917969 59.75 8.171875 58.839844 C 7.421875 57.925781 6.722656 56.980469 6.066406 56 C 5.410156 55.019531 4.804688 54.011719 4.25 52.96875 C 3.695312 51.929688 3.191406 50.867188 2.742188 49.777344 C 2.289062 48.6875 1.890625 47.578125 1.550781 46.449219 C 1.207031 45.320312 0.921875 44.179688 0.691406 43.023438 C 0.460938 41.867188 0.289062 40.703125 0.171875 39.527344 C 0.0585938 38.355469 0 37.179688 0 36 C 0 34.820312 0.0585938 33.644531 0.171875 32.472656 C 0.289062 31.296875 0.460938 30.132812 0.691406 28.976562 C 0.921875 27.820312 1.207031 26.679688 1.550781 25.550781 C 1.890625 24.421875 2.289062 23.3125 2.742188 22.222656 C 3.191406 21.132812 3.695312 20.070312 4.25 19.03125 C 4.804688 17.988281 5.410156 16.980469 6.066406 16 C 6.722656 15.019531 7.421875 14.074219 8.171875 13.160156 C 8.917969 12.25 9.710938 11.378906 10.542969 10.542969 C 11.378906 9.710938 12.25 8.917969 13.160156 8.171875 C 14.074219 7.421875 15.019531 6.722656 16 6.066406 C 16.980469 5.410156 17.988281 4.808594 19.03125 4.25 C 20.070312 3.695312 21.132812 3.191406 22.222656 2.742188 C 23.3125 2.289062 24.421875 1.890625 25.550781 1.550781 C 26.679688 1.207031 27.820312 0.921875 28.976562 0.691406 C 30.132812 0.460938 31.296875 0.289062 32.472656 0.171875 C 33.644531 0.0585938 34.820312 0 36 0 C 37.179688 0 38.355469 0.0585938 39.527344 0.171875 C 40.703125 0.289062 41.867188 0.460938 43.023438 0.691406 C 44.179688 0.921875 45.320312 1.207031 46.449219 1.550781 C 47.578125 1.890625 48.6875 2.289062 49.777344 2.742188 C 50.867188 3.191406 51.929688 3.695312 52.96875 4.25 C 54.011719 4.808594 55.019531 5.410156 56 6.066406 C 56.980469 6.722656 57.925781 7.421875 58.839844 8.171875 C 59.75 8.917969 60.621094 9.710938 61.457031 10.542969 C 62.289062 11.378906 63.082031 12.25 63.828125 13.160156 C 64.578125 14.074219 65.277344 15.019531 65.933594 16 C 66.589844 16.980469 67.191406 17.988281 67.75 19.03125 C 68.304688 20.070312 68.808594 21.132812 69.257812 22.222656 C 69.710938 23.3125 70.109375 24.421875 70.449219 25.550781 C 70.792969 26.679688 71.078125 27.820312 71.308594 28.976562 C 71.539062 30.132812 71.710938 31.296875 71.828125 32.472656 C 71.941406 33.644531 72 34.820312 72 36 Z M 72 36 " fill-opacity="1" fill-rule="nonzero"/><path fill="#212121" d="M 36 68.566406 C 18.027344 68.566406 3.433594 53.972656 3.433594 36 C 3.433594 18.027344 18.027344 3.433594 36 3.433594 C 53.972656 3.433594 68.566406 18.027344 68.566406 36 C 68.566406 53.972656 53.972656 68.566406 36 68.566406 Z M 36 4.238281 C 18.457031 4.238281 4.238281 18.457031 4.238281 36 C 4.238281 53.542969 18.507812 67.761719 36 67.761719 C 53.542969 67.761719 67.761719 53.492188 67.761719 36 C 67.761719 18.457031 53.542969 4.238281 36 4.238281 Z M 36 4.238281 " fill-opacity="1" fill-rule="nonzero"/><g clip-path="url(#id1)"><path fill="#000000" d="M 21.230469 30.347656 L 43.058594 30.347656 C 45.195312 30.347656 47.171875 31.214844 48.570312 32.636719 C 49.992188 34.054688 50.863281 35.996094 50.863281 38.125 C 50.863281 40.28125 49.992188 42.222656 48.570312 43.644531 C 47.171875 45.0625 45.195312 45.929688 43.058594 45.929688 L 27.375 45.929688 C 27.085938 45.929688 26.847656 45.691406 26.847656 45.402344 C 26.847656 45.375 26.847656 45.375 26.847656 45.351562 C 26.820312 44.457031 26.453125 43.644531 25.871094 43.066406 C 25.265625 42.460938 24.421875 42.09375 23.5 42.09375 C 22.601562 42.09375 21.785156 42.433594 21.179688 43.011719 C 20.574219 43.5625 20.203125 44.378906 20.152344 45.246094 L 19.625 45.21875 L 20.152344 45.246094 C 20.152344 45.535156 19.886719 45.769531 19.597656 45.746094 C 19.542969 45.746094 19.519531 45.746094 19.464844 45.71875 C 17.726562 45.324219 16.195312 44.351562 15.117188 42.984375 C 14.035156 41.644531 13.402344 39.964844 13.402344 38.125 C 13.402344 35.996094 14.273438 34.054688 15.695312 32.636719 C 17.121094 31.214844 19.070312 30.347656 21.230469 30.347656 Z M 43.058594 31.398438 L 21.230469 31.398438 C 19.359375 31.398438 17.671875 32.160156 16.433594 33.371094 C 15.222656 34.605469 14.457031 36.285156 14.457031 38.125 C 14.457031 39.726562 15.011719 41.171875 15.933594 42.328125 C 16.777344 43.378906 17.882812 44.140625 19.175781 44.5625 C 19.359375 43.667969 19.808594 42.855469 20.46875 42.25 C 21.257812 41.488281 22.3125 41.042969 23.5 41.042969 C 24.710938 41.042969 25.792969 41.515625 26.609375 42.304688 C 27.269531 42.984375 27.742188 43.878906 27.847656 44.878906 L 43.058594 44.878906 C 44.90625 44.878906 46.59375 44.117188 47.832031 42.90625 C 49.070312 41.671875 49.808594 39.992188 49.808594 38.125 C 49.808594 36.285156 49.070312 34.605469 47.832031 33.371094 C 46.59375 32.160156 44.90625 31.398438 43.058594 31.398438 Z M 43.058594 31.398438 " fill-opacity="1" fill-rule="nonzero"/></g><path fill="#000000" d="M 43.21875 28.273438 L 43.21875 30.875 C 43.21875 31.164062 42.980469 31.398438 42.691406 31.398438 L 39.394531 31.398438 C 39.105469 31.398438 38.867188 31.164062 38.867188 30.875 L 38.867188 28.273438 C 38.867188 27.984375 39.105469 27.75 39.394531 27.75 C 39.527344 27.75 39.632812 27.773438 39.710938 27.851562 C 39.894531 27.957031 40.105469 28.0625 40.34375 28.117188 C 40.554688 28.167969 40.820312 28.222656 41.054688 28.222656 C 41.292969 28.222656 41.53125 28.167969 41.769531 28.117188 C 42.003906 28.039062 42.214844 27.957031 42.425781 27.828125 L 42.691406 28.273438 L 42.425781 27.828125 C 42.664062 27.667969 43.007812 27.75 43.136719 27.984375 C 43.191406 28.089844 43.21875 28.167969 43.21875 28.273438 Z M 42.164062 30.347656 L 42.164062 29.089844 C 42.136719 29.113281 42.085938 29.113281 42.058594 29.113281 C 41.742188 29.21875 41.398438 29.273438 41.054688 29.273438 C 40.714844 29.273438 40.371094 29.21875 40.054688 29.113281 C 40 29.113281 39.976562 29.113281 39.921875 29.089844 L 39.921875 30.347656 Z M 42.164062 30.347656 " fill-opacity="1" fill-rule="nonzero"/><path fill="#000000" d="M 17.460938 37.679688 C 17.566406 37.941406 17.882812 38.074219 18.148438 37.941406 C 18.410156 37.808594 18.515625 37.496094 18.410156 37.234375 C 18.226562 36.863281 18.121094 36.445312 18.121094 36.023438 C 18.148438 35.605469 18.253906 35.183594 18.4375 34.816406 C 18.78125 34.160156 19.359375 33.710938 19.992188 33.5 C 20.625 33.292969 21.335938 33.316406 21.996094 33.632812 C 22.261719 33.738281 22.574219 33.632812 22.707031 33.371094 C 22.8125 33.109375 22.707031 32.792969 22.445312 32.6875 C 21.546875 32.242188 20.546875 32.214844 19.648438 32.503906 C 18.753906 32.820312 17.988281 33.421875 17.515625 34.316406 C 17.226562 34.839844 17.09375 35.417969 17.09375 35.996094 C 17.066406 36.574219 17.199219 37.152344 17.460938 37.679688 Z M 17.460938 37.679688 " fill-opacity="1" fill-rule="nonzero"/><g clip-path="url(#id2)"><path fill="#000000" d="M 41.054688 22.019531 C 42.058594 22.019531 42.953125 22.441406 43.613281 23.097656 C 44.273438 23.753906 44.695312 24.648438 44.695312 25.644531 C 44.695312 26.644531 44.273438 27.5625 43.613281 28.195312 C 42.953125 28.851562 42.058594 29.273438 41.054688 29.273438 C 40.054688 29.273438 39.132812 28.851562 38.5 28.195312 C 37.839844 27.5625 37.417969 26.644531 37.417969 25.644531 C 37.417969 24.648438 37.839844 23.753906 38.5 23.097656 C 39.132812 22.441406 40.054688 22.019531 41.054688 22.019531 Z M 42.875 23.832031 C 42.402344 23.359375 41.769531 23.070312 41.054688 23.070312 C 40.34375 23.070312 39.683594 23.359375 39.238281 23.832031 C 38.761719 24.304688 38.472656 24.9375 38.472656 25.644531 C 38.472656 26.355469 38.761719 26.988281 39.238281 27.460938 C 39.683594 27.933594 40.34375 28.222656 41.054688 28.222656 C 41.769531 28.222656 42.402344 27.933594 42.875 27.460938 C 43.347656 26.988281 43.640625 26.355469 43.640625 25.644531 C 43.640625 24.9375 43.347656 24.304688 42.875 23.832031 Z M 42.875 23.832031 " fill-opacity="1" fill-rule="nonzero"/></g><path fill="#000000" d="M 42.03125 25.410156 C 42.242188 25.199219 42.242188 24.859375 42.03125 24.675781 C 41.847656 24.464844 41.503906 24.464844 41.292969 24.675781 L 40.054688 25.882812 C 39.871094 26.09375 39.871094 26.433594 40.054688 26.617188 C 40.265625 26.828125 40.609375 26.828125 40.820312 26.617188 Z M 42.03125 25.410156 " fill-opacity="1" fill-rule="nonzero"/><path fill="#000000" d="M 21.707031 27.851562 L 24.34375 27.851562 C 24.632812 27.851562 24.871094 28.089844 24.871094 28.378906 L 24.871094 30.875 C 24.871094 31.164062 24.632812 31.398438 24.34375 31.398438 L 21.707031 31.398438 C 21.417969 31.398438 21.179688 31.164062 21.179688 30.875 L 21.179688 28.378906 C 21.179688 28.089844 21.417969 27.851562 21.707031 27.851562 Z M 23.816406 28.902344 L 22.234375 28.902344 L 22.234375 30.347656 L 23.816406 30.347656 Z M 23.816406 28.902344 " fill-opacity="1" fill-rule="nonzero"/><path fill="#000000" d="M 20.257812 24.492188 L 25.792969 24.492188 C 26.082031 24.492188 26.320312 24.726562 26.320312 25.015625 L 26.320312 28.378906 C 26.320312 28.667969 26.082031 28.902344 25.792969 28.902344 L 20.257812 28.902344 C 19.964844 28.902344 19.730469 28.667969 19.730469 28.378906 L 19.730469 25.015625 C 19.730469 24.726562 19.964844 24.492188 20.257812 24.492188 Z M 25.265625 25.542969 L 20.785156 25.542969 L 20.785156 27.851562 L 25.265625 27.851562 Z M 25.265625 25.542969 " fill-opacity="1" fill-rule="nonzero"/><g clip-path="url(#id3)"><path fill="#000000" d="M 23.5 41.042969 C 24.710938 41.042969 25.792969 41.515625 26.609375 42.304688 C 27.402344 43.117188 27.902344 44.195312 27.902344 45.402344 C 27.902344 46.613281 27.402344 47.714844 26.609375 48.503906 C 25.792969 49.292969 24.710938 49.765625 23.5 49.765625 C 22.285156 49.765625 21.179688 49.292969 20.386719 48.503906 C 19.597656 47.714844 19.097656 46.613281 19.097656 45.402344 C 19.097656 44.195312 19.597656 43.117188 20.386719 42.304688 C 21.179688 41.515625 22.285156 41.042969 23.5 41.042969 Z M 25.871094 43.066406 C 25.265625 42.460938 24.421875 42.09375 23.5 42.09375 C 22.574219 42.09375 21.734375 42.460938 21.125 43.066406 C 20.519531 43.644531 20.152344 44.484375 20.152344 45.402344 C 20.152344 46.324219 20.519531 47.164062 21.125 47.742188 C 21.734375 48.34375 22.574219 48.714844 23.5 48.714844 C 24.421875 48.714844 25.265625 48.34375 25.871094 47.742188 C 26.453125 47.164062 26.847656 46.324219 26.847656 45.402344 C 26.847656 44.484375 26.453125 43.644531 25.871094 43.066406 Z M 25.871094 43.066406 " fill-opacity="1" fill-rule="nonzero"/></g><path fill="#000000" d="M 23.5 42.960938 C 24.183594 42.960938 24.789062 43.222656 25.238281 43.667969 C 25.6875 44.117188 25.949219 44.71875 25.949219 45.402344 C 25.949219 46.085938 25.6875 46.691406 25.238281 47.136719 C 24.789062 47.582031 24.183594 47.847656 23.5 47.847656 C 22.8125 47.847656 22.207031 47.582031 21.757812 47.136719 C 21.3125 46.691406 21.019531 46.085938 21.019531 45.402344 C 21.019531 44.71875 21.3125 44.117188 21.757812 43.667969 C 22.207031 43.222656 22.8125 42.960938 23.5 42.960938 Z M 24.5 44.40625 C 24.238281 44.167969 23.894531 44.011719 23.5 44.011719 C 23.101562 44.011719 22.761719 44.167969 22.496094 44.40625 C 22.234375 44.667969 22.074219 45.007812 22.074219 45.402344 C 22.074219 45.796875 22.234375 46.140625 22.496094 46.402344 C 22.761719 46.636719 23.101562 46.796875 23.5 46.796875 C 23.894531 46.796875 24.238281 46.636719 24.5 46.402344 C 24.738281 46.140625 24.894531 45.796875 24.894531 45.402344 C 24.894531 45.007812 24.738281 44.667969 24.5 44.40625 Z M 24.5 44.40625 " fill-opacity="1" fill-rule="nonzero"/><g clip-path="url(#id4)"><path fill="#000000" d="M 47.09375 32.136719 C 46.933594 32.371094 47.015625 32.6875 47.25 32.84375 C 47.488281 33.003906 47.804688 32.949219 47.960938 32.714844 L 53.816406 24.148438 L 57.875 24.148438 C 58.164062 24.148438 58.402344 23.914062 58.402344 23.625 C 58.402344 23.335938 58.164062 23.097656 57.875 23.097656 L 53.523438 23.097656 C 53.367188 23.097656 53.183594 23.175781 53.078125 23.335938 L 53.523438 23.625 L 53.101562 23.335938 Z M 47.09375 32.136719 " fill-opacity="1" fill-rule="nonzero"/></g></svg>