<svg xmlns="http://www.w3.org/2000/svg" xmlns:xlink="http://www.w3.org/1999/xlink" width="96" zoomAndPan="magnify" viewBox="0 0 72 72" height="96" preserveAspectRatio="xMidYMid meet" version="1.0"><defs><clipPath id="id1"><path d="M 40.652344 42.644531 L 52.15625 42.644531 L 52.15625 54.332031 L 40.652344 54.332031 Z M 40.652344 42.644531 " clip-rule="nonzero"/></clipPath><clipPath id="id2"><path d="M 23 17.019531 L 49 17.019531 L 49 36 L 23 36 Z M 23 17.019531 " clip-rule="nonzero"/></clipPath><clipPath id="id3"><path d="M 19.914062 46 L 24 46 L 24 53 L 19.914062 53 Z M 19.914062 46 " clip-rule="nonzero"/></clipPath><clipPath id="id4"><path d="M 24.386719 50.121094 L 27.855469 50.121094 L 27.855469 55.269531 L 24.386719 55.269531 Z M 24.386719 50.121094 " clip-rule="nonzero"/></clipPath></defs><path fill="#fdbe35" d="M 72 36 C 72 37.179688 71.941406 38.355469 71.828125 39.527344 C 71.710938 40.703125 71.539062 41.867188 71.308594 43.023438 C 71.078125 44.179688 70.792969 45.320312 70.449219 46.449219 C 70.109375 47.578125 69.710938 48.6875 69.257812 49.777344 C 68.808594 50.867188 68.304688 51.929688 67.75 52.96875 C 67.191406 54.011719 66.589844 55.019531 65.933594 56 C 65.277344 56.980469 64.578125 57.925781 63.828125 58.839844 C 63.082031 59.75 62.289062 60.621094 61.457031 61.457031 C 60.621094 62.289062 59.75 63.082031 58.839844 63.828125 C 57.925781 64.578125 56.980469 65.277344 56 65.933594 C 55.019531 66.589844 54.011719 67.195312 52.96875 67.75 C 51.929688 68.304688 50.867188 68.808594 49.777344 69.257812 C 48.6875 69.710938 47.578125 70.109375 46.449219 70.449219 C 45.320312 70.792969 44.179688 71.078125 43.023438 71.308594 C 41.867188 71.539062 40.703125 71.710938 39.527344 71.828125 C 38.355469 71.941406 37.179688 72 36 72 C 34.820312 72 33.644531 71.941406 32.472656 71.828125 C 31.296875 71.710938 30.132812 71.539062 28.976562 71.308594 C 27.820312 71.078125 26.679688 70.792969 25.550781 70.449219 C 24.421875 70.109375 23.3125 69.710938 22.222656 69.257812 C 21.132812 68.808594 20.070312 68.304688 19.03125 67.75 C 17.988281 67.191406 16.980469 66.589844 16 65.933594 C 15.019531 65.277344 14.074219 64.578125 13.160156 63.828125 C 12.25 63.082031 11.378906 62.289062 10.542969 61.457031 C 9.710938 60.621094 8.917969 59.75 8.171875 58.839844 C 7.421875 57.925781 6.722656 56.980469 6.066406 56 C 5.410156 55.019531 4.804688 54.011719 4.25 52.96875 C 3.695312 51.929688 3.191406 50.867188 2.742188 49.777344 C 2.289062 48.6875 1.890625 47.578125 1.550781 46.449219 C 1.207031 45.320312 0.921875 44.179688 0.691406 43.023438 C 0.460938 41.867188 0.289062 40.703125 0.171875 39.527344 C 0.0585938 38.355469 0 37.179688 0 36 C 0 34.820312 0.0585938 33.644531 0.171875 32.472656 C 0.289062 31.296875 0.460938 30.132812 0.691406 28.976562 C 0.921875 27.820312 1.207031 26.679688 1.550781 25.550781 C 1.890625 24.421875 2.289062 23.3125 2.742188 22.222656 C 3.191406 21.132812 3.695312 20.070312 4.25 19.03125 C 4.804688 17.988281 5.410156 16.980469 6.066406 16 C 6.722656 15.019531 7.421875 14.074219 8.171875 13.160156 C 8.917969 12.25 9.710938 11.378906 10.542969 10.542969 C 11.378906 9.710938 12.25 8.917969 13.160156 8.171875 C 14.074219 7.421875 15.019531 6.722656 16 6.066406 C 16.980469 5.410156 17.988281 4.804688 19.03125 4.25 C 20.070312 3.695312 21.132812 3.191406 22.222656 2.742188 C 23.3125 2.289062 24.421875 1.890625 25.550781 1.550781 C 26.679688 1.207031 27.820312 0.921875 28.976562 0.691406 C 30.132812 0.460938 31.296875 0.289062 32.472656 0.171875 C 33.644531 0.0585938 34.820312 0 36 0 C 37.179688 0 38.355469 0.0585938 39.527344 0.171875 C 40.703125 0.289062 41.867188 0.460938 43.023438 0.691406 C 44.179688 0.921875 45.320312 1.207031 46.449219 1.550781 C 47.578125 1.890625 48.6875 2.289062 49.777344 2.742188 C 50.867188 3.191406 51.929688 3.695312 52.96875 4.25 C 54.011719 4.804688 55.019531 5.410156 56 6.066406 C 56.980469 6.722656 57.925781 7.421875 58.839844 8.171875 C 59.75 8.917969 60.621094 9.710938 61.457031 10.542969 C 62.289062 11.378906 63.082031 12.25 63.828125 13.160156 C 64.578125 14.074219 65.277344 15.019531 65.933594 16 C 66.589844 16.980469 67.191406 17.988281 67.75 19.03125 C 68.304688 20.070312 68.808594 21.132812 69.257812 22.222656 C 69.710938 23.3125 70.109375 24.421875 70.449219 25.550781 C 70.792969 26.679688 71.078125 27.820312 71.308594 28.976562 C 71.539062 30.132812 71.710938 31.296875 71.828125 32.472656 C 71.941406 33.644531 72 34.820312 72 36 Z M 72 36 " fill-opacity="1" fill-rule="nonzero"/><path fill="#212121" d="M 36 68.566406 C 18.027344 68.566406 3.433594 53.972656 3.433594 36 C 3.433594 18.027344 18.027344 3.433594 36 3.433594 C 53.972656 3.433594 68.566406 18.027344 68.566406 36 C 68.566406 53.972656 53.972656 68.566406 36 68.566406 Z M 36 4.238281 C 18.457031 4.238281 4.238281 18.457031 4.238281 36 C 4.238281 53.542969 18.507812 67.761719 36 67.761719 C 53.542969 67.761719 67.761719 53.492188 67.761719 36 C 67.761719 18.457031 53.542969 4.238281 36 4.238281 Z M 36 4.238281 " fill-opacity="1" fill-rule="nonzero"/><path fill="#000000" d="M 47.855469 46.179688 L 44.957031 46.179688 C 44.761719 46.179688 44.601562 46.339844 44.601562 46.535156 L 44.601562 54.132812 C 44.601562 54.242188 44.691406 54.328125 44.796875 54.328125 L 48.011719 54.328125 C 48.121094 54.328125 48.210938 54.242188 48.210938 54.132812 L 48.210938 46.535156 C 48.210938 46.339844 48.050781 46.179688 47.855469 46.179688 " fill-opacity="1" fill-rule="nonzero"/><g clip-path="url(#id1)"><path fill="#000000" d="M 51.070312 42.972656 C 51.054688 42.789062 50.902344 42.652344 50.71875 42.652344 L 48.578125 42.652344 C 48.574219 42.652344 48.570312 42.652344 48.5625 42.652344 C 48.558594 42.652344 48.554688 42.652344 48.546875 42.652344 L 44.253906 42.652344 C 44.25 42.652344 44.25 42.652344 44.246094 42.652344 C 44.246094 42.652344 44.246094 42.652344 44.242188 42.652344 L 42.09375 42.652344 C 41.910156 42.652344 41.757812 42.789062 41.738281 42.972656 L 40.65625 54.113281 C 40.644531 54.230469 40.734375 54.328125 40.851562 54.328125 L 43.695312 54.328125 C 43.804688 54.328125 43.894531 54.242188 43.894531 54.132812 L 43.894531 46.535156 C 43.894531 45.945312 44.371094 45.464844 44.957031 45.464844 L 47.855469 45.464844 C 48.441406 45.464844 48.917969 45.945312 48.917969 46.535156 L 48.917969 54.132812 C 48.917969 54.242188 49.007812 54.328125 49.113281 54.328125 L 51.960938 54.328125 C 52.078125 54.328125 52.167969 54.230469 52.15625 54.113281 L 51.070312 42.972656 " fill-opacity="1" fill-rule="nonzero"/></g><path fill="#000000" d="M 22.914062 38.007812 C 22.914062 37.808594 23.070312 37.648438 23.265625 37.648438 C 23.460938 37.648438 23.621094 37.808594 23.621094 38.007812 L 23.621094 40.960938 C 23.621094 41.160156 23.460938 41.316406 23.265625 41.316406 C 23.070312 41.316406 22.914062 41.160156 22.914062 40.960938 Z M 22.207031 45.027344 L 27.726562 45.027344 C 28.144531 45.027344 28.488281 44.683594 28.488281 44.261719 L 28.488281 36.609375 C 28.488281 36.1875 28.144531 35.84375 27.726562 35.84375 L 22.207031 35.84375 C 21.789062 35.84375 21.445312 36.1875 21.445312 36.609375 L 21.445312 44.261719 C 21.445312 44.683594 21.789062 45.027344 22.207031 45.027344 " fill-opacity="1" fill-rule="nonzero"/><g clip-path="url(#id2)"><path fill="#000000" d="M 44.601562 30.402344 C 44.601562 30.511719 44.691406 30.597656 44.796875 30.597656 L 48.011719 30.597656 C 48.121094 30.597656 48.210938 30.511719 48.210938 30.402344 L 48.210938 29.746094 C 48.210938 22.789062 42.644531 17.058594 35.722656 17.039062 C 28.800781 17.019531 23.164062 22.671875 23.164062 29.625 L 23.164062 34.933594 C 23.164062 35.042969 23.25 35.132812 23.359375 35.132812 L 26.574219 35.132812 C 26.683594 35.132812 26.769531 35.042969 26.769531 34.933594 L 26.769531 30.304688 C 26.769531 25.34375 30.796875 21.3125 35.738281 21.339844 C 40.65625 21.371094 44.601562 25.457031 44.601562 30.402344 " fill-opacity="1" fill-rule="nonzero"/></g><path fill="#000000" d="M 44.691406 32.421875 C 44.886719 32.441406 45.027344 32.617188 45.007812 32.8125 L 44.648438 36.503906 C 44.632812 36.6875 44.476562 36.824219 44.296875 36.824219 C 44.285156 36.824219 44.273438 36.824219 44.261719 36.824219 C 44.066406 36.804688 43.925781 36.628906 43.945312 36.433594 L 44.304688 32.742188 C 44.324219 32.546875 44.496094 32.40625 44.691406 32.421875 Z M 44.246094 31.3125 C 44.246094 31.3125 44.242188 31.3125 44.242188 31.3125 L 43.527344 31.3125 C 43.34375 31.3125 43.191406 31.449219 43.171875 31.632812 L 42.453125 39.015625 C 42.441406 39.117188 42.476562 39.214844 42.542969 39.289062 C 42.613281 39.367188 42.703125 39.40625 42.804688 39.40625 L 44.234375 39.40625 C 44.238281 39.40625 44.242188 39.40625 44.246094 39.40625 C 44.253906 39.40625 44.257812 39.40625 44.261719 39.40625 L 48.5625 39.40625 C 48.5625 39.40625 48.5625 39.40625 48.566406 39.40625 L 50.003906 39.40625 C 50.105469 39.40625 50.199219 39.367188 50.269531 39.289062 C 50.335938 39.214844 50.367188 39.117188 50.359375 39.015625 L 49.640625 31.632812 C 49.621094 31.449219 49.46875 31.3125 49.285156 31.3125 L 48.566406 31.3125 C 48.566406 31.3125 48.5625 31.3125 48.5625 31.3125 L 44.253906 31.3125 C 44.253906 31.3125 44.25 31.3125 44.246094 31.3125 " fill-opacity="1" fill-rule="nonzero"/><path fill="#000000" d="M 44.796875 40.121094 C 44.691406 40.121094 44.601562 40.210938 44.601562 40.316406 L 44.601562 41.742188 C 44.601562 41.851562 44.691406 41.9375 44.796875 41.9375 L 48.011719 41.9375 C 48.121094 41.9375 48.210938 41.851562 48.210938 41.742188 L 48.210938 40.316406 C 48.210938 40.210938 48.121094 40.121094 48.011719 40.121094 L 44.796875 40.121094 " fill-opacity="1" fill-rule="nonzero"/><g clip-path="url(#id3)"><path fill="#000000" d="M 22.808594 46.695312 C 22.488281 46.695312 22.230469 46.957031 22.230469 47.28125 L 22.230469 49.925781 C 22.230469 50.882812 21.453125 51.664062 20.5 51.664062 C 20.179688 51.664062 19.917969 51.925781 19.917969 52.246094 C 19.917969 52.566406 20.179688 52.828125 20.5 52.828125 C 22.09375 52.828125 23.390625 51.527344 23.390625 49.925781 L 23.390625 47.28125 C 23.390625 46.957031 23.128906 46.695312 22.808594 46.695312 " fill-opacity="1" fill-rule="nonzero"/></g><path fill="#000000" d="M 29.433594 51.664062 C 28.480469 51.664062 27.707031 50.882812 27.707031 49.925781 L 27.707031 47.28125 C 27.707031 46.957031 27.445312 46.695312 27.125 46.695312 C 26.804688 46.695312 26.542969 46.957031 26.542969 47.28125 L 26.542969 49.925781 C 26.542969 51.527344 27.839844 52.828125 29.433594 52.828125 C 29.753906 52.828125 30.015625 52.566406 30.015625 52.246094 C 30.015625 51.925781 29.753906 51.664062 29.433594 51.664062 " fill-opacity="1" fill-rule="nonzero"/><g clip-path="url(#id4)"><path fill="#000000" d="M 27.277344 54.101562 C 26.324219 54.101562 25.546875 53.324219 25.546875 52.363281 L 25.546875 50.707031 C 25.546875 50.386719 25.285156 50.125 24.96875 50.125 C 24.648438 50.125 24.386719 50.386719 24.386719 50.707031 L 24.386719 52.363281 C 24.386719 53.964844 25.683594 55.269531 27.277344 55.269531 C 27.597656 55.269531 27.855469 55.007812 27.855469 54.6875 C 27.855469 54.363281 27.597656 54.101562 27.277344 54.101562 " fill-opacity="1" fill-rule="nonzero"/></g></svg>