<svg xmlns="http://www.w3.org/2000/svg" xmlns:xlink="http://www.w3.org/1999/xlink" width="96" zoomAndPan="magnify" viewBox="0 0 72 72" height="96" preserveAspectRatio="xMidYMid meet" version="1.0"><defs><clipPath id="id1"><path d="M 19.207031 19.207031 L 52.957031 19.207031 L 52.957031 52.957031 L 19.207031 52.957031 Z M 19.207031 19.207031 " clip-rule="nonzero"/></clipPath><clipPath id="id2"><path d="M 31 31 L 52.957031 31 L 52.957031 52.957031 L 31 52.957031 Z M 31 31 " clip-rule="nonzero"/></clipPath></defs><path fill="#fdbe35" d="M 72 36 C 72 37.179688 71.941406 38.355469 71.828125 39.527344 C 71.710938 40.703125 71.539062 41.867188 71.308594 43.023438 C 71.078125 44.179688 70.792969 45.320312 70.449219 46.449219 C 70.109375 47.578125 69.710938 48.6875 69.257812 49.777344 C 68.808594 50.867188 68.304688 51.929688 67.75 52.96875 C 67.191406 54.011719 66.589844 55.019531 65.933594 56 C 65.277344 56.980469 64.578125 57.925781 63.828125 58.839844 C 63.082031 59.75 62.289062 60.621094 61.457031 61.457031 C 60.621094 62.289062 59.75 63.082031 58.839844 63.828125 C 57.925781 64.578125 56.980469 65.277344 56 65.933594 C 55.019531 66.589844 54.011719 67.195312 52.96875 67.75 C 51.929688 68.304688 50.867188 68.808594 49.777344 69.257812 C 48.6875 69.710938 47.578125 70.109375 46.449219 70.449219 C 45.320312 70.792969 44.179688 71.078125 43.023438 71.308594 C 41.867188 71.539062 40.703125 71.710938 39.527344 71.828125 C 38.355469 71.941406 37.179688 72 36 72 C 34.820312 72 33.644531 71.941406 32.472656 71.828125 C 31.296875 71.710938 30.132812 71.539062 28.976562 71.308594 C 27.820312 71.078125 26.679688 70.792969 25.550781 70.449219 C 24.421875 70.109375 23.3125 69.710938 22.222656 69.257812 C 21.132812 68.808594 20.070312 68.304688 19.03125 67.75 C 17.988281 67.191406 16.980469 66.589844 16 65.933594 C 15.019531 65.277344 14.074219 64.578125 13.160156 63.828125 C 12.25 63.082031 11.378906 62.289062 10.542969 61.457031 C 9.710938 60.621094 8.917969 59.75 8.171875 58.839844 C 7.421875 57.925781 6.722656 56.980469 6.066406 56 C 5.410156 55.019531 4.804688 54.011719 4.25 52.96875 C 3.695312 51.929688 3.191406 50.867188 2.742188 49.777344 C 2.289062 48.6875 1.890625 47.578125 1.550781 46.449219 C 1.207031 45.320312 0.921875 44.179688 0.691406 43.023438 C 0.460938 41.867188 0.289062 40.703125 0.171875 39.527344 C 0.0585938 38.355469 0 37.179688 0 36 C 0 34.820312 0.0585938 33.644531 0.171875 32.472656 C 0.289062 31.296875 0.460938 30.132812 0.691406 28.976562 C 0.921875 27.820312 1.207031 26.679688 1.550781 25.550781 C 1.890625 24.421875 2.289062 23.3125 2.742188 22.222656 C 3.191406 21.132812 3.695312 20.070312 4.25 19.03125 C 4.804688 17.988281 5.410156 16.980469 6.066406 16 C 6.722656 15.019531 7.421875 14.074219 8.171875 13.160156 C 8.917969 12.25 9.710938 11.378906 10.542969 10.542969 C 11.378906 9.710938 12.25 8.917969 13.160156 8.171875 C 14.074219 7.421875 15.019531 6.722656 16 6.066406 C 16.980469 5.410156 17.988281 4.804688 19.03125 4.25 C 20.070312 3.695312 21.132812 3.191406 22.222656 2.742188 C 23.3125 2.289062 24.421875 1.890625 25.550781 1.550781 C 26.679688 1.207031 27.820312 0.921875 28.976562 0.691406 C 30.132812 0.460938 31.296875 0.289062 32.472656 0.171875 C 33.644531 0.0585938 34.820312 0 36 0 C 37.179688 0 38.355469 0.0585938 39.527344 0.171875 C 40.703125 0.289062 41.867188 0.460938 43.023438 0.691406 C 44.179688 0.921875 45.320312 1.207031 46.449219 1.550781 C 47.578125 1.890625 48.6875 2.289062 49.777344 2.742188 C 50.867188 3.191406 51.929688 3.695312 52.96875 4.25 C 54.011719 4.804688 55.019531 5.410156 56 6.066406 C 56.980469 6.722656 57.925781 7.421875 58.839844 8.171875 C 59.75 8.917969 60.621094 9.710938 61.457031 10.542969 C 62.289062 11.378906 63.082031 12.25 63.828125 13.160156 C 64.578125 14.074219 65.277344 15.019531 65.933594 16 C 66.589844 16.980469 67.191406 17.988281 67.75 19.03125 C 68.304688 20.070312 68.808594 21.132812 69.257812 22.222656 C 69.710938 23.3125 70.109375 24.421875 70.449219 25.550781 C 70.792969 26.679688 71.078125 27.820312 71.308594 28.976562 C 71.539062 30.132812 71.710938 31.296875 71.828125 32.472656 C 71.941406 33.644531 72 34.820312 72 36 Z M 72 36 " fill-opacity="1" fill-rule="nonzero"/><path fill="#212121" d="M 36 68.566406 C 18.027344 68.566406 3.433594 53.972656 3.433594 36 C 3.433594 18.027344 18.027344 3.433594 36 3.433594 C 53.972656 3.433594 68.566406 18.027344 68.566406 36 C 68.566406 53.972656 53.972656 68.566406 36 68.566406 Z M 36 4.238281 C 18.457031 4.238281 4.238281 18.457031 4.238281 36 C 4.238281 53.542969 18.507812 67.761719 36 67.761719 C 53.542969 67.761719 67.761719 53.492188 67.761719 36 C 67.761719 18.457031 53.542969 4.238281 36 4.238281 Z M 36 4.238281 " fill-opacity="1" fill-rule="nonzero"/><g clip-path="url(#id1)"><path fill="#000000" d="M 44.519531 25.535156 L 44.519531 21.316406 L 51.902344 21.316406 L 51.902344 25.535156 Z M 36.082031 25.535156 L 36.082031 21.316406 L 43.464844 21.316406 L 43.464844 25.535156 Z M 31.863281 25.535156 C 28.375 25.535156 25.535156 28.375 25.535156 31.863281 L 25.535156 35.027344 L 21.316406 35.027344 L 21.316406 31.863281 C 21.316406 26.046875 26.046875 21.316406 31.863281 21.316406 L 35.027344 21.316406 L 35.027344 25.535156 Z M 25.535156 43.464844 L 21.316406 43.464844 L 21.316406 36.082031 L 25.535156 36.082031 Z M 25.535156 51.902344 L 21.316406 51.902344 L 21.316406 44.519531 L 25.535156 44.519531 Z M 51.902344 19.207031 L 51.902344 20.261719 L 44.519531 20.261719 L 44.519531 19.207031 L 43.464844 19.207031 L 43.464844 20.261719 L 36.082031 20.261719 L 36.082031 19.207031 L 35.027344 19.207031 L 35.027344 20.261719 L 31.863281 20.261719 C 25.464844 20.261719 20.261719 25.464844 20.261719 31.863281 L 20.261719 35.027344 L 19.207031 35.027344 L 19.207031 36.082031 L 20.261719 36.082031 L 20.261719 43.464844 L 19.207031 43.464844 L 19.207031 44.519531 L 20.261719 44.519531 L 20.261719 51.902344 L 19.207031 51.902344 L 19.207031 52.957031 L 27.644531 52.957031 L 27.644531 51.902344 L 26.589844 51.902344 L 26.589844 44.519531 L 27.644531 44.519531 L 27.644531 43.464844 L 26.589844 43.464844 L 26.589844 36.082031 L 27.644531 36.082031 L 27.644531 35.027344 L 26.589844 35.027344 L 26.589844 31.863281 C 26.589844 28.957031 28.957031 26.589844 31.863281 26.589844 L 35.027344 26.589844 L 35.027344 27.644531 L 36.082031 27.644531 L 36.082031 26.589844 L 43.464844 26.589844 L 43.464844 27.644531 L 44.519531 27.644531 L 44.519531 26.589844 L 51.902344 26.589844 L 51.902344 27.644531 L 52.957031 27.644531 L 52.957031 19.207031 L 51.902344 19.207031 " fill-opacity="1" fill-rule="nonzero"/></g><g clip-path="url(#id2)"><path fill="#000000" d="M 44.519531 38.191406 L 44.519531 33.972656 L 51.902344 33.972656 L 51.902344 38.191406 Z M 40.300781 38.191406 C 39.136719 38.191406 38.191406 39.136719 38.191406 40.300781 L 38.191406 43.464844 L 33.972656 43.464844 L 33.972656 40.300781 C 33.972656 36.8125 36.8125 33.972656 40.300781 33.972656 L 43.464844 33.972656 L 43.464844 38.191406 Z M 38.191406 51.902344 L 33.972656 51.902344 L 33.972656 44.519531 L 38.191406 44.519531 Z M 51.902344 32.917969 L 44.519531 32.917969 L 44.519531 31.863281 L 43.464844 31.863281 L 43.464844 32.917969 L 40.300781 32.917969 C 36.230469 32.917969 32.917969 36.230469 32.917969 40.300781 L 32.917969 43.464844 L 31.863281 43.464844 L 31.863281 44.519531 L 32.917969 44.519531 L 32.917969 51.902344 L 31.863281 51.902344 L 31.863281 52.957031 L 40.300781 52.957031 L 40.300781 51.902344 L 39.246094 51.902344 L 39.246094 44.519531 L 40.300781 44.519531 L 40.300781 43.464844 L 39.246094 43.464844 L 39.246094 40.300781 C 39.246094 39.71875 39.71875 39.246094 40.300781 39.246094 L 43.464844 39.246094 L 43.464844 40.300781 L 44.519531 40.300781 L 44.519531 39.246094 L 51.902344 39.246094 L 51.902344 40.300781 L 52.957031 40.300781 L 52.957031 31.863281 L 51.902344 31.863281 L 51.902344 32.917969 " fill-opacity="1" fill-rule="nonzero"/></g></svg>