<svg xmlns="http://www.w3.org/2000/svg" xmlns:xlink="http://www.w3.org/1999/xlink" width="384" zoomAndPan="magnify" viewBox="0 0 288 72" height="96" preserveAspectRatio="xMidYMid meet" version="1.0"><defs><g/><clipPath id="id1"><path d="M 0 7.199219 L 77 7.199219 L 77 60 L 0 60 Z M 0 7.199219 " clip-rule="nonzero"/></clipPath><clipPath id="id2"><path d="M 24 13 L 100.5 13 L 100.5 64.949219 L 24 64.949219 Z M 24 13 " clip-rule="nonzero"/></clipPath></defs><g clip-path="url(#id1)"><path fill="#fdbe35" d="M 75.246094 25.550781 C 74.96875 24.777344 74.667969 23.992188 74.3125 23.21875 C 74.164062 22.894531 74 22.558594 73.839844 22.222656 C 73.507812 21.566406 73.125 20.882812 72.699219 20.191406 C 72.425781 19.738281 72.113281 19.289062 71.789062 18.828125 C 71.734375 18.746094 71.664062 18.652344 71.605469 18.574219 C 71.546875 18.492188 71.480469 18.398438 71.421875 18.316406 C 71.363281 18.238281 71.296875 18.15625 71.226562 18.0625 C 70.640625 17.3125 69.992188 16.5625 69.257812 15.824219 C 69.175781 15.742188 69.097656 15.660156 69.015625 15.578125 C 68.53125 15.105469 68.023438 14.644531 67.472656 14.195312 C 67.378906 14.125 67.289062 14.042969 67.195312 13.972656 C 66.644531 13.523438 66.042969 13.085938 65.421875 12.667969 C 64.085938 11.777344 62.589844 10.945312 60.90625 10.242188 C 60.195312 9.929688 59.433594 9.652344 58.640625 9.386719 C 58.234375 9.25 57.832031 9.121094 57.40625 9.007812 C 53.042969 7.746094 48.390625 7.539062 43.5625 8.394531 C 31.367188 10.554688 20.75 18.226562 13.992188 24.292969 C 6.734375 30.796875 2.347656 36.746094 2.164062 37 L 0.929688 38.6875 L 2.460938 40.109375 C 3.117188 40.707031 13.96875 50.679688 27.601562 56.882812 C 29.339844 57.679688 31.125 58.410156 32.945312 59.042969 C 30.976562 57.355469 29.214844 55.347656 27.707031 53.058594 C 27.292969 52.445312 26.898438 51.789062 26.53125 51.128906 C 25.300781 50.496094 24.101562 49.835938 22.9375 49.164062 C 15.765625 45.03125 9.960938 40.375 7.265625 38.085938 C 9.949219 34.804688 16.488281 27.375 25.277344 21.355469 C 25.933594 20.90625 26.589844 20.46875 27.269531 20.039062 C 27.476562 19.914062 27.671875 19.785156 27.878906 19.660156 C 28.292969 19.402344 28.707031 19.148438 29.121094 18.90625 C 29.332031 18.78125 29.550781 18.664062 29.757812 18.539062 C 30.183594 18.296875 30.609375 18.0625 31.035156 17.832031 C 32.542969 17.023438 34.097656 16.273438 35.699219 15.601562 C 36.160156 15.417969 36.609375 15.234375 37.082031 15.058594 C 37.3125 14.96875 37.542969 14.886719 37.773438 14.804688 C 37.957031 14.738281 38.140625 14.667969 38.324219 14.609375 C 38.417969 14.574219 38.507812 14.550781 38.601562 14.515625 C 38.625 14.515625 38.636719 14.503906 38.648438 14.503906 C 38.660156 14.503906 38.667969 14.492188 38.691406 14.492188 C 38.933594 14.414062 39.164062 14.332031 39.40625 14.261719 C 39.535156 14.214844 39.660156 14.183594 39.785156 14.148438 C 39.890625 14.113281 39.984375 14.089844 40.085938 14.054688 C 40.398438 13.960938 40.707031 13.871094 41.007812 13.789062 C 41.054688 13.777344 41.101562 13.765625 41.144531 13.753906 C 41.226562 13.730469 41.296875 13.71875 41.375 13.695312 C 41.550781 13.652344 41.710938 13.605469 41.882812 13.570312 C 42.007812 13.535156 42.125 13.511719 42.25 13.476562 C 42.296875 13.464844 42.355469 13.453125 42.414062 13.441406 C 42.515625 13.417969 42.621094 13.394531 42.710938 13.375 C 42.828125 13.351562 42.941406 13.316406 43.058594 13.304688 C 43.148438 13.28125 43.253906 13.257812 43.34375 13.246094 C 43.355469 13.246094 43.378906 13.234375 43.390625 13.234375 C 43.550781 13.199219 43.714844 13.164062 43.875 13.140625 C 44.035156 13.109375 44.199219 13.085938 44.359375 13.050781 L 44.371094 13.050781 C 44.554688 13.015625 44.726562 12.992188 44.910156 12.957031 C 44.96875 12.945312 45.027344 12.933594 45.085938 12.933594 C 46.511719 12.714844 47.929688 12.609375 49.3125 12.609375 C 51.660156 12.609375 53.941406 12.921875 56.117188 13.558594 C 56.324219 13.617188 56.53125 13.683594 56.726562 13.742188 C 56.921875 13.800781 57.117188 13.871094 57.304688 13.929688 C 57.324219 13.9375 57.347656 13.9375 57.371094 13.949219 C 57.488281 13.984375 57.589844 14.019531 57.695312 14.066406 C 57.71875 14.078125 57.742188 14.078125 57.765625 14.089844 C 57.878906 14.125 57.984375 14.160156 58.085938 14.207031 C 58.132812 14.214844 58.167969 14.238281 58.214844 14.25 C 58.222656 14.261719 58.246094 14.261719 58.257812 14.273438 C 58.375 14.320312 58.476562 14.355469 58.59375 14.402344 C 58.71875 14.449219 58.847656 14.503906 58.972656 14.550781 C 59.066406 14.585938 59.144531 14.621094 59.226562 14.65625 C 59.515625 14.78125 59.800781 14.910156 60.078125 15.046875 C 60.160156 15.082031 60.25 15.128906 60.332031 15.175781 C 60.414062 15.210938 60.492188 15.246094 60.5625 15.292969 C 60.621094 15.3125 60.675781 15.347656 60.734375 15.382812 C 60.792969 15.417969 60.851562 15.441406 60.90625 15.476562 C 60.917969 15.476562 60.941406 15.488281 60.953125 15.5 C 61.09375 15.570312 61.230469 15.648438 61.367188 15.71875 C 61.519531 15.800781 61.65625 15.878906 61.792969 15.960938 C 62.082031 16.121094 62.359375 16.296875 62.636719 16.480469 C 62.667969 16.503906 62.714844 16.527344 62.75 16.550781 C 62.84375 16.609375 62.933594 16.675781 63.027344 16.734375 C 63.039062 16.734375 63.039062 16.746094 63.050781 16.746094 C 63.164062 16.828125 63.28125 16.910156 63.394531 16.988281 C 63.417969 17 63.429688 17.011719 63.453125 17.023438 C 64.363281 17.683594 65.214844 18.410156 65.988281 19.195312 C 67.65625 20.894531 69.003906 22.882812 70.039062 25.179688 C 72.261719 30.101562 72.414062 35.140625 71.859375 37.96875 C 70.902344 42.878906 68.230469 50.054688 60.839844 54.085938 C 62.21875 53.625 63.636719 53.058594 65.078125 52.378906 L 65.320312 52.261719 C 66.65625 51.613281 68.023438 50.875 69.40625 50.042969 C 70.789062 49.210938 72.195312 48.289062 73.585938 47.292969 C 75.140625 44.234375 75.992188 41.230469 76.453125 38.871094 C 77.097656 35.648438 77.03125 30.679688 75.246094 25.550781 Z M 75.246094 25.550781 " fill-opacity="1" fill-rule="nonzero"/></g><g clip-path="url(#id2)"><path fill="#000000" d="M 98.601562 31.523438 C 98.382812 31.316406 93.0625 26.3125 84.804688 21.253906 C 81.796875 19.414062 78.171875 17.429688 74.128906 15.707031 C 72.539062 15.027344 70.878906 14.390625 69.164062 13.8125 C 71.800781 16.179688 73.632812 18.804688 74.878906 21.195312 C 76.027344 21.738281 77.144531 22.316406 78.226562 22.894531 C 85.472656 26.796875 91.101562 31.246094 93.742188 33.488281 C 91.035156 36.699219 84.597656 43.851562 76.476562 49.789062 C 74.832031 51.003906 73.101562 52.160156 71.328125 53.222656 C 69.902344 54.085938 68.429688 54.886719 66.941406 55.601562 C 63.84375 57.089844 60.644531 58.210938 57.417969 58.777344 C 49.195312 60.222656 43.277344 58.6875 39.050781 55.972656 C 37.957031 55.265625 36.964844 54.480469 36.089844 53.648438 C 34.871094 52.503906 33.855469 51.257812 32.992188 50.007812 C 31.679688 48.089844 30.746094 46.152344 30.101562 44.476562 C 29.089844 41.839844 28.386719 36.953125 29.746094 31.8125 C 31.355469 25.722656 35.308594 21.125 41.503906 18.132812 C 42.816406 17.496094 44.199219 16.976562 45.625 16.585938 C 45.429688 16.609375 45.234375 16.644531 45.039062 16.675781 C 38.898438 17.761719 33.109375 20.59375 28.039062 23.980469 C 26.625 26.300781 25.761719 28.601562 25.230469 30.609375 C 23.582031 36.828125 24.425781 42.71875 25.75 46.160156 C 25.792969 46.289062 25.839844 46.40625 25.898438 46.53125 C 26.324219 47.605469 26.867188 48.796875 27.546875 50.042969 C 27.9375 50.773438 28.386719 51.523438 28.882812 52.261719 C 30.320312 54.445312 32.210938 56.675781 34.640625 58.59375 C 35.445312 59.230469 36.273438 59.804688 37.136719 60.328125 C 38.957031 61.425781 40.902344 62.277344 42.976562 62.890625 C 45.554688 63.652344 48.332031 64.035156 51.304688 64.035156 C 53.515625 64.035156 55.816406 63.828125 58.234375 63.398438 C 60.34375 63.03125 62.429688 62.453125 64.476562 61.722656 C 82.859375 55.140625 98.140625 35.578125 98.84375 34.65625 L 100.144531 32.980469 Z M 98.601562 31.523438 " fill-opacity="1" fill-rule="nonzero"/></g><path fill="#fdbe35" d="M 61.78125 41.726562 C 61.78125 41.980469 61.769531 42.234375 61.761719 42.464844 C 61.242188 52.191406 50.519531 52.273438 50.335938 52.273438 C 50.152344 52.273438 38.886719 52.179688 38.886719 41.714844 C 38.886719 40.742188 38.980469 39.832031 39.152344 38.953125 C 40.558594 31.835938 47.179688 27.503906 50.335938 17.984375 C 53.871094 28.679688 61.78125 32.839844 61.78125 41.726562 Z M 61.78125 41.726562 " fill-opacity="1" fill-rule="nonzero"/><path fill="#000000" d="M 60.03125 44.5 C 59.386719 46.867188 57.832031 48.621094 55.390625 49.71875 C 52.882812 50.851562 50.359375 50.875 50.335938 50.875 C 50.3125 50.875 47.652344 50.851562 45.097656 49.640625 C 42.101562 48.21875 40.488281 45.792969 40.304688 42.394531 C 41.191406 44.117188 42.632812 45.550781 44.945312 45.375 C 50.4375 44.949219 51.765625 44.265625 53.722656 45.90625 C 55.367188 47.292969 56.796875 47.964844 60.03125 44.5 Z M 60.03125 44.5 " fill-opacity="1" fill-rule="nonzero"/><g fill="#000000" fill-opacity="1"><g transform="translate(121.509335, 34.41142)"><g><path d="M 0.148438 0 L 6.566406 0 L 7.703125 -2.96875 L 14.871094 -2.96875 L 16.007812 0 L 22.453125 0 L 14.300781 -20.984375 L 8.304688 -20.984375 Z M 8.964844 -7.40625 L 11.300781 -13.910156 L 13.640625 -7.40625 Z M 8.964844 -7.40625 "/></g></g></g><g fill="#000000" fill-opacity="1"><g transform="translate(144.099397, 34.41142)"><g><path d="M 2.21875 0 L 8.273438 0 L 8.273438 -5.964844 L 10.550781 -5.964844 L 13.550781 0 L 20.414062 0 L 16.546875 -7.074219 C 18.765625 -8.304688 20.027344 -10.523438 20.027344 -13.460938 C 20.027344 -18.109375 16.878906 -20.984375 11.78125 -20.984375 L 2.21875 -20.984375 Z M 8.15625 -10.792969 L 8.15625 -16.039062 L 10.972656 -16.039062 C 12.890625 -16.039062 13.941406 -15.109375 13.941406 -13.429688 C 13.941406 -11.75 12.890625 -10.792969 10.972656 -10.792969 Z M 8.15625 -10.792969 "/></g></g></g><g fill="#000000" fill-opacity="1"><g transform="translate(165.670791, 34.41142)"><g><path d="M 0.148438 0 L 6.566406 0 L 7.703125 -2.96875 L 14.871094 -2.96875 L 16.007812 0 L 22.453125 0 L 14.300781 -20.984375 L 8.304688 -20.984375 Z M 8.964844 -7.40625 L 11.300781 -13.910156 L 13.640625 -7.40625 Z M 8.964844 -7.40625 "/></g></g></g><g fill="#000000" fill-opacity="1"><g transform="translate(188.260854, 34.41142)"><g/></g></g><g fill="#000000" fill-opacity="1"><g transform="translate(195.181685, 34.41142)"><g><path d="M 1.078125 0 L 17.71875 0 L 17.71875 -5.335938 L 8.785156 -5.335938 L 17.507812 -16.636719 L 17.507812 -20.984375 L 1.410156 -20.984375 L 1.410156 -15.648438 L 9.804688 -15.648438 L 1.078125 -4.347656 Z M 1.078125 0 "/></g></g></g><g fill="#000000" fill-opacity="1"><g transform="translate(213.996731, 34.41142)"><g><path d="M 0.148438 0 L 6.566406 0 L 7.703125 -2.96875 L 14.871094 -2.96875 L 16.007812 0 L 22.453125 0 L 14.300781 -20.984375 L 8.304688 -20.984375 Z M 8.964844 -7.40625 L 11.300781 -13.910156 L 13.640625 -7.40625 Z M 8.964844 -7.40625 "/></g></g></g><g fill="#000000" fill-opacity="1"><g transform="translate(236.586794, 34.41142)"><g><path d="M 7.226562 0 L 13.25 0 L 13.25 -15.378906 L 19.636719 -15.378906 L 19.636719 -20.984375 L 0.839844 -20.984375 L 0.839844 -15.378906 L 7.226562 -15.378906 Z M 7.226562 0 "/></g></g></g><g fill="#000000" fill-opacity="1"><g transform="translate(257.049656, 34.41142)"><g><path d="M 2.21875 0 L 16.9375 0 L 16.9375 -4.945312 L 8.214844 -4.945312 L 8.214844 -8.183594 L 15.800781 -8.183594 L 15.800781 -13.039062 L 8.214844 -13.039062 L 8.214844 -16.097656 L 16.609375 -16.097656 L 16.609375 -20.984375 L 2.21875 -20.984375 Z M 2.21875 0 "/></g></g></g><g fill="#545454" fill-opacity="1"><g transform="translate(121.414484, 60.280499)"><g><path d="M 6.671875 0.230469 C 9.707031 0.230469 12.0625 -1.613281 12.636719 -4.414062 L 9.9375 -4.414062 C 9.457031 -3.097656 8.238281 -2.257812 6.722656 -2.257812 C 4.761719 -2.257812 3.378906 -3.691406 3.378906 -5.765625 C 3.378906 -7.84375 4.777344 -9.277344 6.738281 -9.277344 C 8.207031 -9.277344 9.410156 -8.484375 9.855469 -7.21875 L 12.554688 -7.21875 C 11.898438 -9.984375 9.589844 -11.765625 6.65625 -11.765625 C 3.164062 -11.765625 0.707031 -9.292969 0.707031 -5.765625 C 0.707031 -2.242188 3.164062 0.230469 6.671875 0.230469 Z M 6.671875 0.230469 "/></g></g></g><g fill="#545454" fill-opacity="1"><g transform="translate(134.711122, 60.280499)"><g><path d="M 5.503906 0.230469 C 8.371094 0.230469 10.347656 -1.632812 10.347656 -4.332031 C 10.347656 -7.019531 8.371094 -8.882812 5.503906 -8.882812 C 2.621094 -8.882812 0.644531 -7.019531 0.644531 -4.332031 C 0.644531 -1.632812 2.621094 0.230469 5.503906 0.230469 Z M 3.113281 -4.332031 C 3.113281 -5.75 4.101562 -6.738281 5.503906 -6.738281 C 6.902344 -6.738281 7.875 -5.75 7.875 -4.332031 C 7.875 -2.917969 6.902344 -1.929688 5.503906 -1.929688 C 4.101562 -1.929688 3.113281 -2.917969 3.113281 -4.332031 Z M 3.113281 -4.332031 "/></g></g></g><g fill="#545454" fill-opacity="1"><g transform="translate(145.701032, 60.280499)"><g><path d="M 1.253906 0 L 3.757812 0 L 3.757812 -4.679688 C 3.757812 -5.933594 4.449219 -6.738281 5.519531 -6.738281 C 6.558594 -6.738281 7.199219 -5.964844 7.199219 -4.746094 L 7.199219 0 L 9.671875 0 L 9.671875 -4.679688 C 9.671875 -5.933594 10.363281 -6.738281 11.433594 -6.738281 C 12.472656 -6.738281 13.117188 -5.964844 13.117188 -4.746094 L 13.117188 0 L 15.621094 0 L 15.621094 -5.042969 C 15.621094 -7.414062 14.203125 -8.882812 11.996094 -8.882812 C 10.675781 -8.882812 9.589844 -8.371094 8.882812 -7.464844 C 8.273438 -8.386719 7.265625 -8.882812 6.03125 -8.882812 C 4.925781 -8.882812 3.988281 -8.503906 3.363281 -7.761719 L 3.113281 -8.652344 L 1.253906 -8.652344 Z M 1.253906 0 "/></g></g></g><g fill="#545454" fill-opacity="1"><g transform="translate(162.408341, 60.280499)"><g><path d="M 6.492188 0.230469 C 9.078125 0.230469 10.90625 -1.648438 10.90625 -4.332031 C 10.90625 -6.988281 9.078125 -8.882812 6.492188 -8.882812 C 5.238281 -8.882812 4.167969 -8.4375 3.394531 -7.660156 L 3.113281 -8.652344 L 1.253906 -8.652344 L 1.253906 3.296875 L 3.757812 3.296875 L 3.757812 -0.675781 C 4.480469 -0.0976562 5.421875 0.230469 6.492188 0.230469 Z M 3.65625 -4.332031 C 3.65625 -5.734375 4.648438 -6.738281 6.046875 -6.738281 C 7.464844 -6.738281 8.4375 -5.734375 8.4375 -4.332031 C 8.4375 -2.917969 7.464844 -1.929688 6.046875 -1.929688 C 4.648438 -1.929688 3.65625 -2.917969 3.65625 -4.332031 Z M 3.65625 -4.332031 "/></g></g></g><g fill="#545454" fill-opacity="1"><g transform="translate(173.958462, 60.280499)"><g><path d="M 4.136719 0.164062 C 5.421875 0.164062 6.476562 -0.246094 7.21875 -1.003906 L 7.496094 0 L 9.359375 0 L 9.359375 -5.207031 C 9.359375 -7.496094 7.808594 -8.882812 5.222656 -8.882812 C 3.015625 -8.882812 1.566406 -7.828125 1.253906 -5.949219 L 3.65625 -5.949219 C 3.804688 -6.558594 4.433594 -6.96875 5.238281 -6.96875 C 6.226562 -6.96875 6.902344 -6.410156 6.902344 -5.554688 L 6.902344 -5.15625 L 3.773438 -5.15625 C 1.976562 -5.15625 0.824219 -4.121094 0.824219 -2.519531 C 0.824219 -0.855469 2.09375 0.164062 4.136719 0.164062 Z M 3.296875 -2.621094 C 3.296875 -3.214844 3.789062 -3.59375 4.546875 -3.59375 L 6.921875 -3.59375 C 6.871094 -2.421875 5.964844 -1.632812 4.710938 -1.632812 C 3.855469 -1.632812 3.296875 -2.027344 3.296875 -2.621094 Z M 3.296875 -2.621094 "/></g></g></g><g fill="#545454" fill-opacity="1"><g transform="translate(184.404651, 60.280499)"><g><path d="M 1.253906 0 L 3.757812 0 L 3.757812 -4.53125 C 3.757812 -5.898438 4.515625 -6.738281 5.667969 -6.738281 C 6.738281 -6.738281 7.382812 -5.980469 7.382812 -4.710938 L 7.382812 0 L 9.886719 0 L 9.886719 -4.976562 C 9.886719 -7.367188 8.519531 -8.882812 6.261719 -8.882812 C 5.109375 -8.882812 4.070312 -8.484375 3.378906 -7.679688 L 3.113281 -8.652344 L 1.253906 -8.652344 Z M 1.253906 0 "/></g></g></g><g fill="#545454" fill-opacity="1"><g transform="translate(195.378093, 60.280499)"><g><path d="M 1.285156 3.296875 L 2.457031 3.296875 C 4.464844 3.296875 5.304688 2.800781 6.015625 1.023438 L 9.871094 -8.652344 L 7.183594 -8.652344 L 6.03125 -5.503906 L 5.238281 -3.296875 L 2.917969 -8.652344 L 0.148438 -8.652344 L 4.035156 -0.28125 L 3.9375 0.015625 C 3.640625 0.875 3.296875 1.136719 2.273438 1.136719 L 1.285156 1.136719 Z M 1.285156 3.296875 "/></g></g></g><g fill="#545454" fill-opacity="1"><g transform="translate(205.379405, 60.280499)"><g/></g></g><g fill="#545454" fill-opacity="1"><g transform="translate(209.25141, 60.280499)"><g><path d="M 1.382812 0 L 9.046875 0 L 9.046875 -2.457031 L 4.003906 -2.457031 L 4.003906 -11.535156 L 1.382812 -11.535156 Z M 1.382812 0 "/></g></g></g><g fill="#545454" fill-opacity="1"><g transform="translate(218.741949, 60.280499)"><g><path d="M 1.253906 0 L 3.757812 0 L 3.757812 -8.652344 L 1.253906 -8.652344 Z M 0.890625 -11.453125 C 0.890625 -10.527344 1.550781 -9.886719 2.503906 -9.886719 C 3.460938 -9.886719 4.121094 -10.527344 4.121094 -11.453125 C 4.121094 -12.375 3.460938 -13.015625 2.503906 -13.015625 C 1.550781 -13.015625 0.890625 -12.375 0.890625 -11.453125 Z M 0.890625 -11.453125 "/></g></g></g><g fill="#545454" fill-opacity="1"><g transform="translate(223.750845, 60.280499)"><g><path d="M 1.253906 0 L 3.757812 0 L 3.757812 -4.679688 C 3.757812 -5.933594 4.449219 -6.738281 5.519531 -6.738281 C 6.558594 -6.738281 7.199219 -5.964844 7.199219 -4.746094 L 7.199219 0 L 9.671875 0 L 9.671875 -4.679688 C 9.671875 -5.933594 10.363281 -6.738281 11.433594 -6.738281 C 12.472656 -6.738281 13.117188 -5.964844 13.117188 -4.746094 L 13.117188 0 L 15.621094 0 L 15.621094 -5.042969 C 15.621094 -7.414062 14.203125 -8.882812 11.996094 -8.882812 C 10.675781 -8.882812 9.589844 -8.371094 8.882812 -7.464844 C 8.273438 -8.386719 7.265625 -8.882812 6.03125 -8.882812 C 4.925781 -8.882812 3.988281 -8.503906 3.363281 -7.761719 L 3.113281 -8.652344 L 1.253906 -8.652344 Z M 1.253906 0 "/></g></g></g><g fill="#545454" fill-opacity="1"><g transform="translate(240.458154, 60.280499)"><g><path d="M 1.253906 0 L 3.757812 0 L 3.757812 -8.652344 L 1.253906 -8.652344 Z M 0.890625 -11.453125 C 0.890625 -10.527344 1.550781 -9.886719 2.503906 -9.886719 C 3.460938 -9.886719 4.121094 -10.527344 4.121094 -11.453125 C 4.121094 -12.375 3.460938 -13.015625 2.503906 -13.015625 C 1.550781 -13.015625 0.890625 -12.375 0.890625 -11.453125 Z M 0.890625 -11.453125 "/></g></g></g><g fill="#545454" fill-opacity="1"><g transform="translate(245.467049, 60.280499)"><g><path d="M 5.421875 0 L 7.003906 0 L 7.003906 -2.175781 L 5.964844 -2.175781 C 4.976562 -2.175781 4.515625 -2.652344 4.515625 -3.65625 L 4.515625 -6.609375 L 6.886719 -6.609375 L 6.886719 -8.652344 L 4.515625 -8.652344 L 4.515625 -10.890625 L 2.570312 -10.890625 L 2.421875 -9.769531 C 2.289062 -8.882812 2.042969 -8.652344 1.105469 -8.652344 L 0.328125 -8.652344 L 0.328125 -6.609375 L 2.011719 -6.609375 L 2.011719 -3.277344 C 2.011719 -1.167969 3.230469 0 5.421875 0 Z M 5.421875 0 "/></g></g></g><g fill="#545454" fill-opacity="1"><g transform="translate(253.161633, 60.280499)"><g><path d="M 5.339844 0.230469 C 7.464844 0.230469 9.144531 -0.855469 9.902344 -2.6875 L 7.367188 -2.6875 C 6.953125 -2.109375 6.210938 -1.78125 5.386719 -1.78125 C 4.25 -1.78125 3.363281 -2.421875 3.128906 -3.609375 L 10.066406 -3.609375 C 10.214844 -6.773438 8.335938 -8.882812 5.371094 -8.882812 C 2.570312 -8.882812 0.644531 -7.019531 0.644531 -4.332031 C 0.644531 -1.632812 2.554688 0.230469 5.339844 0.230469 Z M 3.148438 -5.191406 C 3.425781 -6.246094 4.285156 -6.886719 5.386719 -6.886719 C 6.542969 -6.886719 7.367188 -6.246094 7.644531 -5.191406 Z M 3.148438 -5.191406 "/></g></g></g><g fill="#545454" fill-opacity="1"><g transform="translate(263.854969, 60.280499)"><g><path d="M 5.042969 0.230469 C 6.292969 0.230469 7.367188 -0.214844 8.140625 -0.988281 L 8.4375 0 L 10.296875 0 L 10.296875 -12.191406 L 7.792969 -12.191406 L 7.792969 -7.976562 C 7.050781 -8.550781 6.113281 -8.882812 5.042969 -8.882812 C 2.472656 -8.882812 0.644531 -6.988281 0.644531 -4.332031 C 0.644531 -1.648438 2.472656 0.230469 5.042969 0.230469 Z M 3.113281 -4.332031 C 3.113281 -5.734375 4.085938 -6.738281 5.503906 -6.738281 C 6.902344 -6.738281 7.875 -5.734375 7.875 -4.332031 C 7.875 -2.917969 6.902344 -1.929688 5.503906 -1.929688 C 4.085938 -1.929688 3.113281 -2.917969 3.113281 -4.332031 Z M 3.113281 -4.332031 "/></g></g></g></svg>